G04 #@! TF.GenerationSoftware,KiCad,Pcbnew,(5.1.0)-1*
G04 #@! TF.CreationDate,2019-05-01T11:47:09-07:00*
G04 #@! TF.ProjectId,Lec18-PCB_kicad,4c656331-382d-4504-9342-5f6b69636164,rev?*
G04 #@! TF.SameCoordinates,Original*
G04 #@! TF.FileFunction,Legend,Top*
G04 #@! TF.FilePolarity,Positive*
%FSLAX46Y46*%
G04 Gerber Fmt 4.6, Leading zero omitted, Abs format (unit mm)*
G04 Created by KiCad (PCBNEW (5.1.0)-1) date 2019-05-01 11:47:09*
%MOMM*%
%LPD*%
G04 APERTURE LIST*
%ADD10C,0.100000*%
%ADD11C,0.120000*%
%ADD12C,0.150000*%
G04 APERTURE END LIST*
D10*
X77374761Y-102192380D02*
X77374761Y-101192380D01*
X77612857Y-101192380D01*
X77755714Y-101240000D01*
X77850952Y-101335238D01*
X77898571Y-101430476D01*
X77946190Y-101620952D01*
X77946190Y-101763809D01*
X77898571Y-101954285D01*
X77850952Y-102049523D01*
X77755714Y-102144761D01*
X77612857Y-102192380D01*
X77374761Y-102192380D01*
X78755714Y-102144761D02*
X78660476Y-102192380D01*
X78469999Y-102192380D01*
X78374761Y-102144761D01*
X78327142Y-102049523D01*
X78327142Y-101668571D01*
X78374761Y-101573333D01*
X78469999Y-101525714D01*
X78660476Y-101525714D01*
X78755714Y-101573333D01*
X78803333Y-101668571D01*
X78803333Y-101763809D01*
X78327142Y-101859047D01*
X79184285Y-102144761D02*
X79279523Y-102192380D01*
X79469999Y-102192380D01*
X79565238Y-102144761D01*
X79612857Y-102049523D01*
X79612857Y-102001904D01*
X79565238Y-101906666D01*
X79469999Y-101859047D01*
X79327142Y-101859047D01*
X79231904Y-101811428D01*
X79184285Y-101716190D01*
X79184285Y-101668571D01*
X79231904Y-101573333D01*
X79327142Y-101525714D01*
X79469999Y-101525714D01*
X79565238Y-101573333D01*
X80041428Y-102192380D02*
X80041428Y-101525714D01*
X80041428Y-101192380D02*
X79993809Y-101240000D01*
X80041428Y-101287619D01*
X80089047Y-101240000D01*
X80041428Y-101192380D01*
X80041428Y-101287619D01*
X80946190Y-101525714D02*
X80946190Y-102335238D01*
X80898571Y-102430476D01*
X80850952Y-102478095D01*
X80755714Y-102525714D01*
X80612857Y-102525714D01*
X80517619Y-102478095D01*
X80946190Y-102144761D02*
X80850952Y-102192380D01*
X80660476Y-102192380D01*
X80565238Y-102144761D01*
X80517619Y-102097142D01*
X80469999Y-102001904D01*
X80469999Y-101716190D01*
X80517619Y-101620952D01*
X80565238Y-101573333D01*
X80660476Y-101525714D01*
X80850952Y-101525714D01*
X80946190Y-101573333D01*
X81422380Y-101525714D02*
X81422380Y-102192380D01*
X81422380Y-101620952D02*
X81469999Y-101573333D01*
X81565238Y-101525714D01*
X81708095Y-101525714D01*
X81803333Y-101573333D01*
X81850952Y-101668571D01*
X81850952Y-102192380D01*
X82708095Y-102144761D02*
X82612857Y-102192380D01*
X82422380Y-102192380D01*
X82327142Y-102144761D01*
X82279523Y-102049523D01*
X82279523Y-101668571D01*
X82327142Y-101573333D01*
X82422380Y-101525714D01*
X82612857Y-101525714D01*
X82708095Y-101573333D01*
X82755714Y-101668571D01*
X82755714Y-101763809D01*
X82279523Y-101859047D01*
X83612857Y-102192380D02*
X83612857Y-101192380D01*
X83612857Y-102144761D02*
X83517619Y-102192380D01*
X83327142Y-102192380D01*
X83231904Y-102144761D01*
X83184285Y-102097142D01*
X83136666Y-102001904D01*
X83136666Y-101716190D01*
X83184285Y-101620952D01*
X83231904Y-101573333D01*
X83327142Y-101525714D01*
X83517619Y-101525714D01*
X83612857Y-101573333D01*
X84850952Y-102192380D02*
X84850952Y-101192380D01*
X84850952Y-101573333D02*
X84946190Y-101525714D01*
X85136666Y-101525714D01*
X85231904Y-101573333D01*
X85279523Y-101620952D01*
X85327142Y-101716190D01*
X85327142Y-102001904D01*
X85279523Y-102097142D01*
X85231904Y-102144761D01*
X85136666Y-102192380D01*
X84946190Y-102192380D01*
X84850952Y-102144761D01*
X85660476Y-101525714D02*
X85898571Y-102192380D01*
X86136666Y-101525714D02*
X85898571Y-102192380D01*
X85803333Y-102430476D01*
X85755714Y-102478095D01*
X85660476Y-102525714D01*
X87803333Y-101240000D02*
X87708095Y-101192380D01*
X87565238Y-101192380D01*
X87422380Y-101240000D01*
X87327142Y-101335238D01*
X87279523Y-101430476D01*
X87231904Y-101620952D01*
X87231904Y-101763809D01*
X87279523Y-101954285D01*
X87327142Y-102049523D01*
X87422380Y-102144761D01*
X87565238Y-102192380D01*
X87660476Y-102192380D01*
X87803333Y-102144761D01*
X87850952Y-102097142D01*
X87850952Y-101763809D01*
X87660476Y-101763809D01*
X88279523Y-102192380D02*
X88279523Y-101525714D01*
X88279523Y-101716190D02*
X88327142Y-101620952D01*
X88374761Y-101573333D01*
X88469999Y-101525714D01*
X88565238Y-101525714D01*
X89327142Y-102192380D02*
X89327142Y-101668571D01*
X89279523Y-101573333D01*
X89184285Y-101525714D01*
X88993809Y-101525714D01*
X88898571Y-101573333D01*
X89327142Y-102144761D02*
X89231904Y-102192380D01*
X88993809Y-102192380D01*
X88898571Y-102144761D01*
X88850952Y-102049523D01*
X88850952Y-101954285D01*
X88898571Y-101859047D01*
X88993809Y-101811428D01*
X89231904Y-101811428D01*
X89327142Y-101763809D01*
X89803333Y-101525714D02*
X89803333Y-102192380D01*
X89803333Y-101620952D02*
X89850952Y-101573333D01*
X89946190Y-101525714D01*
X90089047Y-101525714D01*
X90184285Y-101573333D01*
X90231904Y-101668571D01*
X90231904Y-102192380D01*
X90565238Y-101525714D02*
X90946190Y-101525714D01*
X90708095Y-101192380D02*
X90708095Y-102049523D01*
X90755714Y-102144761D01*
X90850952Y-102192380D01*
X90946190Y-102192380D01*
X92469999Y-102192380D02*
X92469999Y-101668571D01*
X92422380Y-101573333D01*
X92327142Y-101525714D01*
X92136666Y-101525714D01*
X92041428Y-101573333D01*
X92469999Y-102144761D02*
X92374761Y-102192380D01*
X92136666Y-102192380D01*
X92041428Y-102144761D01*
X91993809Y-102049523D01*
X91993809Y-101954285D01*
X92041428Y-101859047D01*
X92136666Y-101811428D01*
X92374761Y-101811428D01*
X92469999Y-101763809D01*
X92946190Y-101525714D02*
X92946190Y-102192380D01*
X92946190Y-101620952D02*
X92993809Y-101573333D01*
X93089047Y-101525714D01*
X93231904Y-101525714D01*
X93327142Y-101573333D01*
X93374761Y-101668571D01*
X93374761Y-102192380D01*
X94279523Y-102192380D02*
X94279523Y-101192380D01*
X94279523Y-102144761D02*
X94184285Y-102192380D01*
X93993809Y-102192380D01*
X93898571Y-102144761D01*
X93850952Y-102097142D01*
X93803333Y-102001904D01*
X93803333Y-101716190D01*
X93850952Y-101620952D01*
X93898571Y-101573333D01*
X93993809Y-101525714D01*
X94184285Y-101525714D01*
X94279523Y-101573333D01*
X95374761Y-101192380D02*
X95946190Y-101192380D01*
X95660476Y-102192380D02*
X95660476Y-101192380D01*
X96565238Y-101192380D02*
X96565238Y-101906666D01*
X96517619Y-102049523D01*
X96422380Y-102144761D01*
X96279523Y-102192380D01*
X96184285Y-102192380D01*
X76128333Y-93137380D02*
X75795000Y-92661190D01*
X75556904Y-93137380D02*
X75556904Y-92137380D01*
X75937857Y-92137380D01*
X76033095Y-92185000D01*
X76080714Y-92232619D01*
X76128333Y-92327857D01*
X76128333Y-92470714D01*
X76080714Y-92565952D01*
X76033095Y-92613571D01*
X75937857Y-92661190D01*
X75556904Y-92661190D01*
X76985476Y-93137380D02*
X76985476Y-92613571D01*
X76937857Y-92518333D01*
X76842619Y-92470714D01*
X76652142Y-92470714D01*
X76556904Y-92518333D01*
X76985476Y-93089761D02*
X76890238Y-93137380D01*
X76652142Y-93137380D01*
X76556904Y-93089761D01*
X76509285Y-92994523D01*
X76509285Y-92899285D01*
X76556904Y-92804047D01*
X76652142Y-92756428D01*
X76890238Y-92756428D01*
X76985476Y-92708809D01*
X77414047Y-93089761D02*
X77509285Y-93137380D01*
X77699761Y-93137380D01*
X77795000Y-93089761D01*
X77842619Y-92994523D01*
X77842619Y-92946904D01*
X77795000Y-92851666D01*
X77699761Y-92804047D01*
X77556904Y-92804047D01*
X77461666Y-92756428D01*
X77414047Y-92661190D01*
X77414047Y-92613571D01*
X77461666Y-92518333D01*
X77556904Y-92470714D01*
X77699761Y-92470714D01*
X77795000Y-92518333D01*
X78271190Y-92470714D02*
X78271190Y-93470714D01*
X78271190Y-92518333D02*
X78366428Y-92470714D01*
X78556904Y-92470714D01*
X78652142Y-92518333D01*
X78699761Y-92565952D01*
X78747380Y-92661190D01*
X78747380Y-92946904D01*
X78699761Y-93042142D01*
X78652142Y-93089761D01*
X78556904Y-93137380D01*
X78366428Y-93137380D01*
X78271190Y-93089761D01*
X79175952Y-93137380D02*
X79175952Y-92137380D01*
X79175952Y-92518333D02*
X79271190Y-92470714D01*
X79461666Y-92470714D01*
X79556904Y-92518333D01*
X79604523Y-92565952D01*
X79652142Y-92661190D01*
X79652142Y-92946904D01*
X79604523Y-93042142D01*
X79556904Y-93089761D01*
X79461666Y-93137380D01*
X79271190Y-93137380D01*
X79175952Y-93089761D01*
X80461666Y-93089761D02*
X80366428Y-93137380D01*
X80175952Y-93137380D01*
X80080714Y-93089761D01*
X80033095Y-92994523D01*
X80033095Y-92613571D01*
X80080714Y-92518333D01*
X80175952Y-92470714D01*
X80366428Y-92470714D01*
X80461666Y-92518333D01*
X80509285Y-92613571D01*
X80509285Y-92708809D01*
X80033095Y-92804047D01*
X80937857Y-93137380D02*
X80937857Y-92470714D01*
X80937857Y-92661190D02*
X80985476Y-92565952D01*
X81033095Y-92518333D01*
X81128333Y-92470714D01*
X81223571Y-92470714D01*
X81556904Y-93137380D02*
X81556904Y-92470714D01*
X81556904Y-92661190D02*
X81604523Y-92565952D01*
X81652142Y-92518333D01*
X81747380Y-92470714D01*
X81842619Y-92470714D01*
X82080714Y-92470714D02*
X82318809Y-93137380D01*
X82556904Y-92470714D02*
X82318809Y-93137380D01*
X82223571Y-93375476D01*
X82175952Y-93423095D01*
X82080714Y-93470714D01*
X84271190Y-93042142D02*
X84223571Y-93089761D01*
X84080714Y-93137380D01*
X83985476Y-93137380D01*
X83842619Y-93089761D01*
X83747380Y-92994523D01*
X83699761Y-92899285D01*
X83652142Y-92708809D01*
X83652142Y-92565952D01*
X83699761Y-92375476D01*
X83747380Y-92280238D01*
X83842619Y-92185000D01*
X83985476Y-92137380D01*
X84080714Y-92137380D01*
X84223571Y-92185000D01*
X84271190Y-92232619D01*
X85128333Y-93137380D02*
X85128333Y-92613571D01*
X85080714Y-92518333D01*
X84985476Y-92470714D01*
X84795000Y-92470714D01*
X84699761Y-92518333D01*
X85128333Y-93089761D02*
X85033095Y-93137380D01*
X84795000Y-93137380D01*
X84699761Y-93089761D01*
X84652142Y-92994523D01*
X84652142Y-92899285D01*
X84699761Y-92804047D01*
X84795000Y-92756428D01*
X85033095Y-92756428D01*
X85128333Y-92708809D01*
X85604523Y-93137380D02*
X85604523Y-92470714D01*
X85604523Y-92661190D02*
X85652142Y-92565952D01*
X85699761Y-92518333D01*
X85795000Y-92470714D01*
X85890238Y-92470714D01*
X87318809Y-92613571D02*
X87461666Y-92661190D01*
X87509285Y-92708809D01*
X87556904Y-92804047D01*
X87556904Y-92946904D01*
X87509285Y-93042142D01*
X87461666Y-93089761D01*
X87366428Y-93137380D01*
X86985476Y-93137380D01*
X86985476Y-92137380D01*
X87318809Y-92137380D01*
X87414047Y-92185000D01*
X87461666Y-92232619D01*
X87509285Y-92327857D01*
X87509285Y-92423095D01*
X87461666Y-92518333D01*
X87414047Y-92565952D01*
X87318809Y-92613571D01*
X86985476Y-92613571D01*
X88366428Y-93089761D02*
X88271190Y-93137380D01*
X88080714Y-93137380D01*
X87985476Y-93089761D01*
X87937857Y-92994523D01*
X87937857Y-92613571D01*
X87985476Y-92518333D01*
X88080714Y-92470714D01*
X88271190Y-92470714D01*
X88366428Y-92518333D01*
X88414047Y-92613571D01*
X88414047Y-92708809D01*
X87937857Y-92804047D01*
X89271190Y-93137380D02*
X89271190Y-92613571D01*
X89223571Y-92518333D01*
X89128333Y-92470714D01*
X88937857Y-92470714D01*
X88842619Y-92518333D01*
X89271190Y-93089761D02*
X89175952Y-93137380D01*
X88937857Y-93137380D01*
X88842619Y-93089761D01*
X88795000Y-92994523D01*
X88795000Y-92899285D01*
X88842619Y-92804047D01*
X88937857Y-92756428D01*
X89175952Y-92756428D01*
X89271190Y-92708809D01*
X89747380Y-93137380D02*
X89747380Y-92470714D01*
X89747380Y-92661190D02*
X89795000Y-92565952D01*
X89842619Y-92518333D01*
X89937857Y-92470714D01*
X90033095Y-92470714D01*
X90795000Y-93137380D02*
X90795000Y-92137380D01*
X90795000Y-93089761D02*
X90699761Y-93137380D01*
X90509285Y-93137380D01*
X90414047Y-93089761D01*
X90366428Y-93042142D01*
X90318809Y-92946904D01*
X90318809Y-92661190D01*
X90366428Y-92565952D01*
X90414047Y-92518333D01*
X90509285Y-92470714D01*
X90699761Y-92470714D01*
X90795000Y-92518333D01*
X91271190Y-93042142D02*
X91318809Y-93089761D01*
X91271190Y-93137380D01*
X91223571Y-93089761D01*
X91271190Y-93042142D01*
X91271190Y-93137380D01*
X91271190Y-92518333D02*
X91318809Y-92565952D01*
X91271190Y-92613571D01*
X91223571Y-92565952D01*
X91271190Y-92518333D01*
X91271190Y-92613571D01*
X77747380Y-94737380D02*
X77747380Y-93737380D01*
X78128333Y-93737380D01*
X78223571Y-93785000D01*
X78271190Y-93832619D01*
X78318809Y-93927857D01*
X78318809Y-94070714D01*
X78271190Y-94165952D01*
X78223571Y-94213571D01*
X78128333Y-94261190D01*
X77747380Y-94261190D01*
X78890238Y-94737380D02*
X78795000Y-94689761D01*
X78747380Y-94642142D01*
X78699761Y-94546904D01*
X78699761Y-94261190D01*
X78747380Y-94165952D01*
X78795000Y-94118333D01*
X78890238Y-94070714D01*
X79033095Y-94070714D01*
X79128333Y-94118333D01*
X79175952Y-94165952D01*
X79223571Y-94261190D01*
X79223571Y-94546904D01*
X79175952Y-94642142D01*
X79128333Y-94689761D01*
X79033095Y-94737380D01*
X78890238Y-94737380D01*
X79556904Y-94070714D02*
X79747380Y-94737380D01*
X79937857Y-94261190D01*
X80128333Y-94737380D01*
X80318809Y-94070714D01*
X81080714Y-94689761D02*
X80985476Y-94737380D01*
X80795000Y-94737380D01*
X80699761Y-94689761D01*
X80652142Y-94594523D01*
X80652142Y-94213571D01*
X80699761Y-94118333D01*
X80795000Y-94070714D01*
X80985476Y-94070714D01*
X81080714Y-94118333D01*
X81128333Y-94213571D01*
X81128333Y-94308809D01*
X80652142Y-94404047D01*
X81556904Y-94737380D02*
X81556904Y-94070714D01*
X81556904Y-94261190D02*
X81604523Y-94165952D01*
X81652142Y-94118333D01*
X81747380Y-94070714D01*
X81842619Y-94070714D01*
X82556904Y-94689761D02*
X82461666Y-94737380D01*
X82271190Y-94737380D01*
X82175952Y-94689761D01*
X82128333Y-94594523D01*
X82128333Y-94213571D01*
X82175952Y-94118333D01*
X82271190Y-94070714D01*
X82461666Y-94070714D01*
X82556904Y-94118333D01*
X82604523Y-94213571D01*
X82604523Y-94308809D01*
X82128333Y-94404047D01*
X83461666Y-94737380D02*
X83461666Y-93737380D01*
X83461666Y-94689761D02*
X83366428Y-94737380D01*
X83175952Y-94737380D01*
X83080714Y-94689761D01*
X83033095Y-94642142D01*
X82985476Y-94546904D01*
X82985476Y-94261190D01*
X83033095Y-94165952D01*
X83080714Y-94118333D01*
X83175952Y-94070714D01*
X83366428Y-94070714D01*
X83461666Y-94118333D01*
X84699761Y-94737380D02*
X84699761Y-93737380D01*
X84699761Y-94118333D02*
X84795000Y-94070714D01*
X84985476Y-94070714D01*
X85080714Y-94118333D01*
X85128333Y-94165952D01*
X85175952Y-94261190D01*
X85175952Y-94546904D01*
X85128333Y-94642142D01*
X85080714Y-94689761D01*
X84985476Y-94737380D01*
X84795000Y-94737380D01*
X84699761Y-94689761D01*
X85509285Y-94070714D02*
X85747380Y-94737380D01*
X85985476Y-94070714D02*
X85747380Y-94737380D01*
X85652142Y-94975476D01*
X85604523Y-95023095D01*
X85509285Y-95070714D01*
X87699761Y-94737380D02*
X87366428Y-94261190D01*
X87128333Y-94737380D02*
X87128333Y-93737380D01*
X87509285Y-93737380D01*
X87604523Y-93785000D01*
X87652142Y-93832619D01*
X87699761Y-93927857D01*
X87699761Y-94070714D01*
X87652142Y-94165952D01*
X87604523Y-94213571D01*
X87509285Y-94261190D01*
X87128333Y-94261190D01*
X88128333Y-93737380D02*
X88128333Y-94546904D01*
X88175952Y-94642142D01*
X88223571Y-94689761D01*
X88318809Y-94737380D01*
X88509285Y-94737380D01*
X88604523Y-94689761D01*
X88652142Y-94642142D01*
X88699761Y-94546904D01*
X88699761Y-93737380D01*
X89175952Y-94737380D02*
X89175952Y-93737380D01*
X89509285Y-94451666D01*
X89842619Y-93737380D01*
X89842619Y-94737380D01*
D11*
X110906000Y-72470000D02*
X110906000Y-73800000D01*
X109576000Y-72470000D02*
X110906000Y-72470000D01*
X108306000Y-72470000D02*
X108306000Y-75130000D01*
X108306000Y-75130000D02*
X105706000Y-75130000D01*
X108306000Y-72470000D02*
X105706000Y-72470000D01*
X105706000Y-72470000D02*
X105706000Y-75130000D01*
X113760000Y-59570000D02*
X134340000Y-59570000D01*
X116430000Y-72524000D02*
X134340000Y-72524000D01*
X116430000Y-76210000D02*
X134340000Y-76210000D01*
X134340000Y-76210000D02*
X134340000Y-56020000D01*
X113760000Y-72524000D02*
X116430000Y-72524000D01*
X134214000Y-56020000D02*
X113767000Y-56020000D01*
X113760000Y-74810000D02*
X113760000Y-76210000D01*
X116430000Y-72524000D02*
X116430000Y-76210000D01*
X113760000Y-76210000D02*
X116430000Y-76210000D01*
X113767000Y-56020000D02*
X113767000Y-74692000D01*
X118690560Y-83025000D02*
X118690560Y-84825000D01*
X117790560Y-83925000D02*
X119590560Y-83925000D01*
X136670000Y-89000000D02*
X136670000Y-89080000D01*
X136630000Y-88226000D02*
X136630000Y-89854000D01*
X136590000Y-87874000D02*
X136590000Y-90206000D01*
X136550000Y-87605000D02*
X136550000Y-90475000D01*
X136510000Y-87379000D02*
X136510000Y-90701000D01*
X136470000Y-87180000D02*
X136470000Y-90900000D01*
X136430000Y-87001000D02*
X136430000Y-91079000D01*
X136390000Y-86837000D02*
X136390000Y-91243000D01*
X136350000Y-86685000D02*
X136350000Y-91395000D01*
X136310000Y-86542000D02*
X136310000Y-91538000D01*
X136270000Y-86408000D02*
X136270000Y-91672000D01*
X136230000Y-86281000D02*
X136230000Y-91799000D01*
X136190000Y-86160000D02*
X136190000Y-91920000D01*
X136150000Y-86044000D02*
X136150000Y-92036000D01*
X136110000Y-85933000D02*
X136110000Y-92147000D01*
X136070000Y-85826000D02*
X136070000Y-92254000D01*
X136030000Y-85723000D02*
X136030000Y-92357000D01*
X135990000Y-85624000D02*
X135990000Y-92456000D01*
X135950000Y-85528000D02*
X135950000Y-92552000D01*
X135910000Y-85435000D02*
X135910000Y-92645000D01*
X135870000Y-85344000D02*
X135870000Y-92736000D01*
X135830000Y-85256000D02*
X135830000Y-92824000D01*
X135790000Y-85171000D02*
X135790000Y-92909000D01*
X135750000Y-85088000D02*
X135750000Y-92992000D01*
X135711000Y-85007000D02*
X135711000Y-93073000D01*
X135671000Y-84927000D02*
X135671000Y-93153000D01*
X135631000Y-84850000D02*
X135631000Y-93230000D01*
X135591000Y-84775000D02*
X135591000Y-93305000D01*
X135551000Y-84701000D02*
X135551000Y-93379000D01*
X135511000Y-84628000D02*
X135511000Y-93452000D01*
X135471000Y-84558000D02*
X135471000Y-93522000D01*
X135431000Y-84488000D02*
X135431000Y-93592000D01*
X135391000Y-84420000D02*
X135391000Y-93660000D01*
X135351000Y-84354000D02*
X135351000Y-93726000D01*
X135311000Y-84288000D02*
X135311000Y-93792000D01*
X135271000Y-84224000D02*
X135271000Y-93856000D01*
X135231000Y-84161000D02*
X135231000Y-93919000D01*
X135191000Y-84099000D02*
X135191000Y-93981000D01*
X135151000Y-84038000D02*
X135151000Y-94042000D01*
X135111000Y-83978000D02*
X135111000Y-94102000D01*
X135071000Y-83920000D02*
X135071000Y-94160000D01*
X135031000Y-83862000D02*
X135031000Y-94218000D01*
X134991000Y-83805000D02*
X134991000Y-94275000D01*
X134951000Y-83749000D02*
X134951000Y-94331000D01*
X134911000Y-83694000D02*
X134911000Y-94386000D01*
X134871000Y-83640000D02*
X134871000Y-94440000D01*
X134831000Y-83586000D02*
X134831000Y-94494000D01*
X134791000Y-83534000D02*
X134791000Y-94546000D01*
X134751000Y-83482000D02*
X134751000Y-94598000D01*
X134711000Y-83431000D02*
X134711000Y-94649000D01*
X134671000Y-83380000D02*
X134671000Y-94700000D01*
X134631000Y-83331000D02*
X134631000Y-94749000D01*
X134591000Y-83282000D02*
X134591000Y-94798000D01*
X134551000Y-83234000D02*
X134551000Y-94846000D01*
X134511000Y-83186000D02*
X134511000Y-94894000D01*
X134471000Y-83139000D02*
X134471000Y-94941000D01*
X134431000Y-83093000D02*
X134431000Y-94987000D01*
X134391000Y-83047000D02*
X134391000Y-95033000D01*
X134351000Y-83002000D02*
X134351000Y-95078000D01*
X134311000Y-82958000D02*
X134311000Y-95122000D01*
X134271000Y-82914000D02*
X134271000Y-95166000D01*
X134231000Y-82870000D02*
X134231000Y-95210000D01*
X134191000Y-82828000D02*
X134191000Y-95252000D01*
X134151000Y-82786000D02*
X134151000Y-95294000D01*
X134111000Y-82744000D02*
X134111000Y-95336000D01*
X134071000Y-82703000D02*
X134071000Y-95377000D01*
X134031000Y-82662000D02*
X134031000Y-95418000D01*
X133991000Y-82622000D02*
X133991000Y-95458000D01*
X133951000Y-82582000D02*
X133951000Y-95498000D01*
X133911000Y-82543000D02*
X133911000Y-95537000D01*
X133871000Y-82504000D02*
X133871000Y-95576000D01*
X133831000Y-82466000D02*
X133831000Y-95614000D01*
X133791000Y-82428000D02*
X133791000Y-95652000D01*
X133751000Y-82391000D02*
X133751000Y-95689000D01*
X133711000Y-82354000D02*
X133711000Y-95726000D01*
X133671000Y-82318000D02*
X133671000Y-95762000D01*
X133631000Y-82282000D02*
X133631000Y-95798000D01*
X133591000Y-82246000D02*
X133591000Y-95834000D01*
X133551000Y-82211000D02*
X133551000Y-95869000D01*
X133511000Y-82176000D02*
X133511000Y-95904000D01*
X133471000Y-82142000D02*
X133471000Y-95938000D01*
X133431000Y-82108000D02*
X133431000Y-95972000D01*
X133391000Y-82075000D02*
X133391000Y-96005000D01*
X133351000Y-82041000D02*
X133351000Y-96039000D01*
X133311000Y-82009000D02*
X133311000Y-96071000D01*
X133271000Y-81976000D02*
X133271000Y-96104000D01*
X133231000Y-81944000D02*
X133231000Y-96136000D01*
X133191000Y-81913000D02*
X133191000Y-96167000D01*
X133151000Y-81881000D02*
X133151000Y-96199000D01*
X133111000Y-81850000D02*
X133111000Y-96230000D01*
X133071000Y-81820000D02*
X133071000Y-96260000D01*
X133031000Y-81790000D02*
X133031000Y-96290000D01*
X132991000Y-81760000D02*
X132991000Y-96320000D01*
X132951000Y-81730000D02*
X132951000Y-96350000D01*
X132911000Y-81701000D02*
X132911000Y-96379000D01*
X132871000Y-81672000D02*
X132871000Y-96408000D01*
X132831000Y-81643000D02*
X132831000Y-96437000D01*
X132791000Y-81615000D02*
X132791000Y-96465000D01*
X132751000Y-81587000D02*
X132751000Y-96493000D01*
X132711000Y-90480000D02*
X132711000Y-96520000D01*
X132711000Y-81560000D02*
X132711000Y-87600000D01*
X132671000Y-90480000D02*
X132671000Y-96548000D01*
X132671000Y-81532000D02*
X132671000Y-87600000D01*
X132631000Y-90480000D02*
X132631000Y-96575000D01*
X132631000Y-81505000D02*
X132631000Y-87600000D01*
X132591000Y-90480000D02*
X132591000Y-96601000D01*
X132591000Y-81479000D02*
X132591000Y-87600000D01*
X132551000Y-90480000D02*
X132551000Y-96628000D01*
X132551000Y-81452000D02*
X132551000Y-87600000D01*
X132511000Y-90480000D02*
X132511000Y-96654000D01*
X132511000Y-81426000D02*
X132511000Y-87600000D01*
X132471000Y-90480000D02*
X132471000Y-96680000D01*
X132471000Y-81400000D02*
X132471000Y-87600000D01*
X132431000Y-90480000D02*
X132431000Y-96705000D01*
X132431000Y-81375000D02*
X132431000Y-87600000D01*
X132391000Y-90480000D02*
X132391000Y-96730000D01*
X132391000Y-81350000D02*
X132391000Y-87600000D01*
X132351000Y-90480000D02*
X132351000Y-96755000D01*
X132351000Y-81325000D02*
X132351000Y-87600000D01*
X132311000Y-90480000D02*
X132311000Y-96780000D01*
X132311000Y-81300000D02*
X132311000Y-87600000D01*
X132271000Y-90480000D02*
X132271000Y-96804000D01*
X132271000Y-81276000D02*
X132271000Y-87600000D01*
X132231000Y-90480000D02*
X132231000Y-96828000D01*
X132231000Y-81252000D02*
X132231000Y-87600000D01*
X132191000Y-90480000D02*
X132191000Y-96852000D01*
X132191000Y-81228000D02*
X132191000Y-87600000D01*
X132151000Y-90480000D02*
X132151000Y-96875000D01*
X132151000Y-81205000D02*
X132151000Y-87600000D01*
X132111000Y-90480000D02*
X132111000Y-96899000D01*
X132111000Y-81181000D02*
X132111000Y-87600000D01*
X132071000Y-90480000D02*
X132071000Y-96922000D01*
X132071000Y-81158000D02*
X132071000Y-87600000D01*
X132031000Y-90480000D02*
X132031000Y-96944000D01*
X132031000Y-81136000D02*
X132031000Y-87600000D01*
X131991000Y-90480000D02*
X131991000Y-96967000D01*
X131991000Y-81113000D02*
X131991000Y-87600000D01*
X131951000Y-90480000D02*
X131951000Y-96989000D01*
X131951000Y-81091000D02*
X131951000Y-87600000D01*
X131911000Y-90480000D02*
X131911000Y-97011000D01*
X131911000Y-81069000D02*
X131911000Y-87600000D01*
X131871000Y-90480000D02*
X131871000Y-97032000D01*
X131871000Y-81048000D02*
X131871000Y-87600000D01*
X131831000Y-90480000D02*
X131831000Y-97054000D01*
X131831000Y-81026000D02*
X131831000Y-87600000D01*
X131791000Y-90480000D02*
X131791000Y-97075000D01*
X131791000Y-81005000D02*
X131791000Y-87600000D01*
X131751000Y-90480000D02*
X131751000Y-97096000D01*
X131751000Y-80984000D02*
X131751000Y-87600000D01*
X131711000Y-90480000D02*
X131711000Y-97116000D01*
X131711000Y-80964000D02*
X131711000Y-87600000D01*
X131671000Y-90480000D02*
X131671000Y-97137000D01*
X131671000Y-80943000D02*
X131671000Y-87600000D01*
X131631000Y-90480000D02*
X131631000Y-97157000D01*
X131631000Y-80923000D02*
X131631000Y-87600000D01*
X131591000Y-90480000D02*
X131591000Y-97177000D01*
X131591000Y-80903000D02*
X131591000Y-87600000D01*
X131551000Y-90480000D02*
X131551000Y-97196000D01*
X131551000Y-80884000D02*
X131551000Y-87600000D01*
X131511000Y-90480000D02*
X131511000Y-97216000D01*
X131511000Y-80864000D02*
X131511000Y-87600000D01*
X131471000Y-90480000D02*
X131471000Y-97235000D01*
X131471000Y-80845000D02*
X131471000Y-87600000D01*
X131431000Y-90480000D02*
X131431000Y-97254000D01*
X131431000Y-80826000D02*
X131431000Y-87600000D01*
X131391000Y-90480000D02*
X131391000Y-97273000D01*
X131391000Y-80807000D02*
X131391000Y-87600000D01*
X131351000Y-90480000D02*
X131351000Y-97291000D01*
X131351000Y-80789000D02*
X131351000Y-87600000D01*
X131311000Y-90480000D02*
X131311000Y-97309000D01*
X131311000Y-80771000D02*
X131311000Y-87600000D01*
X131271000Y-90480000D02*
X131271000Y-97327000D01*
X131271000Y-80753000D02*
X131271000Y-87600000D01*
X131231000Y-90480000D02*
X131231000Y-97345000D01*
X131231000Y-80735000D02*
X131231000Y-87600000D01*
X131191000Y-90480000D02*
X131191000Y-97363000D01*
X131191000Y-80717000D02*
X131191000Y-87600000D01*
X131151000Y-90480000D02*
X131151000Y-97380000D01*
X131151000Y-80700000D02*
X131151000Y-87600000D01*
X131111000Y-90480000D02*
X131111000Y-97397000D01*
X131111000Y-80683000D02*
X131111000Y-87600000D01*
X131071000Y-90480000D02*
X131071000Y-97414000D01*
X131071000Y-80666000D02*
X131071000Y-87600000D01*
X131031000Y-90480000D02*
X131031000Y-97430000D01*
X131031000Y-80650000D02*
X131031000Y-87600000D01*
X130991000Y-90480000D02*
X130991000Y-97447000D01*
X130991000Y-80633000D02*
X130991000Y-87600000D01*
X130951000Y-90480000D02*
X130951000Y-97463000D01*
X130951000Y-80617000D02*
X130951000Y-87600000D01*
X130911000Y-90480000D02*
X130911000Y-97479000D01*
X130911000Y-80601000D02*
X130911000Y-87600000D01*
X130871000Y-90480000D02*
X130871000Y-97495000D01*
X130871000Y-80585000D02*
X130871000Y-87600000D01*
X130831000Y-90480000D02*
X130831000Y-97510000D01*
X130831000Y-80570000D02*
X130831000Y-87600000D01*
X130791000Y-90480000D02*
X130791000Y-97526000D01*
X130791000Y-80554000D02*
X130791000Y-87600000D01*
X130751000Y-90480000D02*
X130751000Y-97541000D01*
X130751000Y-80539000D02*
X130751000Y-87600000D01*
X130711000Y-90480000D02*
X130711000Y-97556000D01*
X130711000Y-80524000D02*
X130711000Y-87600000D01*
X130671000Y-90480000D02*
X130671000Y-97570000D01*
X130671000Y-80510000D02*
X130671000Y-87600000D01*
X130631000Y-90480000D02*
X130631000Y-97585000D01*
X130631000Y-80495000D02*
X130631000Y-87600000D01*
X130591000Y-90480000D02*
X130591000Y-97599000D01*
X130591000Y-80481000D02*
X130591000Y-87600000D01*
X130551000Y-90480000D02*
X130551000Y-97613000D01*
X130551000Y-80467000D02*
X130551000Y-87600000D01*
X130511000Y-90480000D02*
X130511000Y-97627000D01*
X130511000Y-80453000D02*
X130511000Y-87600000D01*
X130471000Y-90480000D02*
X130471000Y-97640000D01*
X130471000Y-80440000D02*
X130471000Y-87600000D01*
X130431000Y-90480000D02*
X130431000Y-97654000D01*
X130431000Y-80426000D02*
X130431000Y-87600000D01*
X130391000Y-90480000D02*
X130391000Y-97667000D01*
X130391000Y-80413000D02*
X130391000Y-87600000D01*
X130351000Y-90480000D02*
X130351000Y-97680000D01*
X130351000Y-80400000D02*
X130351000Y-87600000D01*
X130311000Y-90480000D02*
X130311000Y-97693000D01*
X130311000Y-80387000D02*
X130311000Y-87600000D01*
X130271000Y-90480000D02*
X130271000Y-97705000D01*
X130271000Y-80375000D02*
X130271000Y-87600000D01*
X130231000Y-90480000D02*
X130231000Y-97718000D01*
X130231000Y-80362000D02*
X130231000Y-87600000D01*
X130191000Y-90480000D02*
X130191000Y-97730000D01*
X130191000Y-80350000D02*
X130191000Y-87600000D01*
X130151000Y-90480000D02*
X130151000Y-97742000D01*
X130151000Y-80338000D02*
X130151000Y-87600000D01*
X130111000Y-90480000D02*
X130111000Y-97754000D01*
X130111000Y-80326000D02*
X130111000Y-87600000D01*
X130071000Y-90480000D02*
X130071000Y-97765000D01*
X130071000Y-80315000D02*
X130071000Y-87600000D01*
X130031000Y-90480000D02*
X130031000Y-97777000D01*
X130031000Y-80303000D02*
X130031000Y-87600000D01*
X129991000Y-90480000D02*
X129991000Y-97788000D01*
X129991000Y-80292000D02*
X129991000Y-87600000D01*
X129951000Y-90480000D02*
X129951000Y-97799000D01*
X129951000Y-80281000D02*
X129951000Y-87600000D01*
X129911000Y-90480000D02*
X129911000Y-97810000D01*
X129911000Y-80270000D02*
X129911000Y-87600000D01*
X129871000Y-90480000D02*
X129871000Y-97820000D01*
X129871000Y-80260000D02*
X129871000Y-87600000D01*
X129831000Y-80249000D02*
X129831000Y-97831000D01*
X129791000Y-80239000D02*
X129791000Y-97841000D01*
X129751000Y-80229000D02*
X129751000Y-97851000D01*
X129711000Y-80219000D02*
X129711000Y-97861000D01*
X129671000Y-80209000D02*
X129671000Y-97871000D01*
X129631000Y-80200000D02*
X129631000Y-97880000D01*
X129591000Y-80191000D02*
X129591000Y-97889000D01*
X129551000Y-80182000D02*
X129551000Y-97898000D01*
X129511000Y-80173000D02*
X129511000Y-97907000D01*
X129471000Y-80164000D02*
X129471000Y-97916000D01*
X129431000Y-80155000D02*
X129431000Y-97925000D01*
X129391000Y-80147000D02*
X129391000Y-97933000D01*
X129351000Y-80139000D02*
X129351000Y-97941000D01*
X129311000Y-80131000D02*
X129311000Y-97949000D01*
X129271000Y-80123000D02*
X129271000Y-97957000D01*
X129231000Y-80116000D02*
X129231000Y-97964000D01*
X129191000Y-80108000D02*
X129191000Y-97972000D01*
X129151000Y-80101000D02*
X129151000Y-97979000D01*
X129111000Y-80094000D02*
X129111000Y-97986000D01*
X129071000Y-80087000D02*
X129071000Y-97993000D01*
X129031000Y-80080000D02*
X129031000Y-98000000D01*
X128991000Y-80074000D02*
X128991000Y-98006000D01*
X128951000Y-80068000D02*
X128951000Y-98012000D01*
X128911000Y-80061000D02*
X128911000Y-98019000D01*
X128871000Y-80056000D02*
X128871000Y-98024000D01*
X128831000Y-80050000D02*
X128831000Y-98030000D01*
X128791000Y-80044000D02*
X128791000Y-98036000D01*
X128751000Y-80039000D02*
X128751000Y-98041000D01*
X128711000Y-80034000D02*
X128711000Y-98046000D01*
X128671000Y-80029000D02*
X128671000Y-98051000D01*
X128631000Y-80024000D02*
X128631000Y-98056000D01*
X128591000Y-80019000D02*
X128591000Y-98061000D01*
X128551000Y-80014000D02*
X128551000Y-98066000D01*
X128511000Y-80010000D02*
X128511000Y-98070000D01*
X128471000Y-80006000D02*
X128471000Y-98074000D01*
X128431000Y-80002000D02*
X128431000Y-98078000D01*
X128391000Y-79998000D02*
X128391000Y-98082000D01*
X128351000Y-79995000D02*
X128351000Y-98085000D01*
X128311000Y-79991000D02*
X128311000Y-98089000D01*
X128271000Y-79988000D02*
X128271000Y-98092000D01*
X128230000Y-79985000D02*
X128230000Y-98095000D01*
X128190000Y-79982000D02*
X128190000Y-98098000D01*
X128150000Y-79979000D02*
X128150000Y-98101000D01*
X128110000Y-79977000D02*
X128110000Y-98103000D01*
X128070000Y-79974000D02*
X128070000Y-98106000D01*
X128030000Y-79972000D02*
X128030000Y-98108000D01*
X127990000Y-79970000D02*
X127990000Y-98110000D01*
X127950000Y-79968000D02*
X127950000Y-98112000D01*
X127910000Y-79967000D02*
X127910000Y-98113000D01*
X127870000Y-79965000D02*
X127870000Y-98115000D01*
X127830000Y-79964000D02*
X127830000Y-98116000D01*
X127790000Y-79963000D02*
X127790000Y-98117000D01*
X127750000Y-79962000D02*
X127750000Y-98118000D01*
X127710000Y-79961000D02*
X127710000Y-98119000D01*
X127670000Y-79960000D02*
X127670000Y-98120000D01*
X127630000Y-79960000D02*
X127630000Y-98120000D01*
X127590000Y-79960000D02*
X127590000Y-98120000D01*
X127550000Y-79959000D02*
X127550000Y-98121000D01*
X136670000Y-89040000D02*
G75*
G03X136670000Y-89040000I-9120000J0D01*
G01*
X74836000Y-88531538D02*
G75*
G03X80386000Y-90076830I2990000J-462D01*
G01*
X74836000Y-88532462D02*
G75*
G02X80386000Y-86987170I2990000J462D01*
G01*
X80326000Y-88532000D02*
G75*
G03X80326000Y-88532000I-2500000J0D01*
G01*
X80386000Y-90077000D02*
X80386000Y-86987000D01*
X82744214Y-60810000D02*
G75*
G03X82744214Y-60810000I-1414214J0D01*
G01*
X78360000Y-63930000D02*
X84300000Y-63930000D01*
X78360000Y-57690000D02*
X84300000Y-57690000D01*
X78210000Y-62150000D02*
X78210000Y-59470000D01*
X84450000Y-59470000D02*
X84450000Y-62150000D01*
X84370000Y-72530000D02*
X87030000Y-72530000D01*
X84370000Y-72530000D02*
X84370000Y-80210000D01*
X84370000Y-80210000D02*
X87030000Y-80210000D01*
X87030000Y-72530000D02*
X87030000Y-80210000D01*
X87030000Y-69930000D02*
X87030000Y-71260000D01*
X85700000Y-69930000D02*
X87030000Y-69930000D01*
X91990000Y-97930000D02*
X91990000Y-96600000D01*
X91990000Y-96600000D02*
X93320000Y-96600000D01*
X94590000Y-96600000D02*
X102270000Y-96600000D01*
X102270000Y-99260000D02*
X102270000Y-96600000D01*
X94590000Y-99260000D02*
X102270000Y-99260000D01*
X94590000Y-99260000D02*
X94590000Y-96600000D01*
X111354000Y-67390000D02*
X111354000Y-70050000D01*
X111354000Y-67390000D02*
X103674000Y-67390000D01*
X103674000Y-67390000D02*
X103674000Y-70050000D01*
X111354000Y-70050000D02*
X103674000Y-70050000D01*
X113954000Y-70050000D02*
X112624000Y-70050000D01*
X113954000Y-68720000D02*
X113954000Y-70050000D01*
X108500000Y-94180000D02*
X111160000Y-94180000D01*
X108500000Y-91580000D02*
X108500000Y-94180000D01*
X111160000Y-91580000D02*
X111160000Y-94180000D01*
X108500000Y-91580000D02*
X111160000Y-91580000D01*
X108500000Y-90310000D02*
X108500000Y-88980000D01*
X108500000Y-88980000D02*
X109830000Y-88980000D01*
X96590000Y-76440000D02*
X96590000Y-76110000D01*
X90050000Y-76440000D02*
X96590000Y-76440000D01*
X90050000Y-76110000D02*
X90050000Y-76440000D01*
X96590000Y-73700000D02*
X96590000Y-74030000D01*
X90050000Y-73700000D02*
X96590000Y-73700000D01*
X90050000Y-74030000D02*
X90050000Y-73700000D01*
X96590000Y-79920000D02*
X96590000Y-80250000D01*
X96590000Y-80250000D02*
X90050000Y-80250000D01*
X90050000Y-80250000D02*
X90050000Y-79920000D01*
X96590000Y-77840000D02*
X96590000Y-77510000D01*
X96590000Y-77510000D02*
X90050000Y-77510000D01*
X90050000Y-77510000D02*
X90050000Y-77840000D01*
X105480000Y-95490000D02*
X105480000Y-95160000D01*
X98940000Y-95490000D02*
X105480000Y-95490000D01*
X98940000Y-95160000D02*
X98940000Y-95490000D01*
X105480000Y-92750000D02*
X105480000Y-93080000D01*
X98940000Y-92750000D02*
X105480000Y-92750000D01*
X98940000Y-93080000D02*
X98940000Y-92750000D01*
X105480000Y-90080000D02*
X105480000Y-90410000D01*
X105480000Y-90410000D02*
X98940000Y-90410000D01*
X98940000Y-90410000D02*
X98940000Y-90080000D01*
X105480000Y-88000000D02*
X105480000Y-87670000D01*
X105480000Y-87670000D02*
X98940000Y-87670000D01*
X98940000Y-87670000D02*
X98940000Y-88000000D01*
X111830000Y-65010000D02*
X111830000Y-64680000D01*
X105290000Y-65010000D02*
X111830000Y-65010000D01*
X105290000Y-64680000D02*
X105290000Y-65010000D01*
X111830000Y-62270000D02*
X111830000Y-62600000D01*
X105290000Y-62270000D02*
X111830000Y-62270000D01*
X105290000Y-62600000D02*
X105290000Y-62270000D01*
X111830000Y-60870000D02*
X111830000Y-61200000D01*
X111830000Y-61200000D02*
X105290000Y-61200000D01*
X105290000Y-61200000D02*
X105290000Y-60870000D01*
X111830000Y-58790000D02*
X111830000Y-58460000D01*
X111830000Y-58460000D02*
X105290000Y-58460000D01*
X105290000Y-58460000D02*
X105290000Y-58790000D01*
X88970000Y-89140000D02*
X88970000Y-88810000D01*
X82430000Y-89140000D02*
X88970000Y-89140000D01*
X82430000Y-88810000D02*
X82430000Y-89140000D01*
X88970000Y-86400000D02*
X88970000Y-86730000D01*
X82430000Y-86400000D02*
X88970000Y-86400000D01*
X82430000Y-86730000D02*
X82430000Y-86400000D01*
X88780000Y-57520000D02*
X88780000Y-57190000D01*
X88780000Y-57190000D02*
X95320000Y-57190000D01*
X95320000Y-57190000D02*
X95320000Y-57520000D01*
X88780000Y-59600000D02*
X88780000Y-59930000D01*
X88780000Y-59930000D02*
X95320000Y-59930000D01*
X95320000Y-59930000D02*
X95320000Y-59600000D01*
D12*
X73920476Y-54662380D02*
X73920476Y-53662380D01*
X74253809Y-54376666D01*
X74587142Y-53662380D01*
X74587142Y-54662380D01*
X75063333Y-54662380D02*
X75063333Y-53662380D01*
X75634761Y-54662380D02*
X75206190Y-54090952D01*
X75634761Y-53662380D02*
X75063333Y-54233809D01*
X76587142Y-54662380D02*
X76015714Y-54662380D01*
X76301428Y-54662380D02*
X76301428Y-53662380D01*
X76206190Y-53805238D01*
X76110952Y-53900476D01*
X76015714Y-53948095D01*
X106194666Y-75792380D02*
X106194666Y-76506666D01*
X106147047Y-76649523D01*
X106051809Y-76744761D01*
X105908952Y-76792380D01*
X105813714Y-76792380D01*
X106575619Y-75792380D02*
X107194666Y-75792380D01*
X106861333Y-76173333D01*
X107004190Y-76173333D01*
X107099428Y-76220952D01*
X107147047Y-76268571D01*
X107194666Y-76363809D01*
X107194666Y-76601904D01*
X107147047Y-76697142D01*
X107099428Y-76744761D01*
X107004190Y-76792380D01*
X106718476Y-76792380D01*
X106623238Y-76744761D01*
X106575619Y-76697142D01*
X77746666Y-49122380D02*
X77746666Y-49836666D01*
X77699047Y-49979523D01*
X77603809Y-50074761D01*
X77460952Y-50122380D01*
X77365714Y-50122380D01*
X78746666Y-50122380D02*
X78175238Y-50122380D01*
X78460952Y-50122380D02*
X78460952Y-49122380D01*
X78365714Y-49265238D01*
X78270476Y-49360476D01*
X78175238Y-49408095D01*
X131928095Y-77062380D02*
X131928095Y-77871904D01*
X131975714Y-77967142D01*
X132023333Y-78014761D01*
X132118571Y-78062380D01*
X132309047Y-78062380D01*
X132404285Y-78014761D01*
X132451904Y-77967142D01*
X132499523Y-77871904D01*
X132499523Y-77062380D01*
X133404285Y-77395714D02*
X133404285Y-78062380D01*
X133166190Y-77014761D02*
X132928095Y-77729047D01*
X133547142Y-77729047D01*
X-1333333Y-952380D02*
X-1666666Y-476190D01*
X-1904761Y-952380D02*
X-1904761Y47619D01*
X-1523809Y47619D01*
X-1428571Y0D01*
X-1380952Y-47619D01*
X-1333333Y-142857D01*
X-1333333Y-285714D01*
X-1380952Y-380952D01*
X-1428571Y-428571D01*
X-1523809Y-476190D01*
X-1904761Y-476190D01*
X-904761Y-428571D02*
X-571428Y-428571D01*
X-428571Y-952380D02*
X-904761Y-952380D01*
X-904761Y47619D01*
X-428571Y47619D01*
X333333Y-428571D02*
X0Y-428571D01*
X0Y-952380D02*
X0Y47619D01*
X476190Y47619D01*
X999999Y47619D02*
X999999Y-190476D01*
X761904Y-95238D02*
X999999Y-190476D01*
X1238095Y-95238D01*
X857142Y-380952D02*
X999999Y-190476D01*
X1142857Y-380952D01*
X1761904Y47619D02*
X1761904Y-190476D01*
X1523809Y-95238D02*
X1761904Y-190476D01*
X1999999Y-95238D01*
X1619047Y-380952D02*
X1761904Y-190476D01*
X1904761Y-380952D01*
X127383333Y-79147142D02*
X127335714Y-79194761D01*
X127192857Y-79242380D01*
X127097619Y-79242380D01*
X126954761Y-79194761D01*
X126859523Y-79099523D01*
X126811904Y-79004285D01*
X126764285Y-78813809D01*
X126764285Y-78670952D01*
X126811904Y-78480476D01*
X126859523Y-78385238D01*
X126954761Y-78290000D01*
X127097619Y-78242380D01*
X127192857Y-78242380D01*
X127335714Y-78290000D01*
X127383333Y-78337619D01*
X128335714Y-79242380D02*
X127764285Y-79242380D01*
X128050000Y-79242380D02*
X128050000Y-78242380D01*
X127954761Y-78385238D01*
X127859523Y-78480476D01*
X127764285Y-78528095D01*
X131920476Y-54662380D02*
X131920476Y-53662380D01*
X132253809Y-54376666D01*
X132587142Y-53662380D01*
X132587142Y-54662380D01*
X133063333Y-54662380D02*
X133063333Y-53662380D01*
X133634761Y-54662380D02*
X133206190Y-54090952D01*
X133634761Y-53662380D02*
X133063333Y-54233809D01*
X134015714Y-53757619D02*
X134063333Y-53710000D01*
X134158571Y-53662380D01*
X134396666Y-53662380D01*
X134491904Y-53710000D01*
X134539523Y-53757619D01*
X134587142Y-53852857D01*
X134587142Y-53948095D01*
X134539523Y-54090952D01*
X133968095Y-54662380D01*
X134587142Y-54662380D01*
X73920476Y-96262380D02*
X73920476Y-95262380D01*
X74253809Y-95976666D01*
X74587142Y-95262380D01*
X74587142Y-96262380D01*
X75063333Y-96262380D02*
X75063333Y-95262380D01*
X75634761Y-96262380D02*
X75206190Y-95690952D01*
X75634761Y-95262380D02*
X75063333Y-95833809D01*
X75968095Y-95262380D02*
X76587142Y-95262380D01*
X76253809Y-95643333D01*
X76396666Y-95643333D01*
X76491904Y-95690952D01*
X76539523Y-95738571D01*
X76587142Y-95833809D01*
X76587142Y-96071904D01*
X76539523Y-96167142D01*
X76491904Y-96214761D01*
X76396666Y-96262380D01*
X76110952Y-96262380D01*
X76015714Y-96214761D01*
X75968095Y-96167142D01*
X127570476Y-102192380D02*
X127570476Y-101192380D01*
X127903809Y-101906666D01*
X128237142Y-101192380D01*
X128237142Y-102192380D01*
X128713333Y-102192380D02*
X128713333Y-101192380D01*
X129284761Y-102192380D02*
X128856190Y-101620952D01*
X129284761Y-101192380D02*
X128713333Y-101763809D01*
X130141904Y-101525714D02*
X130141904Y-102192380D01*
X129903809Y-101144761D02*
X129665714Y-101859047D01*
X130284761Y-101859047D01*
X79627904Y-85174380D02*
X79627904Y-84174380D01*
X79866000Y-84174380D01*
X80008857Y-84222000D01*
X80104095Y-84317238D01*
X80151714Y-84412476D01*
X80199333Y-84602952D01*
X80199333Y-84745809D01*
X80151714Y-84936285D01*
X80104095Y-85031523D01*
X80008857Y-85126761D01*
X79866000Y-85174380D01*
X79627904Y-85174380D01*
X81151714Y-85174380D02*
X80580285Y-85174380D01*
X80866000Y-85174380D02*
X80866000Y-84174380D01*
X80770761Y-84317238D01*
X80675523Y-84412476D01*
X80580285Y-84460095D01*
X76746666Y-65314761D02*
X76889523Y-65362380D01*
X77127619Y-65362380D01*
X77222857Y-65314761D01*
X77270476Y-65267142D01*
X77318095Y-65171904D01*
X77318095Y-65076666D01*
X77270476Y-64981428D01*
X77222857Y-64933809D01*
X77127619Y-64886190D01*
X76937142Y-64838571D01*
X76841904Y-64790952D01*
X76794285Y-64743333D01*
X76746666Y-64648095D01*
X76746666Y-64552857D01*
X76794285Y-64457619D01*
X76841904Y-64410000D01*
X76937142Y-64362380D01*
X77175238Y-64362380D01*
X77318095Y-64410000D01*
X77651428Y-64362380D02*
X77889523Y-65362380D01*
X78080000Y-64648095D01*
X78270476Y-65362380D01*
X78508571Y-64362380D01*
X79413333Y-65362380D02*
X78841904Y-65362380D01*
X79127619Y-65362380D02*
X79127619Y-64362380D01*
X79032380Y-64505238D01*
X78937142Y-64600476D01*
X78841904Y-64648095D01*
X84938095Y-67942380D02*
X84938095Y-68751904D01*
X84985714Y-68847142D01*
X85033333Y-68894761D01*
X85128571Y-68942380D01*
X85319047Y-68942380D01*
X85414285Y-68894761D01*
X85461904Y-68847142D01*
X85509523Y-68751904D01*
X85509523Y-67942380D01*
X86509523Y-68942380D02*
X85938095Y-68942380D01*
X86223809Y-68942380D02*
X86223809Y-67942380D01*
X86128571Y-68085238D01*
X86033333Y-68180476D01*
X85938095Y-68228095D01*
X96368095Y-99922380D02*
X96368095Y-100731904D01*
X96415714Y-100827142D01*
X96463333Y-100874761D01*
X96558571Y-100922380D01*
X96749047Y-100922380D01*
X96844285Y-100874761D01*
X96891904Y-100827142D01*
X96939523Y-100731904D01*
X96939523Y-99922380D01*
X97368095Y-100017619D02*
X97415714Y-99970000D01*
X97510952Y-99922380D01*
X97749047Y-99922380D01*
X97844285Y-99970000D01*
X97891904Y-100017619D01*
X97939523Y-100112857D01*
X97939523Y-100208095D01*
X97891904Y-100350952D01*
X97320476Y-100922380D01*
X97939523Y-100922380D01*
X104242095Y-70712380D02*
X104242095Y-71521904D01*
X104289714Y-71617142D01*
X104337333Y-71664761D01*
X104432571Y-71712380D01*
X104623047Y-71712380D01*
X104718285Y-71664761D01*
X104765904Y-71617142D01*
X104813523Y-71521904D01*
X104813523Y-70712380D01*
X105194476Y-70712380D02*
X105813523Y-70712380D01*
X105480190Y-71093333D01*
X105623047Y-71093333D01*
X105718285Y-71140952D01*
X105765904Y-71188571D01*
X105813523Y-71283809D01*
X105813523Y-71521904D01*
X105765904Y-71617142D01*
X105718285Y-71664761D01*
X105623047Y-71712380D01*
X105337333Y-71712380D01*
X105242095Y-71664761D01*
X105194476Y-71617142D01*
X109496666Y-94842380D02*
X109496666Y-95556666D01*
X109449047Y-95699523D01*
X109353809Y-95794761D01*
X109210952Y-95842380D01*
X109115714Y-95842380D01*
X109925238Y-94937619D02*
X109972857Y-94890000D01*
X110068095Y-94842380D01*
X110306190Y-94842380D01*
X110401428Y-94890000D01*
X110449047Y-94937619D01*
X110496666Y-95032857D01*
X110496666Y-95128095D01*
X110449047Y-95270952D01*
X109877619Y-95842380D01*
X110496666Y-95842380D01*
X93153333Y-73152380D02*
X92820000Y-72676190D01*
X92581904Y-73152380D02*
X92581904Y-72152380D01*
X92962857Y-72152380D01*
X93058095Y-72200000D01*
X93105714Y-72247619D01*
X93153333Y-72342857D01*
X93153333Y-72485714D01*
X93105714Y-72580952D01*
X93058095Y-72628571D01*
X92962857Y-72676190D01*
X92581904Y-72676190D01*
X94105714Y-73152380D02*
X93534285Y-73152380D01*
X93820000Y-73152380D02*
X93820000Y-72152380D01*
X93724761Y-72295238D01*
X93629523Y-72390476D01*
X93534285Y-72438095D01*
X93153333Y-81702380D02*
X92820000Y-81226190D01*
X92581904Y-81702380D02*
X92581904Y-80702380D01*
X92962857Y-80702380D01*
X93058095Y-80750000D01*
X93105714Y-80797619D01*
X93153333Y-80892857D01*
X93153333Y-81035714D01*
X93105714Y-81130952D01*
X93058095Y-81178571D01*
X92962857Y-81226190D01*
X92581904Y-81226190D01*
X93534285Y-80797619D02*
X93581904Y-80750000D01*
X93677142Y-80702380D01*
X93915238Y-80702380D01*
X94010476Y-80750000D01*
X94058095Y-80797619D01*
X94105714Y-80892857D01*
X94105714Y-80988095D01*
X94058095Y-81130952D01*
X93486666Y-81702380D01*
X94105714Y-81702380D01*
X104583333Y-97112380D02*
X104250000Y-96636190D01*
X104011904Y-97112380D02*
X104011904Y-96112380D01*
X104392857Y-96112380D01*
X104488095Y-96160000D01*
X104535714Y-96207619D01*
X104583333Y-96302857D01*
X104583333Y-96445714D01*
X104535714Y-96540952D01*
X104488095Y-96588571D01*
X104392857Y-96636190D01*
X104011904Y-96636190D01*
X104916666Y-96112380D02*
X105535714Y-96112380D01*
X105202380Y-96493333D01*
X105345238Y-96493333D01*
X105440476Y-96540952D01*
X105488095Y-96588571D01*
X105535714Y-96683809D01*
X105535714Y-96921904D01*
X105488095Y-97017142D01*
X105440476Y-97064761D01*
X105345238Y-97112380D01*
X105059523Y-97112380D01*
X104964285Y-97064761D01*
X104916666Y-97017142D01*
X105853333Y-92032380D02*
X105520000Y-91556190D01*
X105281904Y-92032380D02*
X105281904Y-91032380D01*
X105662857Y-91032380D01*
X105758095Y-91080000D01*
X105805714Y-91127619D01*
X105853333Y-91222857D01*
X105853333Y-91365714D01*
X105805714Y-91460952D01*
X105758095Y-91508571D01*
X105662857Y-91556190D01*
X105281904Y-91556190D01*
X106710476Y-91365714D02*
X106710476Y-92032380D01*
X106472380Y-90984761D02*
X106234285Y-91699047D01*
X106853333Y-91699047D01*
X103313333Y-66632380D02*
X102980000Y-66156190D01*
X102741904Y-66632380D02*
X102741904Y-65632380D01*
X103122857Y-65632380D01*
X103218095Y-65680000D01*
X103265714Y-65727619D01*
X103313333Y-65822857D01*
X103313333Y-65965714D01*
X103265714Y-66060952D01*
X103218095Y-66108571D01*
X103122857Y-66156190D01*
X102741904Y-66156190D01*
X104218095Y-65632380D02*
X103741904Y-65632380D01*
X103694285Y-66108571D01*
X103741904Y-66060952D01*
X103837142Y-66013333D01*
X104075238Y-66013333D01*
X104170476Y-66060952D01*
X104218095Y-66108571D01*
X104265714Y-66203809D01*
X104265714Y-66441904D01*
X104218095Y-66537142D01*
X104170476Y-66584761D01*
X104075238Y-66632380D01*
X103837142Y-66632380D01*
X103741904Y-66584761D01*
X103694285Y-66537142D01*
X110933333Y-57742380D02*
X110600000Y-57266190D01*
X110361904Y-57742380D02*
X110361904Y-56742380D01*
X110742857Y-56742380D01*
X110838095Y-56790000D01*
X110885714Y-56837619D01*
X110933333Y-56932857D01*
X110933333Y-57075714D01*
X110885714Y-57170952D01*
X110838095Y-57218571D01*
X110742857Y-57266190D01*
X110361904Y-57266190D01*
X111790476Y-56742380D02*
X111600000Y-56742380D01*
X111504761Y-56790000D01*
X111457142Y-56837619D01*
X111361904Y-56980476D01*
X111314285Y-57170952D01*
X111314285Y-57551904D01*
X111361904Y-57647142D01*
X111409523Y-57694761D01*
X111504761Y-57742380D01*
X111695238Y-57742380D01*
X111790476Y-57694761D01*
X111838095Y-57647142D01*
X111885714Y-57551904D01*
X111885714Y-57313809D01*
X111838095Y-57218571D01*
X111790476Y-57170952D01*
X111695238Y-57123333D01*
X111504761Y-57123333D01*
X111409523Y-57170952D01*
X111361904Y-57218571D01*
X111314285Y-57313809D01*
X85533333Y-85852380D02*
X85200000Y-85376190D01*
X84961904Y-85852380D02*
X84961904Y-84852380D01*
X85342857Y-84852380D01*
X85438095Y-84900000D01*
X85485714Y-84947619D01*
X85533333Y-85042857D01*
X85533333Y-85185714D01*
X85485714Y-85280952D01*
X85438095Y-85328571D01*
X85342857Y-85376190D01*
X84961904Y-85376190D01*
X85866666Y-84852380D02*
X86533333Y-84852380D01*
X86104761Y-85852380D01*
X91883333Y-56642380D02*
X91550000Y-56166190D01*
X91311904Y-56642380D02*
X91311904Y-55642380D01*
X91692857Y-55642380D01*
X91788095Y-55690000D01*
X91835714Y-55737619D01*
X91883333Y-55832857D01*
X91883333Y-55975714D01*
X91835714Y-56070952D01*
X91788095Y-56118571D01*
X91692857Y-56166190D01*
X91311904Y-56166190D01*
X92454761Y-56070952D02*
X92359523Y-56023333D01*
X92311904Y-55975714D01*
X92264285Y-55880476D01*
X92264285Y-55832857D01*
X92311904Y-55737619D01*
X92359523Y-55690000D01*
X92454761Y-55642380D01*
X92645238Y-55642380D01*
X92740476Y-55690000D01*
X92788095Y-55737619D01*
X92835714Y-55832857D01*
X92835714Y-55880476D01*
X92788095Y-55975714D01*
X92740476Y-56023333D01*
X92645238Y-56070952D01*
X92454761Y-56070952D01*
X92359523Y-56118571D01*
X92311904Y-56166190D01*
X92264285Y-56261428D01*
X92264285Y-56451904D01*
X92311904Y-56547142D01*
X92359523Y-56594761D01*
X92454761Y-56642380D01*
X92645238Y-56642380D01*
X92740476Y-56594761D01*
X92788095Y-56547142D01*
X92835714Y-56451904D01*
X92835714Y-56261428D01*
X92788095Y-56166190D01*
X92740476Y-56118571D01*
X92645238Y-56070952D01*
M02*
