G04 #@! TF.GenerationSoftware,KiCad,Pcbnew,(5.1.0)-1*
G04 #@! TF.CreationDate,2019-05-01T11:47:09-07:00*
G04 #@! TF.ProjectId,Lec18-PCB_kicad,4c656331-382d-4504-9342-5f6b69636164,rev?*
G04 #@! TF.SameCoordinates,Original*
G04 #@! TF.FileFunction,Copper,L1,Top*
G04 #@! TF.FilePolarity,Positive*
%FSLAX46Y46*%
G04 Gerber Fmt 4.6, Leading zero omitted, Abs format (unit mm)*
G04 Created by KiCad (PCBNEW (5.1.0)-1) date 2019-05-01 11:47:09*
%MOMM*%
%LPD*%
G04 APERTURE LIST*
%ADD10O,1.700000X1.700000*%
%ADD11R,1.700000X1.700000*%
%ADD12R,1.600000X1.600000*%
%ADD13O,1.600000X1.600000*%
%ADD14C,2.400000*%
%ADD15R,2.400000X2.400000*%
%ADD16R,1.800000X1.800000*%
%ADD17C,1.800000*%
%ADD18C,1.700000*%
%ADD19C,1.600000*%
%ADD20C,0.200000*%
%ADD21C,0.254000*%
G04 APERTURE END LIST*
D10*
X107036000Y-73800000D03*
D11*
X109576000Y-73800000D03*
D10*
X128880000Y-50940000D03*
X128880000Y-53480000D03*
X126340000Y-50940000D03*
X126340000Y-53480000D03*
X123800000Y-50940000D03*
X123800000Y-53480000D03*
X121260000Y-50940000D03*
X121260000Y-53480000D03*
X118720000Y-50940000D03*
X118720000Y-53480000D03*
X116180000Y-50940000D03*
X116180000Y-53480000D03*
X113640000Y-50940000D03*
X113640000Y-53480000D03*
X111100000Y-50940000D03*
X111100000Y-53480000D03*
X108560000Y-50940000D03*
X108560000Y-53480000D03*
X106020000Y-50940000D03*
X106020000Y-53480000D03*
X103480000Y-50940000D03*
X103480000Y-53480000D03*
X100940000Y-50940000D03*
X100940000Y-53480000D03*
X98400000Y-50940000D03*
X98400000Y-53480000D03*
X95860000Y-50940000D03*
X95860000Y-53480000D03*
X93320000Y-50940000D03*
X93320000Y-53480000D03*
X90780000Y-50940000D03*
X90780000Y-53480000D03*
X88240000Y-50940000D03*
X88240000Y-53480000D03*
X85700000Y-50940000D03*
X85700000Y-53480000D03*
X83160000Y-50940000D03*
X83160000Y-53480000D03*
X80620000Y-50940000D03*
D11*
X80620000Y-53480000D03*
D12*
X115160000Y-73794000D03*
D13*
X132940000Y-58300000D03*
X117700000Y-73794000D03*
X130400000Y-58300000D03*
X115160000Y-58300000D03*
X130400000Y-73794000D03*
X120240000Y-73794000D03*
X125320000Y-73794000D03*
X127860000Y-73794000D03*
X117700000Y-58300000D03*
X120240000Y-58300000D03*
X125320000Y-58300000D03*
X127860000Y-58300000D03*
X122780000Y-73794000D03*
X122780000Y-58300000D03*
X132940000Y-73794000D03*
D14*
X131300000Y-89040000D03*
D15*
X123800000Y-89040000D03*
D16*
X79096000Y-88532000D03*
D17*
X76556000Y-88532000D03*
D18*
X84580000Y-63060000D03*
X78080000Y-63060000D03*
X84580000Y-58560000D03*
X78080000Y-58560000D03*
D11*
X85700000Y-71260000D03*
D10*
X85700000Y-73800000D03*
X85700000Y-76340000D03*
X85700000Y-78880000D03*
X100940000Y-97930000D03*
X98400000Y-97930000D03*
X95860000Y-97930000D03*
D11*
X93320000Y-97930000D03*
X112624000Y-68720000D03*
D10*
X110084000Y-68720000D03*
X107544000Y-68720000D03*
X105004000Y-68720000D03*
D11*
X109830000Y-90310000D03*
D10*
X109830000Y-92850000D03*
D13*
X97130000Y-75070000D03*
D19*
X89510000Y-75070000D03*
X97130000Y-78880000D03*
D13*
X89510000Y-78880000D03*
X106020000Y-94120000D03*
D19*
X98400000Y-94120000D03*
X106020000Y-89040000D03*
D13*
X98400000Y-89040000D03*
X112370000Y-63640000D03*
D19*
X104750000Y-63640000D03*
X112370000Y-59830000D03*
D13*
X104750000Y-59830000D03*
X89510000Y-87770000D03*
D19*
X81890000Y-87770000D03*
X88240000Y-58560000D03*
D13*
X95860000Y-58560000D03*
D20*
X80620000Y-53480000D02*
X80620000Y-54750000D01*
X80620000Y-54750000D02*
X83160000Y-57290000D01*
X83160000Y-61640000D02*
X84580000Y-63060000D01*
X83160000Y-57290000D02*
X83160000Y-61640000D01*
X102329999Y-52090001D02*
X100940000Y-53480000D01*
X117700000Y-62620000D02*
X113132000Y-58052000D01*
X111412003Y-52090001D02*
X102329999Y-52090001D01*
X117700000Y-73794000D02*
X117700000Y-62620000D01*
X113132000Y-58052000D02*
X113132000Y-57486302D01*
X113132000Y-57486302D02*
X112250001Y-56604303D01*
X112250001Y-56604303D02*
X112250001Y-52927999D01*
X112250001Y-52927999D02*
X111412003Y-52090001D01*
X112624000Y-71258000D02*
X115160000Y-73794000D01*
X112624000Y-68720000D02*
X112624000Y-71258000D01*
X115160000Y-73794000D02*
X115160000Y-74812000D01*
X115160000Y-74812000D02*
X115672000Y-75324000D01*
X117798002Y-75324000D02*
X118720000Y-74402002D01*
X115672000Y-75324000D02*
X117798002Y-75324000D01*
X118800001Y-74322001D02*
X118800001Y-72703999D01*
X118720000Y-74402002D02*
X118800001Y-74322001D01*
X118800001Y-72703999D02*
X118720000Y-72623998D01*
X81890000Y-87770000D02*
X81128000Y-88532000D01*
X81128000Y-88532000D02*
X79096000Y-88532000D01*
X81128000Y-85992000D02*
X77572000Y-85992000D01*
X83160000Y-83960000D02*
X81128000Y-85992000D01*
X86970000Y-52210000D02*
X78080000Y-52210000D01*
X83160000Y-69990000D02*
X83160000Y-83960000D01*
X78080000Y-64910000D02*
X83160000Y-69990000D01*
X88240000Y-53480000D02*
X86970000Y-52210000D01*
X76556000Y-87008000D02*
X76556000Y-88532000D01*
X78080000Y-52210000D02*
X75540000Y-54750000D01*
X75540000Y-54750000D02*
X75540000Y-62222002D01*
X77572000Y-85992000D02*
X76556000Y-87008000D01*
X75540000Y-62222002D02*
X78080000Y-64762002D01*
X78080000Y-64762002D02*
X78080000Y-64910000D01*
X121260000Y-56780000D02*
X122780000Y-58300000D01*
X121260000Y-53480000D02*
X121260000Y-56780000D01*
X85700000Y-57440000D02*
X84580000Y-58560000D01*
X85700000Y-53480000D02*
X85700000Y-57440000D01*
X84580000Y-58560000D02*
X88240000Y-58560000D01*
X110626000Y-73800000D02*
X109576000Y-73800000D01*
X112658000Y-75832000D02*
X110626000Y-73800000D01*
X120742000Y-75832000D02*
X112658000Y-75832000D01*
X122780000Y-73794000D02*
X120742000Y-75832000D01*
X125320000Y-73794000D02*
X122266000Y-76848000D01*
X110084000Y-76848000D02*
X107036000Y-73800000D01*
X122266000Y-76848000D02*
X110084000Y-76848000D01*
X127860000Y-73794000D02*
X124044000Y-77610000D01*
X124044000Y-77610000D02*
X113640000Y-77610000D01*
X113640000Y-77610000D02*
X107290000Y-83960000D01*
X107290000Y-83960000D02*
X107290000Y-91580000D01*
X107290000Y-91580000D02*
X108560000Y-92850000D01*
X108560000Y-92850000D02*
X109830000Y-92850000D01*
X116180000Y-56780000D02*
X117700000Y-58300000D01*
X116180000Y-53480000D02*
X116180000Y-56780000D01*
X112370000Y-57290000D02*
X112370000Y-59830000D01*
X108560000Y-53480000D02*
X112370000Y-57290000D01*
X112370000Y-59830000D02*
X112370000Y-63640000D01*
X85700000Y-73800000D02*
X88240000Y-73800000D01*
X88240000Y-73800000D02*
X97130000Y-64910000D01*
X97130000Y-64910000D02*
X97130000Y-58201998D01*
X92767999Y-54630001D02*
X92050000Y-53912002D01*
X97130000Y-58201998D02*
X93558003Y-54630001D01*
X93558003Y-54630001D02*
X92767999Y-54630001D01*
X92050000Y-53047998D02*
X91212002Y-52210000D01*
X92050000Y-53912002D02*
X92050000Y-53047998D01*
X89510000Y-52210000D02*
X88240000Y-50940000D01*
X91212002Y-52210000D02*
X89510000Y-52210000D01*
X98400000Y-73800000D02*
X97130000Y-75070000D01*
X98400000Y-53480000D02*
X98400000Y-73800000D01*
X97130000Y-75070000D02*
X97130000Y-78880000D01*
X95860000Y-88278000D02*
X95860000Y-97930000D01*
X100507998Y-83630002D02*
X95860000Y-88278000D01*
X97010001Y-52329999D02*
X98952001Y-52329999D01*
X95860000Y-53480000D02*
X97010001Y-52329999D01*
X98952001Y-52329999D02*
X99550001Y-52927999D01*
X99550001Y-52927999D02*
X99550001Y-53792003D01*
X99550001Y-53792003D02*
X100507998Y-54750000D01*
X100507998Y-54750000D02*
X100507998Y-83630002D01*
X102210000Y-54750000D02*
X102210000Y-82690000D01*
X103480000Y-53480000D02*
X102210000Y-54750000D01*
X106020000Y-86500000D02*
X106020000Y-89040000D01*
X102210000Y-82690000D02*
X106020000Y-86500000D01*
X106020000Y-89040000D02*
X106020000Y-94120000D01*
X113640000Y-56780000D02*
X115160000Y-58300000D01*
X113640000Y-53480000D02*
X113640000Y-56780000D01*
X130400000Y-52460000D02*
X128880000Y-50940000D01*
X130400000Y-58300000D02*
X130400000Y-52460000D01*
X118720000Y-56780000D02*
X120240000Y-58300000D01*
X118720000Y-53480000D02*
X118720000Y-56780000D01*
X109830000Y-82690000D02*
X109830000Y-90310000D01*
X113640000Y-78880000D02*
X109830000Y-82690000D01*
X130400000Y-73794000D02*
X125314000Y-78880000D01*
X125314000Y-78880000D02*
X113640000Y-78880000D01*
X108560000Y-67196000D02*
X110084000Y-68720000D01*
X108560000Y-59576000D02*
X108560000Y-67196000D01*
X106020000Y-53480000D02*
X106020000Y-57036000D01*
X106020000Y-57036000D02*
X108560000Y-59576000D01*
X123800000Y-56780000D02*
X125320000Y-58300000D01*
X123800000Y-53480000D02*
X123800000Y-56780000D01*
X126340000Y-56780000D02*
X127860000Y-58300000D01*
X126340000Y-53480000D02*
X126340000Y-56780000D01*
X86970000Y-75070000D02*
X85700000Y-76340000D01*
X89510000Y-75070000D02*
X86970000Y-75070000D01*
X98400000Y-94120000D02*
X98400000Y-97930000D01*
X104750000Y-63640000D02*
X104750000Y-65926000D01*
X104750000Y-65926000D02*
X107544000Y-68720000D01*
D21*
G36*
X134103774Y-48723380D02*
G01*
X133809003Y-48601282D01*
X133425505Y-48525000D01*
X133034495Y-48525000D01*
X132650997Y-48601282D01*
X132289750Y-48750915D01*
X131964636Y-48968149D01*
X131688149Y-49244636D01*
X131470915Y-49569750D01*
X131321282Y-49930997D01*
X131245000Y-50314495D01*
X131245000Y-50705505D01*
X131321282Y-51089003D01*
X131470915Y-51450250D01*
X131688149Y-51775364D01*
X131964636Y-52051851D01*
X132289750Y-52269085D01*
X132650997Y-52418718D01*
X133034495Y-52495000D01*
X133425505Y-52495000D01*
X133809003Y-52418718D01*
X134170250Y-52269085D01*
X134495364Y-52051851D01*
X134771851Y-51775364D01*
X134989085Y-51450250D01*
X135138718Y-51089003D01*
X135215000Y-50705505D01*
X135215000Y-50314495D01*
X135138718Y-49930997D01*
X135016620Y-49636226D01*
X135738000Y-50357606D01*
X135738000Y-99792667D01*
X134611571Y-101294572D01*
X133731240Y-102248000D01*
X119482000Y-102248000D01*
X119482000Y-99314495D01*
X131245000Y-99314495D01*
X131245000Y-99705505D01*
X131321282Y-100089003D01*
X131470915Y-100450250D01*
X131688149Y-100775364D01*
X131964636Y-101051851D01*
X132289750Y-101269085D01*
X132650997Y-101418718D01*
X133034495Y-101495000D01*
X133425505Y-101495000D01*
X133809003Y-101418718D01*
X134170250Y-101269085D01*
X134495364Y-101051851D01*
X134771851Y-100775364D01*
X134989085Y-100450250D01*
X135138718Y-100089003D01*
X135215000Y-99705505D01*
X135215000Y-99314495D01*
X135138718Y-98930997D01*
X134989085Y-98569750D01*
X134771851Y-98244636D01*
X134495364Y-97968149D01*
X134170250Y-97750915D01*
X133809003Y-97601282D01*
X133425505Y-97525000D01*
X133034495Y-97525000D01*
X132650997Y-97601282D01*
X132289750Y-97750915D01*
X131964636Y-97968149D01*
X131688149Y-98244636D01*
X131470915Y-98569750D01*
X131321282Y-98930997D01*
X131245000Y-99314495D01*
X119482000Y-99314495D01*
X119482000Y-90240000D01*
X121961928Y-90240000D01*
X121974188Y-90364482D01*
X122010498Y-90484180D01*
X122069463Y-90594494D01*
X122148815Y-90691185D01*
X122245506Y-90770537D01*
X122355820Y-90829502D01*
X122475518Y-90865812D01*
X122600000Y-90878072D01*
X123514250Y-90875000D01*
X123673000Y-90716250D01*
X123673000Y-89167000D01*
X123927000Y-89167000D01*
X123927000Y-90716250D01*
X124085750Y-90875000D01*
X125000000Y-90878072D01*
X125124482Y-90865812D01*
X125244180Y-90829502D01*
X125354494Y-90770537D01*
X125451185Y-90691185D01*
X125530537Y-90594494D01*
X125589502Y-90484180D01*
X125625812Y-90364482D01*
X125638072Y-90240000D01*
X125635000Y-89325750D01*
X125476250Y-89167000D01*
X123927000Y-89167000D01*
X123673000Y-89167000D01*
X122123750Y-89167000D01*
X121965000Y-89325750D01*
X121961928Y-90240000D01*
X119482000Y-90240000D01*
X119482000Y-87840000D01*
X121961928Y-87840000D01*
X121965000Y-88754250D01*
X122123750Y-88913000D01*
X123673000Y-88913000D01*
X123673000Y-87363750D01*
X123927000Y-87363750D01*
X123927000Y-88913000D01*
X125476250Y-88913000D01*
X125529982Y-88859268D01*
X129465000Y-88859268D01*
X129465000Y-89220732D01*
X129535518Y-89575250D01*
X129673844Y-89909199D01*
X129874662Y-90209744D01*
X130130256Y-90465338D01*
X130430801Y-90666156D01*
X130764750Y-90804482D01*
X131119268Y-90875000D01*
X131480732Y-90875000D01*
X131835250Y-90804482D01*
X132169199Y-90666156D01*
X132469744Y-90465338D01*
X132725338Y-90209744D01*
X132926156Y-89909199D01*
X133064482Y-89575250D01*
X133135000Y-89220732D01*
X133135000Y-88859268D01*
X133064482Y-88504750D01*
X132926156Y-88170801D01*
X132725338Y-87870256D01*
X132469744Y-87614662D01*
X132169199Y-87413844D01*
X131835250Y-87275518D01*
X131480732Y-87205000D01*
X131119268Y-87205000D01*
X130764750Y-87275518D01*
X130430801Y-87413844D01*
X130130256Y-87614662D01*
X129874662Y-87870256D01*
X129673844Y-88170801D01*
X129535518Y-88504750D01*
X129465000Y-88859268D01*
X125529982Y-88859268D01*
X125635000Y-88754250D01*
X125638072Y-87840000D01*
X125625812Y-87715518D01*
X125589502Y-87595820D01*
X125530537Y-87485506D01*
X125451185Y-87388815D01*
X125354494Y-87309463D01*
X125244180Y-87250498D01*
X125124482Y-87214188D01*
X125000000Y-87201928D01*
X124085750Y-87205000D01*
X123927000Y-87363750D01*
X123673000Y-87363750D01*
X123514250Y-87205000D01*
X122600000Y-87201928D01*
X122475518Y-87214188D01*
X122355820Y-87250498D01*
X122245506Y-87309463D01*
X122148815Y-87388815D01*
X122069463Y-87485506D01*
X122010498Y-87595820D01*
X121974188Y-87715518D01*
X121961928Y-87840000D01*
X119482000Y-87840000D01*
X119482000Y-83325000D01*
X119479560Y-83300224D01*
X119472333Y-83276399D01*
X119460597Y-83254443D01*
X119444803Y-83235197D01*
X119425447Y-83219330D01*
X117993304Y-82264568D01*
X117958158Y-82229422D01*
X117936711Y-82203289D01*
X117832407Y-82117688D01*
X117713406Y-82054081D01*
X117647656Y-82034136D01*
X117520447Y-81949330D01*
X117498478Y-81937617D01*
X117474646Y-81930414D01*
X117450000Y-81928000D01*
X114910000Y-81928000D01*
X114885224Y-81930440D01*
X114861399Y-81937667D01*
X114839553Y-81949330D01*
X114712344Y-82034136D01*
X114646594Y-82054081D01*
X114527593Y-82117688D01*
X114527591Y-82117689D01*
X114527592Y-82117689D01*
X114449423Y-82181840D01*
X114449417Y-82181846D01*
X114423289Y-82203289D01*
X114401846Y-82229417D01*
X114366693Y-82264570D01*
X112934553Y-83219330D01*
X112915291Y-83235104D01*
X112899477Y-83254332D01*
X112887718Y-83276276D01*
X112880466Y-83300093D01*
X112878000Y-83325000D01*
X112878000Y-102248000D01*
X75592606Y-102248000D01*
X74791215Y-101446609D01*
X75034495Y-101495000D01*
X75425505Y-101495000D01*
X75809003Y-101418718D01*
X76170250Y-101269085D01*
X76495364Y-101051851D01*
X76771851Y-100775364D01*
X76989085Y-100450250D01*
X77138718Y-100089003D01*
X77215000Y-99705505D01*
X77215000Y-99314495D01*
X77138718Y-98930997D01*
X77076174Y-98780000D01*
X91831928Y-98780000D01*
X91844188Y-98904482D01*
X91880498Y-99024180D01*
X91939463Y-99134494D01*
X92018815Y-99231185D01*
X92115506Y-99310537D01*
X92225820Y-99369502D01*
X92345518Y-99405812D01*
X92470000Y-99418072D01*
X93034250Y-99415000D01*
X93193000Y-99256250D01*
X93193000Y-98057000D01*
X91993750Y-98057000D01*
X91835000Y-98215750D01*
X91831928Y-98780000D01*
X77076174Y-98780000D01*
X76989085Y-98569750D01*
X76771851Y-98244636D01*
X76495364Y-97968149D01*
X76170250Y-97750915D01*
X75809003Y-97601282D01*
X75425505Y-97525000D01*
X75034495Y-97525000D01*
X74650997Y-97601282D01*
X74289750Y-97750915D01*
X73964636Y-97968149D01*
X73688149Y-98244636D01*
X73470915Y-98569750D01*
X73321282Y-98930997D01*
X73245000Y-99314495D01*
X73245000Y-99705505D01*
X73293391Y-99948785D01*
X72492000Y-99147394D01*
X72492000Y-97080000D01*
X91831928Y-97080000D01*
X91835000Y-97644250D01*
X91993750Y-97803000D01*
X93193000Y-97803000D01*
X93193000Y-96603750D01*
X93034250Y-96445000D01*
X92470000Y-96441928D01*
X92345518Y-96454188D01*
X92225820Y-96490498D01*
X92115506Y-96549463D01*
X92018815Y-96628815D01*
X91939463Y-96725506D01*
X91880498Y-96835820D01*
X91844188Y-96955518D01*
X91831928Y-97080000D01*
X72492000Y-97080000D01*
X72492000Y-84722000D01*
X76175000Y-84722000D01*
X76199776Y-84719560D01*
X76223601Y-84712333D01*
X76245557Y-84700597D01*
X76264803Y-84684803D01*
X78169803Y-82779803D01*
X78185597Y-82760557D01*
X78197333Y-82738601D01*
X78204560Y-82714776D01*
X78207000Y-82690000D01*
X78207000Y-66815000D01*
X78204560Y-66790224D01*
X78197333Y-66766399D01*
X78185597Y-66744443D01*
X78169803Y-66725197D01*
X76899803Y-65455197D01*
X76880557Y-65439403D01*
X76858601Y-65427667D01*
X76834776Y-65420440D01*
X76810000Y-65418000D01*
X73127000Y-65418000D01*
X73127000Y-54750000D01*
X74801444Y-54750000D01*
X74805000Y-54786105D01*
X74805001Y-62185887D01*
X74801444Y-62222002D01*
X74815635Y-62366087D01*
X74819418Y-62378556D01*
X74857664Y-62504635D01*
X74925914Y-62632322D01*
X75017763Y-62744240D01*
X75045808Y-62767256D01*
X77365649Y-65087098D01*
X77397663Y-65192633D01*
X77465913Y-65320320D01*
X77557763Y-65432238D01*
X77585808Y-65455254D01*
X82425000Y-70294447D01*
X82425001Y-83655552D01*
X80823554Y-85257000D01*
X77608105Y-85257000D01*
X77572000Y-85253444D01*
X77427914Y-85267635D01*
X77385886Y-85280384D01*
X77289367Y-85309663D01*
X77161680Y-85377913D01*
X77049762Y-85469762D01*
X77026746Y-85497807D01*
X76061808Y-86462746D01*
X76033762Y-86485763D01*
X75941913Y-86597681D01*
X75873663Y-86725368D01*
X75856292Y-86782633D01*
X75831635Y-86863915D01*
X75817444Y-87008000D01*
X75821000Y-87044105D01*
X75821000Y-87176983D01*
X75577495Y-87339688D01*
X75363688Y-87553495D01*
X75195701Y-87804905D01*
X75079989Y-88084257D01*
X75021000Y-88380816D01*
X75021000Y-88683184D01*
X75079989Y-88979743D01*
X75195701Y-89259095D01*
X75363688Y-89510505D01*
X75577495Y-89724312D01*
X75828905Y-89892299D01*
X76108257Y-90008011D01*
X76404816Y-90067000D01*
X76707184Y-90067000D01*
X77003743Y-90008011D01*
X77283095Y-89892299D01*
X77534505Y-89724312D01*
X77600944Y-89657873D01*
X77606498Y-89676180D01*
X77665463Y-89786494D01*
X77744815Y-89883185D01*
X77841506Y-89962537D01*
X77951820Y-90021502D01*
X78071518Y-90057812D01*
X78196000Y-90070072D01*
X79996000Y-90070072D01*
X80120482Y-90057812D01*
X80240180Y-90021502D01*
X80350494Y-89962537D01*
X80447185Y-89883185D01*
X80526537Y-89786494D01*
X80585502Y-89676180D01*
X80621812Y-89556482D01*
X80634072Y-89432000D01*
X80634072Y-89267000D01*
X81091895Y-89267000D01*
X81128000Y-89270556D01*
X81164105Y-89267000D01*
X81272085Y-89256365D01*
X81410633Y-89214337D01*
X81515043Y-89158529D01*
X81748665Y-89205000D01*
X82031335Y-89205000D01*
X82308574Y-89149853D01*
X82569727Y-89041680D01*
X82804759Y-88884637D01*
X83004637Y-88684759D01*
X83161680Y-88449727D01*
X83269853Y-88188574D01*
X83325000Y-87911335D01*
X83325000Y-87770000D01*
X88068057Y-87770000D01*
X88095764Y-88051309D01*
X88177818Y-88321808D01*
X88311068Y-88571101D01*
X88490392Y-88789608D01*
X88708899Y-88968932D01*
X88958192Y-89102182D01*
X89228691Y-89184236D01*
X89439508Y-89205000D01*
X89580492Y-89205000D01*
X89791309Y-89184236D01*
X90061808Y-89102182D01*
X90311101Y-88968932D01*
X90529608Y-88789608D01*
X90708932Y-88571101D01*
X90842182Y-88321808D01*
X90924236Y-88051309D01*
X90951943Y-87770000D01*
X90924236Y-87488691D01*
X90842182Y-87218192D01*
X90708932Y-86968899D01*
X90529608Y-86750392D01*
X90311101Y-86571068D01*
X90061808Y-86437818D01*
X89791309Y-86355764D01*
X89580492Y-86335000D01*
X89439508Y-86335000D01*
X89228691Y-86355764D01*
X88958192Y-86437818D01*
X88708899Y-86571068D01*
X88490392Y-86750392D01*
X88311068Y-86968899D01*
X88177818Y-87218192D01*
X88095764Y-87488691D01*
X88068057Y-87770000D01*
X83325000Y-87770000D01*
X83325000Y-87628665D01*
X83269853Y-87351426D01*
X83161680Y-87090273D01*
X83004637Y-86855241D01*
X82804759Y-86655363D01*
X82569727Y-86498320D01*
X82308574Y-86390147D01*
X82031335Y-86335000D01*
X81824446Y-86335000D01*
X83654194Y-84505253D01*
X83682238Y-84482238D01*
X83774087Y-84370320D01*
X83842337Y-84242633D01*
X83884365Y-84104085D01*
X83895000Y-83996105D01*
X83898556Y-83960000D01*
X83895000Y-83923895D01*
X83895000Y-70410000D01*
X84211928Y-70410000D01*
X84215000Y-70974250D01*
X84373750Y-71133000D01*
X85573000Y-71133000D01*
X85573000Y-69933750D01*
X85827000Y-69933750D01*
X85827000Y-71133000D01*
X87026250Y-71133000D01*
X87185000Y-70974250D01*
X87188072Y-70410000D01*
X87175812Y-70285518D01*
X87139502Y-70165820D01*
X87080537Y-70055506D01*
X87001185Y-69958815D01*
X86904494Y-69879463D01*
X86794180Y-69820498D01*
X86674482Y-69784188D01*
X86550000Y-69771928D01*
X85985750Y-69775000D01*
X85827000Y-69933750D01*
X85573000Y-69933750D01*
X85414250Y-69775000D01*
X84850000Y-69771928D01*
X84725518Y-69784188D01*
X84605820Y-69820498D01*
X84495506Y-69879463D01*
X84398815Y-69958815D01*
X84319463Y-70055506D01*
X84260498Y-70165820D01*
X84224188Y-70285518D01*
X84211928Y-70410000D01*
X83895000Y-70410000D01*
X83895000Y-70026105D01*
X83898556Y-69990000D01*
X83884365Y-69845915D01*
X83842337Y-69707368D01*
X83842337Y-69707367D01*
X83774087Y-69579680D01*
X83730117Y-69526103D01*
X83705253Y-69495806D01*
X83705250Y-69495803D01*
X83682237Y-69467762D01*
X83654197Y-69444751D01*
X78794351Y-64584905D01*
X78762337Y-64479369D01*
X78720916Y-64401876D01*
X78783411Y-64375990D01*
X79026632Y-64213475D01*
X79233475Y-64006632D01*
X79395990Y-63763411D01*
X79507932Y-63493158D01*
X79565000Y-63206260D01*
X79565000Y-62913740D01*
X79507932Y-62626842D01*
X79395990Y-62356589D01*
X79233475Y-62113368D01*
X79026632Y-61906525D01*
X78783411Y-61744010D01*
X78513158Y-61632068D01*
X78226260Y-61575000D01*
X77933740Y-61575000D01*
X77646842Y-61632068D01*
X77376589Y-61744010D01*
X77133368Y-61906525D01*
X76926525Y-62113368D01*
X76764010Y-62356589D01*
X76749372Y-62391928D01*
X76275000Y-61917556D01*
X76275000Y-58413740D01*
X76595000Y-58413740D01*
X76595000Y-58706260D01*
X76652068Y-58993158D01*
X76764010Y-59263411D01*
X76926525Y-59506632D01*
X77133368Y-59713475D01*
X77376589Y-59875990D01*
X77646842Y-59987932D01*
X77933740Y-60045000D01*
X78226260Y-60045000D01*
X78513158Y-59987932D01*
X78783411Y-59875990D01*
X79026632Y-59713475D01*
X79233475Y-59506632D01*
X79395990Y-59263411D01*
X79507932Y-58993158D01*
X79565000Y-58706260D01*
X79565000Y-58413740D01*
X79507932Y-58126842D01*
X79395990Y-57856589D01*
X79233475Y-57613368D01*
X79026632Y-57406525D01*
X78783411Y-57244010D01*
X78513158Y-57132068D01*
X78226260Y-57075000D01*
X77933740Y-57075000D01*
X77646842Y-57132068D01*
X77376589Y-57244010D01*
X77133368Y-57406525D01*
X76926525Y-57613368D01*
X76764010Y-57856589D01*
X76652068Y-58126842D01*
X76595000Y-58413740D01*
X76275000Y-58413740D01*
X76275000Y-55054446D01*
X78384447Y-52945000D01*
X79131928Y-52945000D01*
X79131928Y-54330000D01*
X79144188Y-54454482D01*
X79180498Y-54574180D01*
X79239463Y-54684494D01*
X79318815Y-54781185D01*
X79415506Y-54860537D01*
X79525820Y-54919502D01*
X79645518Y-54955812D01*
X79770000Y-54968072D01*
X79918079Y-54968072D01*
X79937664Y-55032633D01*
X80005914Y-55160320D01*
X80097763Y-55272238D01*
X80125807Y-55295253D01*
X82425000Y-57594447D01*
X82425001Y-61603885D01*
X82421444Y-61640000D01*
X82435635Y-61784085D01*
X82465169Y-61881444D01*
X82477664Y-61922633D01*
X82545914Y-62050320D01*
X82637763Y-62162238D01*
X82665808Y-62185254D01*
X83144656Y-62664103D01*
X83095000Y-62913740D01*
X83095000Y-63206260D01*
X83152068Y-63493158D01*
X83264010Y-63763411D01*
X83426525Y-64006632D01*
X83633368Y-64213475D01*
X83876589Y-64375990D01*
X84146842Y-64487932D01*
X84433740Y-64545000D01*
X84726260Y-64545000D01*
X85013158Y-64487932D01*
X85283411Y-64375990D01*
X85526632Y-64213475D01*
X85733475Y-64006632D01*
X85895990Y-63763411D01*
X86007932Y-63493158D01*
X86065000Y-63206260D01*
X86065000Y-62913740D01*
X86007932Y-62626842D01*
X85895990Y-62356589D01*
X85733475Y-62113368D01*
X85526632Y-61906525D01*
X85283411Y-61744010D01*
X85013158Y-61632068D01*
X84726260Y-61575000D01*
X84433740Y-61575000D01*
X84184103Y-61624656D01*
X83895000Y-61335554D01*
X83895000Y-59883616D01*
X84146842Y-59987932D01*
X84433740Y-60045000D01*
X84726260Y-60045000D01*
X85013158Y-59987932D01*
X85283411Y-59875990D01*
X85526632Y-59713475D01*
X85733475Y-59506632D01*
X85874883Y-59295000D01*
X87005252Y-59295000D01*
X87125363Y-59474759D01*
X87325241Y-59674637D01*
X87560273Y-59831680D01*
X87821426Y-59939853D01*
X88098665Y-59995000D01*
X88381335Y-59995000D01*
X88658574Y-59939853D01*
X88919727Y-59831680D01*
X89154759Y-59674637D01*
X89354637Y-59474759D01*
X89511680Y-59239727D01*
X89619853Y-58978574D01*
X89675000Y-58701335D01*
X89675000Y-58418665D01*
X89619853Y-58141426D01*
X89511680Y-57880273D01*
X89354637Y-57645241D01*
X89154759Y-57445363D01*
X88919727Y-57288320D01*
X88658574Y-57180147D01*
X88381335Y-57125000D01*
X88098665Y-57125000D01*
X87821426Y-57180147D01*
X87560273Y-57288320D01*
X87325241Y-57445363D01*
X87125363Y-57645241D01*
X87005252Y-57825000D01*
X86327621Y-57825000D01*
X86382337Y-57722633D01*
X86415482Y-57613368D01*
X86424365Y-57584086D01*
X86431982Y-57506747D01*
X86435000Y-57476105D01*
X86435000Y-57476098D01*
X86438555Y-57440001D01*
X86435000Y-57403904D01*
X86435000Y-54770957D01*
X86529014Y-54720706D01*
X86755134Y-54535134D01*
X86940706Y-54309014D01*
X86970000Y-54254209D01*
X86999294Y-54309014D01*
X87184866Y-54535134D01*
X87410986Y-54720706D01*
X87668966Y-54858599D01*
X87948889Y-54943513D01*
X88167050Y-54965000D01*
X88312950Y-54965000D01*
X88531111Y-54943513D01*
X88811034Y-54858599D01*
X89069014Y-54720706D01*
X89295134Y-54535134D01*
X89480706Y-54309014D01*
X89510000Y-54254209D01*
X89539294Y-54309014D01*
X89724866Y-54535134D01*
X89950986Y-54720706D01*
X90208966Y-54858599D01*
X90488889Y-54943513D01*
X90707050Y-54965000D01*
X90852950Y-54965000D01*
X91071111Y-54943513D01*
X91351034Y-54858599D01*
X91609014Y-54720706D01*
X91724489Y-54625938D01*
X92222745Y-55124194D01*
X92245761Y-55152239D01*
X92357679Y-55244088D01*
X92485366Y-55312338D01*
X92623914Y-55354366D01*
X92767999Y-55368557D01*
X92804104Y-55365001D01*
X93253557Y-55365001D01*
X95183189Y-57294634D01*
X95058899Y-57361068D01*
X94840392Y-57540392D01*
X94661068Y-57758899D01*
X94527818Y-58008192D01*
X94445764Y-58278691D01*
X94418057Y-58560000D01*
X94445764Y-58841309D01*
X94527818Y-59111808D01*
X94661068Y-59361101D01*
X94840392Y-59579608D01*
X95058899Y-59758932D01*
X95308192Y-59892182D01*
X95578691Y-59974236D01*
X95789508Y-59995000D01*
X95930492Y-59995000D01*
X96141309Y-59974236D01*
X96395001Y-59897280D01*
X96395000Y-64605553D01*
X87935554Y-73065000D01*
X86990957Y-73065000D01*
X86940706Y-72970986D01*
X86755134Y-72744866D01*
X86725313Y-72720393D01*
X86794180Y-72699502D01*
X86904494Y-72640537D01*
X87001185Y-72561185D01*
X87080537Y-72464494D01*
X87139502Y-72354180D01*
X87175812Y-72234482D01*
X87188072Y-72110000D01*
X87185000Y-71545750D01*
X87026250Y-71387000D01*
X85827000Y-71387000D01*
X85827000Y-71407000D01*
X85573000Y-71407000D01*
X85573000Y-71387000D01*
X84373750Y-71387000D01*
X84215000Y-71545750D01*
X84211928Y-72110000D01*
X84224188Y-72234482D01*
X84260498Y-72354180D01*
X84319463Y-72464494D01*
X84398815Y-72561185D01*
X84495506Y-72640537D01*
X84605820Y-72699502D01*
X84674687Y-72720393D01*
X84644866Y-72744866D01*
X84459294Y-72970986D01*
X84321401Y-73228966D01*
X84236487Y-73508889D01*
X84207815Y-73800000D01*
X84236487Y-74091111D01*
X84321401Y-74371034D01*
X84459294Y-74629014D01*
X84644866Y-74855134D01*
X84870986Y-75040706D01*
X84925791Y-75070000D01*
X84870986Y-75099294D01*
X84644866Y-75284866D01*
X84459294Y-75510986D01*
X84321401Y-75768966D01*
X84236487Y-76048889D01*
X84207815Y-76340000D01*
X84236487Y-76631111D01*
X84321401Y-76911034D01*
X84459294Y-77169014D01*
X84644866Y-77395134D01*
X84870986Y-77580706D01*
X84925791Y-77610000D01*
X84870986Y-77639294D01*
X84644866Y-77824866D01*
X84459294Y-78050986D01*
X84321401Y-78308966D01*
X84236487Y-78588889D01*
X84207815Y-78880000D01*
X84236487Y-79171111D01*
X84321401Y-79451034D01*
X84459294Y-79709014D01*
X84644866Y-79935134D01*
X84870986Y-80120706D01*
X85128966Y-80258599D01*
X85408889Y-80343513D01*
X85627050Y-80365000D01*
X85772950Y-80365000D01*
X85991111Y-80343513D01*
X86271034Y-80258599D01*
X86529014Y-80120706D01*
X86755134Y-79935134D01*
X86940706Y-79709014D01*
X87078599Y-79451034D01*
X87163513Y-79171111D01*
X87192185Y-78880000D01*
X88068057Y-78880000D01*
X88095764Y-79161309D01*
X88177818Y-79431808D01*
X88311068Y-79681101D01*
X88490392Y-79899608D01*
X88708899Y-80078932D01*
X88958192Y-80212182D01*
X89228691Y-80294236D01*
X89439508Y-80315000D01*
X89580492Y-80315000D01*
X89791309Y-80294236D01*
X90061808Y-80212182D01*
X90311101Y-80078932D01*
X90529608Y-79899608D01*
X90708932Y-79681101D01*
X90842182Y-79431808D01*
X90924236Y-79161309D01*
X90951943Y-78880000D01*
X90924236Y-78598691D01*
X90842182Y-78328192D01*
X90708932Y-78078899D01*
X90529608Y-77860392D01*
X90311101Y-77681068D01*
X90061808Y-77547818D01*
X89791309Y-77465764D01*
X89580492Y-77445000D01*
X89439508Y-77445000D01*
X89228691Y-77465764D01*
X88958192Y-77547818D01*
X88708899Y-77681068D01*
X88490392Y-77860392D01*
X88311068Y-78078899D01*
X88177818Y-78328192D01*
X88095764Y-78598691D01*
X88068057Y-78880000D01*
X87192185Y-78880000D01*
X87163513Y-78588889D01*
X87078599Y-78308966D01*
X86940706Y-78050986D01*
X86755134Y-77824866D01*
X86529014Y-77639294D01*
X86474209Y-77610000D01*
X86529014Y-77580706D01*
X86755134Y-77395134D01*
X86940706Y-77169014D01*
X87078599Y-76911034D01*
X87163513Y-76631111D01*
X87192185Y-76340000D01*
X87163513Y-76048889D01*
X87132568Y-75946878D01*
X87274447Y-75805000D01*
X88275252Y-75805000D01*
X88395363Y-75984759D01*
X88595241Y-76184637D01*
X88830273Y-76341680D01*
X89091426Y-76449853D01*
X89368665Y-76505000D01*
X89651335Y-76505000D01*
X89928574Y-76449853D01*
X90189727Y-76341680D01*
X90424759Y-76184637D01*
X90624637Y-75984759D01*
X90781680Y-75749727D01*
X90889853Y-75488574D01*
X90945000Y-75211335D01*
X90945000Y-74928665D01*
X90889853Y-74651426D01*
X90781680Y-74390273D01*
X90624637Y-74155241D01*
X90424759Y-73955363D01*
X90189727Y-73798320D01*
X89928574Y-73690147D01*
X89651335Y-73635000D01*
X89444446Y-73635000D01*
X97624198Y-65455249D01*
X97652237Y-65432238D01*
X97665001Y-65416686D01*
X97665001Y-73495552D01*
X97483032Y-73677521D01*
X97411309Y-73655764D01*
X97200492Y-73635000D01*
X97059508Y-73635000D01*
X96848691Y-73655764D01*
X96578192Y-73737818D01*
X96328899Y-73871068D01*
X96110392Y-74050392D01*
X95931068Y-74268899D01*
X95797818Y-74518192D01*
X95715764Y-74788691D01*
X95688057Y-75070000D01*
X95715764Y-75351309D01*
X95797818Y-75621808D01*
X95931068Y-75871101D01*
X96110392Y-76089608D01*
X96328899Y-76268932D01*
X96395000Y-76304264D01*
X96395001Y-77645252D01*
X96215241Y-77765363D01*
X96015363Y-77965241D01*
X95858320Y-78200273D01*
X95750147Y-78461426D01*
X95695000Y-78738665D01*
X95695000Y-79021335D01*
X95750147Y-79298574D01*
X95858320Y-79559727D01*
X96015363Y-79794759D01*
X96215241Y-79994637D01*
X96450273Y-80151680D01*
X96711426Y-80259853D01*
X96988665Y-80315000D01*
X97271335Y-80315000D01*
X97548574Y-80259853D01*
X97809727Y-80151680D01*
X98044759Y-79994637D01*
X98244637Y-79794759D01*
X98401680Y-79559727D01*
X98509853Y-79298574D01*
X98565000Y-79021335D01*
X98565000Y-78738665D01*
X98509853Y-78461426D01*
X98401680Y-78200273D01*
X98244637Y-77965241D01*
X98044759Y-77765363D01*
X97865000Y-77645252D01*
X97865000Y-76304264D01*
X97931101Y-76268932D01*
X98149608Y-76089608D01*
X98328932Y-75871101D01*
X98462182Y-75621808D01*
X98544236Y-75351309D01*
X98571943Y-75070000D01*
X98544236Y-74788691D01*
X98522479Y-74716968D01*
X98894194Y-74345253D01*
X98922238Y-74322238D01*
X99014087Y-74210320D01*
X99082337Y-74082633D01*
X99124365Y-73944085D01*
X99135000Y-73836105D01*
X99135000Y-73836096D01*
X99138555Y-73800001D01*
X99135000Y-73763906D01*
X99135000Y-54770957D01*
X99229014Y-54720706D01*
X99344489Y-54625938D01*
X99772998Y-55054447D01*
X99772999Y-83325554D01*
X95365808Y-87732746D01*
X95337762Y-87755763D01*
X95245913Y-87867681D01*
X95177663Y-87995368D01*
X95160694Y-88051309D01*
X95135635Y-88133915D01*
X95121444Y-88278000D01*
X95125000Y-88314105D01*
X95125001Y-96639042D01*
X95030986Y-96689294D01*
X94804866Y-96874866D01*
X94780393Y-96904687D01*
X94759502Y-96835820D01*
X94700537Y-96725506D01*
X94621185Y-96628815D01*
X94524494Y-96549463D01*
X94414180Y-96490498D01*
X94294482Y-96454188D01*
X94170000Y-96441928D01*
X93605750Y-96445000D01*
X93447000Y-96603750D01*
X93447000Y-97803000D01*
X93467000Y-97803000D01*
X93467000Y-98057000D01*
X93447000Y-98057000D01*
X93447000Y-99256250D01*
X93605750Y-99415000D01*
X94170000Y-99418072D01*
X94294482Y-99405812D01*
X94414180Y-99369502D01*
X94524494Y-99310537D01*
X94621185Y-99231185D01*
X94700537Y-99134494D01*
X94759502Y-99024180D01*
X94780393Y-98955313D01*
X94804866Y-98985134D01*
X95030986Y-99170706D01*
X95288966Y-99308599D01*
X95568889Y-99393513D01*
X95787050Y-99415000D01*
X95932950Y-99415000D01*
X96151111Y-99393513D01*
X96431034Y-99308599D01*
X96689014Y-99170706D01*
X96915134Y-98985134D01*
X97100706Y-98759014D01*
X97130000Y-98704209D01*
X97159294Y-98759014D01*
X97344866Y-98985134D01*
X97570986Y-99170706D01*
X97828966Y-99308599D01*
X98108889Y-99393513D01*
X98327050Y-99415000D01*
X98472950Y-99415000D01*
X98691111Y-99393513D01*
X98971034Y-99308599D01*
X99229014Y-99170706D01*
X99455134Y-98985134D01*
X99640706Y-98759014D01*
X99670000Y-98704209D01*
X99699294Y-98759014D01*
X99884866Y-98985134D01*
X100110986Y-99170706D01*
X100368966Y-99308599D01*
X100648889Y-99393513D01*
X100867050Y-99415000D01*
X101012950Y-99415000D01*
X101231111Y-99393513D01*
X101511034Y-99308599D01*
X101769014Y-99170706D01*
X101995134Y-98985134D01*
X102180706Y-98759014D01*
X102318599Y-98501034D01*
X102403513Y-98221111D01*
X102432185Y-97930000D01*
X102403513Y-97638889D01*
X102318599Y-97358966D01*
X102180706Y-97100986D01*
X101995134Y-96874866D01*
X101769014Y-96689294D01*
X101511034Y-96551401D01*
X101231111Y-96466487D01*
X101012950Y-96445000D01*
X100867050Y-96445000D01*
X100648889Y-96466487D01*
X100368966Y-96551401D01*
X100110986Y-96689294D01*
X99884866Y-96874866D01*
X99699294Y-97100986D01*
X99670000Y-97155791D01*
X99640706Y-97100986D01*
X99455134Y-96874866D01*
X99229014Y-96689294D01*
X99135000Y-96639043D01*
X99135000Y-95354748D01*
X99314759Y-95234637D01*
X99514637Y-95034759D01*
X99671680Y-94799727D01*
X99779853Y-94538574D01*
X99835000Y-94261335D01*
X99835000Y-93978665D01*
X99779853Y-93701426D01*
X99671680Y-93440273D01*
X99514637Y-93205241D01*
X99314759Y-93005363D01*
X99079727Y-92848320D01*
X98818574Y-92740147D01*
X98541335Y-92685000D01*
X98258665Y-92685000D01*
X97981426Y-92740147D01*
X97720273Y-92848320D01*
X97485241Y-93005363D01*
X97285363Y-93205241D01*
X97128320Y-93440273D01*
X97020147Y-93701426D01*
X96965000Y-93978665D01*
X96965000Y-94261335D01*
X97020147Y-94538574D01*
X97128320Y-94799727D01*
X97285363Y-95034759D01*
X97485241Y-95234637D01*
X97665000Y-95354748D01*
X97665001Y-96639042D01*
X97570986Y-96689294D01*
X97344866Y-96874866D01*
X97159294Y-97100986D01*
X97130000Y-97155791D01*
X97100706Y-97100986D01*
X96915134Y-96874866D01*
X96689014Y-96689294D01*
X96595000Y-96639043D01*
X96595000Y-89040000D01*
X96958057Y-89040000D01*
X96985764Y-89321309D01*
X97067818Y-89591808D01*
X97201068Y-89841101D01*
X97380392Y-90059608D01*
X97598899Y-90238932D01*
X97848192Y-90372182D01*
X98118691Y-90454236D01*
X98329508Y-90475000D01*
X98470492Y-90475000D01*
X98681309Y-90454236D01*
X98951808Y-90372182D01*
X99201101Y-90238932D01*
X99419608Y-90059608D01*
X99598932Y-89841101D01*
X99732182Y-89591808D01*
X99814236Y-89321309D01*
X99841943Y-89040000D01*
X99814236Y-88758691D01*
X99732182Y-88488192D01*
X99598932Y-88238899D01*
X99419608Y-88020392D01*
X99201101Y-87841068D01*
X98951808Y-87707818D01*
X98681309Y-87625764D01*
X98470492Y-87605000D01*
X98329508Y-87605000D01*
X98118691Y-87625764D01*
X97848192Y-87707818D01*
X97598899Y-87841068D01*
X97380392Y-88020392D01*
X97201068Y-88238899D01*
X97067818Y-88488192D01*
X96985764Y-88758691D01*
X96958057Y-89040000D01*
X96595000Y-89040000D01*
X96595000Y-88582446D01*
X101002191Y-84175256D01*
X101030236Y-84152240D01*
X101122085Y-84040322D01*
X101190335Y-83912635D01*
X101232363Y-83774087D01*
X101242998Y-83666107D01*
X101246554Y-83630002D01*
X101242998Y-83593897D01*
X101242998Y-54939907D01*
X101475000Y-54869530D01*
X101475001Y-82653885D01*
X101471444Y-82690000D01*
X101485635Y-82834085D01*
X101521832Y-82953407D01*
X101527664Y-82972633D01*
X101595914Y-83100320D01*
X101687763Y-83212238D01*
X101715807Y-83235253D01*
X105285000Y-86804447D01*
X105285001Y-87805252D01*
X105105241Y-87925363D01*
X104905363Y-88125241D01*
X104748320Y-88360273D01*
X104640147Y-88621426D01*
X104585000Y-88898665D01*
X104585000Y-89181335D01*
X104640147Y-89458574D01*
X104748320Y-89719727D01*
X104905363Y-89954759D01*
X105105241Y-90154637D01*
X105285000Y-90274748D01*
X105285001Y-92885736D01*
X105218899Y-92921068D01*
X105000392Y-93100392D01*
X104821068Y-93318899D01*
X104687818Y-93568192D01*
X104605764Y-93838691D01*
X104578057Y-94120000D01*
X104605764Y-94401309D01*
X104687818Y-94671808D01*
X104821068Y-94921101D01*
X105000392Y-95139608D01*
X105218899Y-95318932D01*
X105468192Y-95452182D01*
X105738691Y-95534236D01*
X105949508Y-95555000D01*
X106090492Y-95555000D01*
X106301309Y-95534236D01*
X106571808Y-95452182D01*
X106821101Y-95318932D01*
X107039608Y-95139608D01*
X107218932Y-94921101D01*
X107352182Y-94671808D01*
X107434236Y-94401309D01*
X107461943Y-94120000D01*
X107434236Y-93838691D01*
X107352182Y-93568192D01*
X107218932Y-93318899D01*
X107039608Y-93100392D01*
X106821101Y-92921068D01*
X106755000Y-92885736D01*
X106755000Y-92086686D01*
X106767763Y-92102238D01*
X106795808Y-92125254D01*
X108014746Y-93344193D01*
X108037762Y-93372238D01*
X108149680Y-93464087D01*
X108277367Y-93532337D01*
X108415915Y-93574365D01*
X108523895Y-93585000D01*
X108523904Y-93585000D01*
X108539884Y-93586574D01*
X108589294Y-93679014D01*
X108774866Y-93905134D01*
X109000986Y-94090706D01*
X109258966Y-94228599D01*
X109538889Y-94313513D01*
X109757050Y-94335000D01*
X109902950Y-94335000D01*
X110121111Y-94313513D01*
X110401034Y-94228599D01*
X110659014Y-94090706D01*
X110885134Y-93905134D01*
X111070706Y-93679014D01*
X111208599Y-93421034D01*
X111293513Y-93141111D01*
X111322185Y-92850000D01*
X111293513Y-92558889D01*
X111208599Y-92278966D01*
X111070706Y-92020986D01*
X110885134Y-91794866D01*
X110855313Y-91770393D01*
X110924180Y-91749502D01*
X111034494Y-91690537D01*
X111131185Y-91611185D01*
X111210537Y-91514494D01*
X111269502Y-91404180D01*
X111305812Y-91284482D01*
X111318072Y-91160000D01*
X111318072Y-89460000D01*
X111305812Y-89335518D01*
X111269502Y-89215820D01*
X111210537Y-89105506D01*
X111131185Y-89008815D01*
X111034494Y-88929463D01*
X110924180Y-88870498D01*
X110804482Y-88834188D01*
X110680000Y-88821928D01*
X110565000Y-88821928D01*
X110565000Y-82994446D01*
X113944447Y-79615000D01*
X125277895Y-79615000D01*
X125314000Y-79618556D01*
X125350105Y-79615000D01*
X125458085Y-79604365D01*
X125596633Y-79562337D01*
X125724320Y-79494087D01*
X125836238Y-79402238D01*
X125859259Y-79374187D01*
X130046968Y-75186479D01*
X130118691Y-75208236D01*
X130329508Y-75229000D01*
X130470492Y-75229000D01*
X130681309Y-75208236D01*
X130951808Y-75126182D01*
X131201101Y-74992932D01*
X131419608Y-74813608D01*
X131598932Y-74595101D01*
X131670000Y-74462142D01*
X131741068Y-74595101D01*
X131920392Y-74813608D01*
X132138899Y-74992932D01*
X132388192Y-75126182D01*
X132658691Y-75208236D01*
X132869508Y-75229000D01*
X133010492Y-75229000D01*
X133221309Y-75208236D01*
X133491808Y-75126182D01*
X133741101Y-74992932D01*
X133959608Y-74813608D01*
X134138932Y-74595101D01*
X134272182Y-74345808D01*
X134354236Y-74075309D01*
X134381943Y-73794000D01*
X134354236Y-73512691D01*
X134272182Y-73242192D01*
X134138932Y-72992899D01*
X133959608Y-72774392D01*
X133741101Y-72595068D01*
X133491808Y-72461818D01*
X133221309Y-72379764D01*
X133010492Y-72359000D01*
X132869508Y-72359000D01*
X132658691Y-72379764D01*
X132388192Y-72461818D01*
X132138899Y-72595068D01*
X131920392Y-72774392D01*
X131741068Y-72992899D01*
X131670000Y-73125858D01*
X131598932Y-72992899D01*
X131419608Y-72774392D01*
X131201101Y-72595068D01*
X130951808Y-72461818D01*
X130681309Y-72379764D01*
X130470492Y-72359000D01*
X130329508Y-72359000D01*
X130118691Y-72379764D01*
X129848192Y-72461818D01*
X129598899Y-72595068D01*
X129380392Y-72774392D01*
X129201068Y-72992899D01*
X129130000Y-73125858D01*
X129058932Y-72992899D01*
X128879608Y-72774392D01*
X128661101Y-72595068D01*
X128411808Y-72461818D01*
X128141309Y-72379764D01*
X127930492Y-72359000D01*
X127789508Y-72359000D01*
X127578691Y-72379764D01*
X127308192Y-72461818D01*
X127058899Y-72595068D01*
X126840392Y-72774392D01*
X126661068Y-72992899D01*
X126590000Y-73125858D01*
X126518932Y-72992899D01*
X126339608Y-72774392D01*
X126121101Y-72595068D01*
X125871808Y-72461818D01*
X125601309Y-72379764D01*
X125390492Y-72359000D01*
X125249508Y-72359000D01*
X125038691Y-72379764D01*
X124768192Y-72461818D01*
X124518899Y-72595068D01*
X124300392Y-72774392D01*
X124121068Y-72992899D01*
X124050000Y-73125858D01*
X123978932Y-72992899D01*
X123799608Y-72774392D01*
X123581101Y-72595068D01*
X123331808Y-72461818D01*
X123061309Y-72379764D01*
X122850492Y-72359000D01*
X122709508Y-72359000D01*
X122498691Y-72379764D01*
X122228192Y-72461818D01*
X121978899Y-72595068D01*
X121760392Y-72774392D01*
X121581068Y-72992899D01*
X121510000Y-73125858D01*
X121438932Y-72992899D01*
X121259608Y-72774392D01*
X121041101Y-72595068D01*
X120791808Y-72461818D01*
X120521309Y-72379764D01*
X120310492Y-72359000D01*
X120169508Y-72359000D01*
X119958691Y-72379764D01*
X119688192Y-72461818D01*
X119438899Y-72595068D01*
X119220392Y-72774392D01*
X119041068Y-72992899D01*
X118970000Y-73125858D01*
X118898932Y-72992899D01*
X118719608Y-72774392D01*
X118501101Y-72595068D01*
X118435000Y-72559736D01*
X118435000Y-62656105D01*
X118438556Y-62620000D01*
X118424365Y-62475915D01*
X118382337Y-62337366D01*
X118314087Y-62209680D01*
X118245253Y-62125806D01*
X118222238Y-62097762D01*
X118194193Y-62074746D01*
X115737758Y-59618311D01*
X115961101Y-59498932D01*
X116179608Y-59319608D01*
X116358932Y-59101101D01*
X116430000Y-58968142D01*
X116501068Y-59101101D01*
X116680392Y-59319608D01*
X116898899Y-59498932D01*
X117148192Y-59632182D01*
X117418691Y-59714236D01*
X117629508Y-59735000D01*
X117770492Y-59735000D01*
X117981309Y-59714236D01*
X118251808Y-59632182D01*
X118501101Y-59498932D01*
X118719608Y-59319608D01*
X118898932Y-59101101D01*
X118970000Y-58968142D01*
X119041068Y-59101101D01*
X119220392Y-59319608D01*
X119438899Y-59498932D01*
X119688192Y-59632182D01*
X119958691Y-59714236D01*
X120169508Y-59735000D01*
X120310492Y-59735000D01*
X120521309Y-59714236D01*
X120791808Y-59632182D01*
X121041101Y-59498932D01*
X121259608Y-59319608D01*
X121438932Y-59101101D01*
X121510000Y-58968142D01*
X121581068Y-59101101D01*
X121760392Y-59319608D01*
X121978899Y-59498932D01*
X122228192Y-59632182D01*
X122498691Y-59714236D01*
X122709508Y-59735000D01*
X122850492Y-59735000D01*
X123061309Y-59714236D01*
X123331808Y-59632182D01*
X123581101Y-59498932D01*
X123799608Y-59319608D01*
X123978932Y-59101101D01*
X124050000Y-58968142D01*
X124121068Y-59101101D01*
X124300392Y-59319608D01*
X124518899Y-59498932D01*
X124768192Y-59632182D01*
X125038691Y-59714236D01*
X125249508Y-59735000D01*
X125390492Y-59735000D01*
X125601309Y-59714236D01*
X125871808Y-59632182D01*
X126121101Y-59498932D01*
X126339608Y-59319608D01*
X126518932Y-59101101D01*
X126590000Y-58968142D01*
X126661068Y-59101101D01*
X126840392Y-59319608D01*
X127058899Y-59498932D01*
X127308192Y-59632182D01*
X127578691Y-59714236D01*
X127789508Y-59735000D01*
X127930492Y-59735000D01*
X128141309Y-59714236D01*
X128411808Y-59632182D01*
X128661101Y-59498932D01*
X128879608Y-59319608D01*
X129058932Y-59101101D01*
X129130000Y-58968142D01*
X129201068Y-59101101D01*
X129380392Y-59319608D01*
X129598899Y-59498932D01*
X129848192Y-59632182D01*
X130118691Y-59714236D01*
X130329508Y-59735000D01*
X130470492Y-59735000D01*
X130681309Y-59714236D01*
X130951808Y-59632182D01*
X131201101Y-59498932D01*
X131419608Y-59319608D01*
X131598932Y-59101101D01*
X131670000Y-58968142D01*
X131741068Y-59101101D01*
X131920392Y-59319608D01*
X132138899Y-59498932D01*
X132388192Y-59632182D01*
X132658691Y-59714236D01*
X132869508Y-59735000D01*
X133010492Y-59735000D01*
X133221309Y-59714236D01*
X133491808Y-59632182D01*
X133741101Y-59498932D01*
X133959608Y-59319608D01*
X134138932Y-59101101D01*
X134272182Y-58851808D01*
X134354236Y-58581309D01*
X134381943Y-58300000D01*
X134354236Y-58018691D01*
X134272182Y-57748192D01*
X134138932Y-57498899D01*
X133959608Y-57280392D01*
X133741101Y-57101068D01*
X133491808Y-56967818D01*
X133221309Y-56885764D01*
X133010492Y-56865000D01*
X132869508Y-56865000D01*
X132658691Y-56885764D01*
X132388192Y-56967818D01*
X132138899Y-57101068D01*
X131920392Y-57280392D01*
X131741068Y-57498899D01*
X131670000Y-57631858D01*
X131598932Y-57498899D01*
X131419608Y-57280392D01*
X131201101Y-57101068D01*
X131135000Y-57065736D01*
X131135000Y-52496105D01*
X131138556Y-52460000D01*
X131124365Y-52315915D01*
X131082337Y-52177366D01*
X131014087Y-52049680D01*
X131012188Y-52047366D01*
X130922238Y-51937762D01*
X130894193Y-51914746D01*
X130312568Y-51333122D01*
X130343513Y-51231111D01*
X130372185Y-50940000D01*
X130343513Y-50648889D01*
X130258599Y-50368966D01*
X130120706Y-50110986D01*
X129935134Y-49884866D01*
X129709014Y-49699294D01*
X129451034Y-49561401D01*
X129171111Y-49476487D01*
X128952950Y-49455000D01*
X128807050Y-49455000D01*
X128588889Y-49476487D01*
X128308966Y-49561401D01*
X128050986Y-49699294D01*
X127824866Y-49884866D01*
X127639294Y-50110986D01*
X127610000Y-50165791D01*
X127580706Y-50110986D01*
X127395134Y-49884866D01*
X127169014Y-49699294D01*
X126911034Y-49561401D01*
X126631111Y-49476487D01*
X126412950Y-49455000D01*
X126267050Y-49455000D01*
X126048889Y-49476487D01*
X125768966Y-49561401D01*
X125510986Y-49699294D01*
X125284866Y-49884866D01*
X125099294Y-50110986D01*
X125070000Y-50165791D01*
X125040706Y-50110986D01*
X124855134Y-49884866D01*
X124629014Y-49699294D01*
X124371034Y-49561401D01*
X124091111Y-49476487D01*
X123872950Y-49455000D01*
X123727050Y-49455000D01*
X123508889Y-49476487D01*
X123228966Y-49561401D01*
X122970986Y-49699294D01*
X122744866Y-49884866D01*
X122559294Y-50110986D01*
X122530000Y-50165791D01*
X122500706Y-50110986D01*
X122315134Y-49884866D01*
X122089014Y-49699294D01*
X121831034Y-49561401D01*
X121551111Y-49476487D01*
X121332950Y-49455000D01*
X121187050Y-49455000D01*
X120968889Y-49476487D01*
X120688966Y-49561401D01*
X120430986Y-49699294D01*
X120204866Y-49884866D01*
X120019294Y-50110986D01*
X119990000Y-50165791D01*
X119960706Y-50110986D01*
X119775134Y-49884866D01*
X119549014Y-49699294D01*
X119291034Y-49561401D01*
X119011111Y-49476487D01*
X118792950Y-49455000D01*
X118647050Y-49455000D01*
X118428889Y-49476487D01*
X118148966Y-49561401D01*
X117890986Y-49699294D01*
X117664866Y-49884866D01*
X117479294Y-50110986D01*
X117450000Y-50165791D01*
X117420706Y-50110986D01*
X117235134Y-49884866D01*
X117009014Y-49699294D01*
X116751034Y-49561401D01*
X116471111Y-49476487D01*
X116252950Y-49455000D01*
X116107050Y-49455000D01*
X115888889Y-49476487D01*
X115608966Y-49561401D01*
X115350986Y-49699294D01*
X115124866Y-49884866D01*
X114939294Y-50110986D01*
X114910000Y-50165791D01*
X114880706Y-50110986D01*
X114695134Y-49884866D01*
X114469014Y-49699294D01*
X114211034Y-49561401D01*
X113931111Y-49476487D01*
X113712950Y-49455000D01*
X113567050Y-49455000D01*
X113348889Y-49476487D01*
X113068966Y-49561401D01*
X112810986Y-49699294D01*
X112584866Y-49884866D01*
X112399294Y-50110986D01*
X112370000Y-50165791D01*
X112340706Y-50110986D01*
X112155134Y-49884866D01*
X111929014Y-49699294D01*
X111671034Y-49561401D01*
X111391111Y-49476487D01*
X111172950Y-49455000D01*
X111027050Y-49455000D01*
X110808889Y-49476487D01*
X110528966Y-49561401D01*
X110270986Y-49699294D01*
X110044866Y-49884866D01*
X109859294Y-50110986D01*
X109830000Y-50165791D01*
X109800706Y-50110986D01*
X109615134Y-49884866D01*
X109389014Y-49699294D01*
X109131034Y-49561401D01*
X108851111Y-49476487D01*
X108632950Y-49455000D01*
X108487050Y-49455000D01*
X108268889Y-49476487D01*
X107988966Y-49561401D01*
X107730986Y-49699294D01*
X107504866Y-49884866D01*
X107319294Y-50110986D01*
X107290000Y-50165791D01*
X107260706Y-50110986D01*
X107075134Y-49884866D01*
X106849014Y-49699294D01*
X106591034Y-49561401D01*
X106311111Y-49476487D01*
X106092950Y-49455000D01*
X105947050Y-49455000D01*
X105728889Y-49476487D01*
X105448966Y-49561401D01*
X105190986Y-49699294D01*
X104964866Y-49884866D01*
X104779294Y-50110986D01*
X104750000Y-50165791D01*
X104720706Y-50110986D01*
X104535134Y-49884866D01*
X104309014Y-49699294D01*
X104051034Y-49561401D01*
X103771111Y-49476487D01*
X103552950Y-49455000D01*
X103407050Y-49455000D01*
X103188889Y-49476487D01*
X102908966Y-49561401D01*
X102650986Y-49699294D01*
X102424866Y-49884866D01*
X102239294Y-50110986D01*
X102210000Y-50165791D01*
X102180706Y-50110986D01*
X101995134Y-49884866D01*
X101769014Y-49699294D01*
X101511034Y-49561401D01*
X101231111Y-49476487D01*
X101012950Y-49455000D01*
X100867050Y-49455000D01*
X100648889Y-49476487D01*
X100368966Y-49561401D01*
X100110986Y-49699294D01*
X99884866Y-49884866D01*
X99699294Y-50110986D01*
X99670000Y-50165791D01*
X99640706Y-50110986D01*
X99455134Y-49884866D01*
X99229014Y-49699294D01*
X98971034Y-49561401D01*
X98691111Y-49476487D01*
X98472950Y-49455000D01*
X98327050Y-49455000D01*
X98108889Y-49476487D01*
X97828966Y-49561401D01*
X97570986Y-49699294D01*
X97344866Y-49884866D01*
X97159294Y-50110986D01*
X97130000Y-50165791D01*
X97100706Y-50110986D01*
X96915134Y-49884866D01*
X96689014Y-49699294D01*
X96431034Y-49561401D01*
X96151111Y-49476487D01*
X95932950Y-49455000D01*
X95787050Y-49455000D01*
X95568889Y-49476487D01*
X95288966Y-49561401D01*
X95030986Y-49699294D01*
X94804866Y-49884866D01*
X94619294Y-50110986D01*
X94590000Y-50165791D01*
X94560706Y-50110986D01*
X94375134Y-49884866D01*
X94149014Y-49699294D01*
X93891034Y-49561401D01*
X93611111Y-49476487D01*
X93392950Y-49455000D01*
X93247050Y-49455000D01*
X93028889Y-49476487D01*
X92748966Y-49561401D01*
X92490986Y-49699294D01*
X92264866Y-49884866D01*
X92079294Y-50110986D01*
X92050000Y-50165791D01*
X92020706Y-50110986D01*
X91835134Y-49884866D01*
X91609014Y-49699294D01*
X91351034Y-49561401D01*
X91071111Y-49476487D01*
X90852950Y-49455000D01*
X90707050Y-49455000D01*
X90488889Y-49476487D01*
X90208966Y-49561401D01*
X89950986Y-49699294D01*
X89724866Y-49884866D01*
X89539294Y-50110986D01*
X89510000Y-50165791D01*
X89480706Y-50110986D01*
X89295134Y-49884866D01*
X89069014Y-49699294D01*
X88811034Y-49561401D01*
X88531111Y-49476487D01*
X88312950Y-49455000D01*
X88167050Y-49455000D01*
X87948889Y-49476487D01*
X87668966Y-49561401D01*
X87410986Y-49699294D01*
X87184866Y-49884866D01*
X86999294Y-50110986D01*
X86970000Y-50165791D01*
X86940706Y-50110986D01*
X86755134Y-49884866D01*
X86529014Y-49699294D01*
X86271034Y-49561401D01*
X85991111Y-49476487D01*
X85772950Y-49455000D01*
X85627050Y-49455000D01*
X85408889Y-49476487D01*
X85128966Y-49561401D01*
X84870986Y-49699294D01*
X84644866Y-49884866D01*
X84459294Y-50110986D01*
X84424799Y-50175523D01*
X84355178Y-50058645D01*
X84160269Y-49842412D01*
X83926920Y-49668359D01*
X83664099Y-49543175D01*
X83516890Y-49498524D01*
X83287000Y-49619845D01*
X83287000Y-50813000D01*
X83307000Y-50813000D01*
X83307000Y-51067000D01*
X83287000Y-51067000D01*
X83287000Y-51087000D01*
X83033000Y-51087000D01*
X83033000Y-51067000D01*
X80747000Y-51067000D01*
X80747000Y-51087000D01*
X80493000Y-51087000D01*
X80493000Y-51067000D01*
X79299186Y-51067000D01*
X79178519Y-51296891D01*
X79241700Y-51475000D01*
X78116094Y-51475000D01*
X78079999Y-51471445D01*
X78043904Y-51475000D01*
X78043895Y-51475000D01*
X77935915Y-51485635D01*
X77797367Y-51527663D01*
X77669680Y-51595913D01*
X77557762Y-51687762D01*
X77534747Y-51715806D01*
X75045808Y-54204746D01*
X75017762Y-54227763D01*
X74925913Y-54339681D01*
X74857663Y-54467368D01*
X74828384Y-54563887D01*
X74815635Y-54605915D01*
X74801444Y-54750000D01*
X73127000Y-54750000D01*
X73127000Y-50357606D01*
X73263595Y-50221011D01*
X73245000Y-50314495D01*
X73245000Y-50705505D01*
X73321282Y-51089003D01*
X73470915Y-51450250D01*
X73688149Y-51775364D01*
X73964636Y-52051851D01*
X74289750Y-52269085D01*
X74650997Y-52418718D01*
X75034495Y-52495000D01*
X75425505Y-52495000D01*
X75809003Y-52418718D01*
X76170250Y-52269085D01*
X76495364Y-52051851D01*
X76771851Y-51775364D01*
X76989085Y-51450250D01*
X77138718Y-51089003D01*
X77215000Y-50705505D01*
X77215000Y-50583109D01*
X79178519Y-50583109D01*
X79299186Y-50813000D01*
X80493000Y-50813000D01*
X80493000Y-49619845D01*
X80747000Y-49619845D01*
X80747000Y-50813000D01*
X83033000Y-50813000D01*
X83033000Y-49619845D01*
X82803110Y-49498524D01*
X82655901Y-49543175D01*
X82393080Y-49668359D01*
X82159731Y-49842412D01*
X81964822Y-50058645D01*
X81890000Y-50184255D01*
X81815178Y-50058645D01*
X81620269Y-49842412D01*
X81386920Y-49668359D01*
X81124099Y-49543175D01*
X80976890Y-49498524D01*
X80747000Y-49619845D01*
X80493000Y-49619845D01*
X80263110Y-49498524D01*
X80115901Y-49543175D01*
X79853080Y-49668359D01*
X79619731Y-49842412D01*
X79424822Y-50058645D01*
X79275843Y-50308748D01*
X79178519Y-50583109D01*
X77215000Y-50583109D01*
X77215000Y-50314495D01*
X77138718Y-49930997D01*
X76989085Y-49569750D01*
X76771851Y-49244636D01*
X76495364Y-48968149D01*
X76170250Y-48750915D01*
X75809003Y-48601282D01*
X75425505Y-48525000D01*
X75034495Y-48525000D01*
X74941011Y-48543595D01*
X75592606Y-47892000D01*
X133272394Y-47892000D01*
X134103774Y-48723380D01*
X134103774Y-48723380D01*
G37*
X134103774Y-48723380D02*
X133809003Y-48601282D01*
X133425505Y-48525000D01*
X133034495Y-48525000D01*
X132650997Y-48601282D01*
X132289750Y-48750915D01*
X131964636Y-48968149D01*
X131688149Y-49244636D01*
X131470915Y-49569750D01*
X131321282Y-49930997D01*
X131245000Y-50314495D01*
X131245000Y-50705505D01*
X131321282Y-51089003D01*
X131470915Y-51450250D01*
X131688149Y-51775364D01*
X131964636Y-52051851D01*
X132289750Y-52269085D01*
X132650997Y-52418718D01*
X133034495Y-52495000D01*
X133425505Y-52495000D01*
X133809003Y-52418718D01*
X134170250Y-52269085D01*
X134495364Y-52051851D01*
X134771851Y-51775364D01*
X134989085Y-51450250D01*
X135138718Y-51089003D01*
X135215000Y-50705505D01*
X135215000Y-50314495D01*
X135138718Y-49930997D01*
X135016620Y-49636226D01*
X135738000Y-50357606D01*
X135738000Y-99792667D01*
X134611571Y-101294572D01*
X133731240Y-102248000D01*
X119482000Y-102248000D01*
X119482000Y-99314495D01*
X131245000Y-99314495D01*
X131245000Y-99705505D01*
X131321282Y-100089003D01*
X131470915Y-100450250D01*
X131688149Y-100775364D01*
X131964636Y-101051851D01*
X132289750Y-101269085D01*
X132650997Y-101418718D01*
X133034495Y-101495000D01*
X133425505Y-101495000D01*
X133809003Y-101418718D01*
X134170250Y-101269085D01*
X134495364Y-101051851D01*
X134771851Y-100775364D01*
X134989085Y-100450250D01*
X135138718Y-100089003D01*
X135215000Y-99705505D01*
X135215000Y-99314495D01*
X135138718Y-98930997D01*
X134989085Y-98569750D01*
X134771851Y-98244636D01*
X134495364Y-97968149D01*
X134170250Y-97750915D01*
X133809003Y-97601282D01*
X133425505Y-97525000D01*
X133034495Y-97525000D01*
X132650997Y-97601282D01*
X132289750Y-97750915D01*
X131964636Y-97968149D01*
X131688149Y-98244636D01*
X131470915Y-98569750D01*
X131321282Y-98930997D01*
X131245000Y-99314495D01*
X119482000Y-99314495D01*
X119482000Y-90240000D01*
X121961928Y-90240000D01*
X121974188Y-90364482D01*
X122010498Y-90484180D01*
X122069463Y-90594494D01*
X122148815Y-90691185D01*
X122245506Y-90770537D01*
X122355820Y-90829502D01*
X122475518Y-90865812D01*
X122600000Y-90878072D01*
X123514250Y-90875000D01*
X123673000Y-90716250D01*
X123673000Y-89167000D01*
X123927000Y-89167000D01*
X123927000Y-90716250D01*
X124085750Y-90875000D01*
X125000000Y-90878072D01*
X125124482Y-90865812D01*
X125244180Y-90829502D01*
X125354494Y-90770537D01*
X125451185Y-90691185D01*
X125530537Y-90594494D01*
X125589502Y-90484180D01*
X125625812Y-90364482D01*
X125638072Y-90240000D01*
X125635000Y-89325750D01*
X125476250Y-89167000D01*
X123927000Y-89167000D01*
X123673000Y-89167000D01*
X122123750Y-89167000D01*
X121965000Y-89325750D01*
X121961928Y-90240000D01*
X119482000Y-90240000D01*
X119482000Y-87840000D01*
X121961928Y-87840000D01*
X121965000Y-88754250D01*
X122123750Y-88913000D01*
X123673000Y-88913000D01*
X123673000Y-87363750D01*
X123927000Y-87363750D01*
X123927000Y-88913000D01*
X125476250Y-88913000D01*
X125529982Y-88859268D01*
X129465000Y-88859268D01*
X129465000Y-89220732D01*
X129535518Y-89575250D01*
X129673844Y-89909199D01*
X129874662Y-90209744D01*
X130130256Y-90465338D01*
X130430801Y-90666156D01*
X130764750Y-90804482D01*
X131119268Y-90875000D01*
X131480732Y-90875000D01*
X131835250Y-90804482D01*
X132169199Y-90666156D01*
X132469744Y-90465338D01*
X132725338Y-90209744D01*
X132926156Y-89909199D01*
X133064482Y-89575250D01*
X133135000Y-89220732D01*
X133135000Y-88859268D01*
X133064482Y-88504750D01*
X132926156Y-88170801D01*
X132725338Y-87870256D01*
X132469744Y-87614662D01*
X132169199Y-87413844D01*
X131835250Y-87275518D01*
X131480732Y-87205000D01*
X131119268Y-87205000D01*
X130764750Y-87275518D01*
X130430801Y-87413844D01*
X130130256Y-87614662D01*
X129874662Y-87870256D01*
X129673844Y-88170801D01*
X129535518Y-88504750D01*
X129465000Y-88859268D01*
X125529982Y-88859268D01*
X125635000Y-88754250D01*
X125638072Y-87840000D01*
X125625812Y-87715518D01*
X125589502Y-87595820D01*
X125530537Y-87485506D01*
X125451185Y-87388815D01*
X125354494Y-87309463D01*
X125244180Y-87250498D01*
X125124482Y-87214188D01*
X125000000Y-87201928D01*
X124085750Y-87205000D01*
X123927000Y-87363750D01*
X123673000Y-87363750D01*
X123514250Y-87205000D01*
X122600000Y-87201928D01*
X122475518Y-87214188D01*
X122355820Y-87250498D01*
X122245506Y-87309463D01*
X122148815Y-87388815D01*
X122069463Y-87485506D01*
X122010498Y-87595820D01*
X121974188Y-87715518D01*
X121961928Y-87840000D01*
X119482000Y-87840000D01*
X119482000Y-83325000D01*
X119479560Y-83300224D01*
X119472333Y-83276399D01*
X119460597Y-83254443D01*
X119444803Y-83235197D01*
X119425447Y-83219330D01*
X117993304Y-82264568D01*
X117958158Y-82229422D01*
X117936711Y-82203289D01*
X117832407Y-82117688D01*
X117713406Y-82054081D01*
X117647656Y-82034136D01*
X117520447Y-81949330D01*
X117498478Y-81937617D01*
X117474646Y-81930414D01*
X117450000Y-81928000D01*
X114910000Y-81928000D01*
X114885224Y-81930440D01*
X114861399Y-81937667D01*
X114839553Y-81949330D01*
X114712344Y-82034136D01*
X114646594Y-82054081D01*
X114527593Y-82117688D01*
X114527591Y-82117689D01*
X114527592Y-82117689D01*
X114449423Y-82181840D01*
X114449417Y-82181846D01*
X114423289Y-82203289D01*
X114401846Y-82229417D01*
X114366693Y-82264570D01*
X112934553Y-83219330D01*
X112915291Y-83235104D01*
X112899477Y-83254332D01*
X112887718Y-83276276D01*
X112880466Y-83300093D01*
X112878000Y-83325000D01*
X112878000Y-102248000D01*
X75592606Y-102248000D01*
X74791215Y-101446609D01*
X75034495Y-101495000D01*
X75425505Y-101495000D01*
X75809003Y-101418718D01*
X76170250Y-101269085D01*
X76495364Y-101051851D01*
X76771851Y-100775364D01*
X76989085Y-100450250D01*
X77138718Y-100089003D01*
X77215000Y-99705505D01*
X77215000Y-99314495D01*
X77138718Y-98930997D01*
X77076174Y-98780000D01*
X91831928Y-98780000D01*
X91844188Y-98904482D01*
X91880498Y-99024180D01*
X91939463Y-99134494D01*
X92018815Y-99231185D01*
X92115506Y-99310537D01*
X92225820Y-99369502D01*
X92345518Y-99405812D01*
X92470000Y-99418072D01*
X93034250Y-99415000D01*
X93193000Y-99256250D01*
X93193000Y-98057000D01*
X91993750Y-98057000D01*
X91835000Y-98215750D01*
X91831928Y-98780000D01*
X77076174Y-98780000D01*
X76989085Y-98569750D01*
X76771851Y-98244636D01*
X76495364Y-97968149D01*
X76170250Y-97750915D01*
X75809003Y-97601282D01*
X75425505Y-97525000D01*
X75034495Y-97525000D01*
X74650997Y-97601282D01*
X74289750Y-97750915D01*
X73964636Y-97968149D01*
X73688149Y-98244636D01*
X73470915Y-98569750D01*
X73321282Y-98930997D01*
X73245000Y-99314495D01*
X73245000Y-99705505D01*
X73293391Y-99948785D01*
X72492000Y-99147394D01*
X72492000Y-97080000D01*
X91831928Y-97080000D01*
X91835000Y-97644250D01*
X91993750Y-97803000D01*
X93193000Y-97803000D01*
X93193000Y-96603750D01*
X93034250Y-96445000D01*
X92470000Y-96441928D01*
X92345518Y-96454188D01*
X92225820Y-96490498D01*
X92115506Y-96549463D01*
X92018815Y-96628815D01*
X91939463Y-96725506D01*
X91880498Y-96835820D01*
X91844188Y-96955518D01*
X91831928Y-97080000D01*
X72492000Y-97080000D01*
X72492000Y-84722000D01*
X76175000Y-84722000D01*
X76199776Y-84719560D01*
X76223601Y-84712333D01*
X76245557Y-84700597D01*
X76264803Y-84684803D01*
X78169803Y-82779803D01*
X78185597Y-82760557D01*
X78197333Y-82738601D01*
X78204560Y-82714776D01*
X78207000Y-82690000D01*
X78207000Y-66815000D01*
X78204560Y-66790224D01*
X78197333Y-66766399D01*
X78185597Y-66744443D01*
X78169803Y-66725197D01*
X76899803Y-65455197D01*
X76880557Y-65439403D01*
X76858601Y-65427667D01*
X76834776Y-65420440D01*
X76810000Y-65418000D01*
X73127000Y-65418000D01*
X73127000Y-54750000D01*
X74801444Y-54750000D01*
X74805000Y-54786105D01*
X74805001Y-62185887D01*
X74801444Y-62222002D01*
X74815635Y-62366087D01*
X74819418Y-62378556D01*
X74857664Y-62504635D01*
X74925914Y-62632322D01*
X75017763Y-62744240D01*
X75045808Y-62767256D01*
X77365649Y-65087098D01*
X77397663Y-65192633D01*
X77465913Y-65320320D01*
X77557763Y-65432238D01*
X77585808Y-65455254D01*
X82425000Y-70294447D01*
X82425001Y-83655552D01*
X80823554Y-85257000D01*
X77608105Y-85257000D01*
X77572000Y-85253444D01*
X77427914Y-85267635D01*
X77385886Y-85280384D01*
X77289367Y-85309663D01*
X77161680Y-85377913D01*
X77049762Y-85469762D01*
X77026746Y-85497807D01*
X76061808Y-86462746D01*
X76033762Y-86485763D01*
X75941913Y-86597681D01*
X75873663Y-86725368D01*
X75856292Y-86782633D01*
X75831635Y-86863915D01*
X75817444Y-87008000D01*
X75821000Y-87044105D01*
X75821000Y-87176983D01*
X75577495Y-87339688D01*
X75363688Y-87553495D01*
X75195701Y-87804905D01*
X75079989Y-88084257D01*
X75021000Y-88380816D01*
X75021000Y-88683184D01*
X75079989Y-88979743D01*
X75195701Y-89259095D01*
X75363688Y-89510505D01*
X75577495Y-89724312D01*
X75828905Y-89892299D01*
X76108257Y-90008011D01*
X76404816Y-90067000D01*
X76707184Y-90067000D01*
X77003743Y-90008011D01*
X77283095Y-89892299D01*
X77534505Y-89724312D01*
X77600944Y-89657873D01*
X77606498Y-89676180D01*
X77665463Y-89786494D01*
X77744815Y-89883185D01*
X77841506Y-89962537D01*
X77951820Y-90021502D01*
X78071518Y-90057812D01*
X78196000Y-90070072D01*
X79996000Y-90070072D01*
X80120482Y-90057812D01*
X80240180Y-90021502D01*
X80350494Y-89962537D01*
X80447185Y-89883185D01*
X80526537Y-89786494D01*
X80585502Y-89676180D01*
X80621812Y-89556482D01*
X80634072Y-89432000D01*
X80634072Y-89267000D01*
X81091895Y-89267000D01*
X81128000Y-89270556D01*
X81164105Y-89267000D01*
X81272085Y-89256365D01*
X81410633Y-89214337D01*
X81515043Y-89158529D01*
X81748665Y-89205000D01*
X82031335Y-89205000D01*
X82308574Y-89149853D01*
X82569727Y-89041680D01*
X82804759Y-88884637D01*
X83004637Y-88684759D01*
X83161680Y-88449727D01*
X83269853Y-88188574D01*
X83325000Y-87911335D01*
X83325000Y-87770000D01*
X88068057Y-87770000D01*
X88095764Y-88051309D01*
X88177818Y-88321808D01*
X88311068Y-88571101D01*
X88490392Y-88789608D01*
X88708899Y-88968932D01*
X88958192Y-89102182D01*
X89228691Y-89184236D01*
X89439508Y-89205000D01*
X89580492Y-89205000D01*
X89791309Y-89184236D01*
X90061808Y-89102182D01*
X90311101Y-88968932D01*
X90529608Y-88789608D01*
X90708932Y-88571101D01*
X90842182Y-88321808D01*
X90924236Y-88051309D01*
X90951943Y-87770000D01*
X90924236Y-87488691D01*
X90842182Y-87218192D01*
X90708932Y-86968899D01*
X90529608Y-86750392D01*
X90311101Y-86571068D01*
X90061808Y-86437818D01*
X89791309Y-86355764D01*
X89580492Y-86335000D01*
X89439508Y-86335000D01*
X89228691Y-86355764D01*
X88958192Y-86437818D01*
X88708899Y-86571068D01*
X88490392Y-86750392D01*
X88311068Y-86968899D01*
X88177818Y-87218192D01*
X88095764Y-87488691D01*
X88068057Y-87770000D01*
X83325000Y-87770000D01*
X83325000Y-87628665D01*
X83269853Y-87351426D01*
X83161680Y-87090273D01*
X83004637Y-86855241D01*
X82804759Y-86655363D01*
X82569727Y-86498320D01*
X82308574Y-86390147D01*
X82031335Y-86335000D01*
X81824446Y-86335000D01*
X83654194Y-84505253D01*
X83682238Y-84482238D01*
X83774087Y-84370320D01*
X83842337Y-84242633D01*
X83884365Y-84104085D01*
X83895000Y-83996105D01*
X83898556Y-83960000D01*
X83895000Y-83923895D01*
X83895000Y-70410000D01*
X84211928Y-70410000D01*
X84215000Y-70974250D01*
X84373750Y-71133000D01*
X85573000Y-71133000D01*
X85573000Y-69933750D01*
X85827000Y-69933750D01*
X85827000Y-71133000D01*
X87026250Y-71133000D01*
X87185000Y-70974250D01*
X87188072Y-70410000D01*
X87175812Y-70285518D01*
X87139502Y-70165820D01*
X87080537Y-70055506D01*
X87001185Y-69958815D01*
X86904494Y-69879463D01*
X86794180Y-69820498D01*
X86674482Y-69784188D01*
X86550000Y-69771928D01*
X85985750Y-69775000D01*
X85827000Y-69933750D01*
X85573000Y-69933750D01*
X85414250Y-69775000D01*
X84850000Y-69771928D01*
X84725518Y-69784188D01*
X84605820Y-69820498D01*
X84495506Y-69879463D01*
X84398815Y-69958815D01*
X84319463Y-70055506D01*
X84260498Y-70165820D01*
X84224188Y-70285518D01*
X84211928Y-70410000D01*
X83895000Y-70410000D01*
X83895000Y-70026105D01*
X83898556Y-69990000D01*
X83884365Y-69845915D01*
X83842337Y-69707368D01*
X83842337Y-69707367D01*
X83774087Y-69579680D01*
X83730117Y-69526103D01*
X83705253Y-69495806D01*
X83705250Y-69495803D01*
X83682237Y-69467762D01*
X83654197Y-69444751D01*
X78794351Y-64584905D01*
X78762337Y-64479369D01*
X78720916Y-64401876D01*
X78783411Y-64375990D01*
X79026632Y-64213475D01*
X79233475Y-64006632D01*
X79395990Y-63763411D01*
X79507932Y-63493158D01*
X79565000Y-63206260D01*
X79565000Y-62913740D01*
X79507932Y-62626842D01*
X79395990Y-62356589D01*
X79233475Y-62113368D01*
X79026632Y-61906525D01*
X78783411Y-61744010D01*
X78513158Y-61632068D01*
X78226260Y-61575000D01*
X77933740Y-61575000D01*
X77646842Y-61632068D01*
X77376589Y-61744010D01*
X77133368Y-61906525D01*
X76926525Y-62113368D01*
X76764010Y-62356589D01*
X76749372Y-62391928D01*
X76275000Y-61917556D01*
X76275000Y-58413740D01*
X76595000Y-58413740D01*
X76595000Y-58706260D01*
X76652068Y-58993158D01*
X76764010Y-59263411D01*
X76926525Y-59506632D01*
X77133368Y-59713475D01*
X77376589Y-59875990D01*
X77646842Y-59987932D01*
X77933740Y-60045000D01*
X78226260Y-60045000D01*
X78513158Y-59987932D01*
X78783411Y-59875990D01*
X79026632Y-59713475D01*
X79233475Y-59506632D01*
X79395990Y-59263411D01*
X79507932Y-58993158D01*
X79565000Y-58706260D01*
X79565000Y-58413740D01*
X79507932Y-58126842D01*
X79395990Y-57856589D01*
X79233475Y-57613368D01*
X79026632Y-57406525D01*
X78783411Y-57244010D01*
X78513158Y-57132068D01*
X78226260Y-57075000D01*
X77933740Y-57075000D01*
X77646842Y-57132068D01*
X77376589Y-57244010D01*
X77133368Y-57406525D01*
X76926525Y-57613368D01*
X76764010Y-57856589D01*
X76652068Y-58126842D01*
X76595000Y-58413740D01*
X76275000Y-58413740D01*
X76275000Y-55054446D01*
X78384447Y-52945000D01*
X79131928Y-52945000D01*
X79131928Y-54330000D01*
X79144188Y-54454482D01*
X79180498Y-54574180D01*
X79239463Y-54684494D01*
X79318815Y-54781185D01*
X79415506Y-54860537D01*
X79525820Y-54919502D01*
X79645518Y-54955812D01*
X79770000Y-54968072D01*
X79918079Y-54968072D01*
X79937664Y-55032633D01*
X80005914Y-55160320D01*
X80097763Y-55272238D01*
X80125807Y-55295253D01*
X82425000Y-57594447D01*
X82425001Y-61603885D01*
X82421444Y-61640000D01*
X82435635Y-61784085D01*
X82465169Y-61881444D01*
X82477664Y-61922633D01*
X82545914Y-62050320D01*
X82637763Y-62162238D01*
X82665808Y-62185254D01*
X83144656Y-62664103D01*
X83095000Y-62913740D01*
X83095000Y-63206260D01*
X83152068Y-63493158D01*
X83264010Y-63763411D01*
X83426525Y-64006632D01*
X83633368Y-64213475D01*
X83876589Y-64375990D01*
X84146842Y-64487932D01*
X84433740Y-64545000D01*
X84726260Y-64545000D01*
X85013158Y-64487932D01*
X85283411Y-64375990D01*
X85526632Y-64213475D01*
X85733475Y-64006632D01*
X85895990Y-63763411D01*
X86007932Y-63493158D01*
X86065000Y-63206260D01*
X86065000Y-62913740D01*
X86007932Y-62626842D01*
X85895990Y-62356589D01*
X85733475Y-62113368D01*
X85526632Y-61906525D01*
X85283411Y-61744010D01*
X85013158Y-61632068D01*
X84726260Y-61575000D01*
X84433740Y-61575000D01*
X84184103Y-61624656D01*
X83895000Y-61335554D01*
X83895000Y-59883616D01*
X84146842Y-59987932D01*
X84433740Y-60045000D01*
X84726260Y-60045000D01*
X85013158Y-59987932D01*
X85283411Y-59875990D01*
X85526632Y-59713475D01*
X85733475Y-59506632D01*
X85874883Y-59295000D01*
X87005252Y-59295000D01*
X87125363Y-59474759D01*
X87325241Y-59674637D01*
X87560273Y-59831680D01*
X87821426Y-59939853D01*
X88098665Y-59995000D01*
X88381335Y-59995000D01*
X88658574Y-59939853D01*
X88919727Y-59831680D01*
X89154759Y-59674637D01*
X89354637Y-59474759D01*
X89511680Y-59239727D01*
X89619853Y-58978574D01*
X89675000Y-58701335D01*
X89675000Y-58418665D01*
X89619853Y-58141426D01*
X89511680Y-57880273D01*
X89354637Y-57645241D01*
X89154759Y-57445363D01*
X88919727Y-57288320D01*
X88658574Y-57180147D01*
X88381335Y-57125000D01*
X88098665Y-57125000D01*
X87821426Y-57180147D01*
X87560273Y-57288320D01*
X87325241Y-57445363D01*
X87125363Y-57645241D01*
X87005252Y-57825000D01*
X86327621Y-57825000D01*
X86382337Y-57722633D01*
X86415482Y-57613368D01*
X86424365Y-57584086D01*
X86431982Y-57506747D01*
X86435000Y-57476105D01*
X86435000Y-57476098D01*
X86438555Y-57440001D01*
X86435000Y-57403904D01*
X86435000Y-54770957D01*
X86529014Y-54720706D01*
X86755134Y-54535134D01*
X86940706Y-54309014D01*
X86970000Y-54254209D01*
X86999294Y-54309014D01*
X87184866Y-54535134D01*
X87410986Y-54720706D01*
X87668966Y-54858599D01*
X87948889Y-54943513D01*
X88167050Y-54965000D01*
X88312950Y-54965000D01*
X88531111Y-54943513D01*
X88811034Y-54858599D01*
X89069014Y-54720706D01*
X89295134Y-54535134D01*
X89480706Y-54309014D01*
X89510000Y-54254209D01*
X89539294Y-54309014D01*
X89724866Y-54535134D01*
X89950986Y-54720706D01*
X90208966Y-54858599D01*
X90488889Y-54943513D01*
X90707050Y-54965000D01*
X90852950Y-54965000D01*
X91071111Y-54943513D01*
X91351034Y-54858599D01*
X91609014Y-54720706D01*
X91724489Y-54625938D01*
X92222745Y-55124194D01*
X92245761Y-55152239D01*
X92357679Y-55244088D01*
X92485366Y-55312338D01*
X92623914Y-55354366D01*
X92767999Y-55368557D01*
X92804104Y-55365001D01*
X93253557Y-55365001D01*
X95183189Y-57294634D01*
X95058899Y-57361068D01*
X94840392Y-57540392D01*
X94661068Y-57758899D01*
X94527818Y-58008192D01*
X94445764Y-58278691D01*
X94418057Y-58560000D01*
X94445764Y-58841309D01*
X94527818Y-59111808D01*
X94661068Y-59361101D01*
X94840392Y-59579608D01*
X95058899Y-59758932D01*
X95308192Y-59892182D01*
X95578691Y-59974236D01*
X95789508Y-59995000D01*
X95930492Y-59995000D01*
X96141309Y-59974236D01*
X96395001Y-59897280D01*
X96395000Y-64605553D01*
X87935554Y-73065000D01*
X86990957Y-73065000D01*
X86940706Y-72970986D01*
X86755134Y-72744866D01*
X86725313Y-72720393D01*
X86794180Y-72699502D01*
X86904494Y-72640537D01*
X87001185Y-72561185D01*
X87080537Y-72464494D01*
X87139502Y-72354180D01*
X87175812Y-72234482D01*
X87188072Y-72110000D01*
X87185000Y-71545750D01*
X87026250Y-71387000D01*
X85827000Y-71387000D01*
X85827000Y-71407000D01*
X85573000Y-71407000D01*
X85573000Y-71387000D01*
X84373750Y-71387000D01*
X84215000Y-71545750D01*
X84211928Y-72110000D01*
X84224188Y-72234482D01*
X84260498Y-72354180D01*
X84319463Y-72464494D01*
X84398815Y-72561185D01*
X84495506Y-72640537D01*
X84605820Y-72699502D01*
X84674687Y-72720393D01*
X84644866Y-72744866D01*
X84459294Y-72970986D01*
X84321401Y-73228966D01*
X84236487Y-73508889D01*
X84207815Y-73800000D01*
X84236487Y-74091111D01*
X84321401Y-74371034D01*
X84459294Y-74629014D01*
X84644866Y-74855134D01*
X84870986Y-75040706D01*
X84925791Y-75070000D01*
X84870986Y-75099294D01*
X84644866Y-75284866D01*
X84459294Y-75510986D01*
X84321401Y-75768966D01*
X84236487Y-76048889D01*
X84207815Y-76340000D01*
X84236487Y-76631111D01*
X84321401Y-76911034D01*
X84459294Y-77169014D01*
X84644866Y-77395134D01*
X84870986Y-77580706D01*
X84925791Y-77610000D01*
X84870986Y-77639294D01*
X84644866Y-77824866D01*
X84459294Y-78050986D01*
X84321401Y-78308966D01*
X84236487Y-78588889D01*
X84207815Y-78880000D01*
X84236487Y-79171111D01*
X84321401Y-79451034D01*
X84459294Y-79709014D01*
X84644866Y-79935134D01*
X84870986Y-80120706D01*
X85128966Y-80258599D01*
X85408889Y-80343513D01*
X85627050Y-80365000D01*
X85772950Y-80365000D01*
X85991111Y-80343513D01*
X86271034Y-80258599D01*
X86529014Y-80120706D01*
X86755134Y-79935134D01*
X86940706Y-79709014D01*
X87078599Y-79451034D01*
X87163513Y-79171111D01*
X87192185Y-78880000D01*
X88068057Y-78880000D01*
X88095764Y-79161309D01*
X88177818Y-79431808D01*
X88311068Y-79681101D01*
X88490392Y-79899608D01*
X88708899Y-80078932D01*
X88958192Y-80212182D01*
X89228691Y-80294236D01*
X89439508Y-80315000D01*
X89580492Y-80315000D01*
X89791309Y-80294236D01*
X90061808Y-80212182D01*
X90311101Y-80078932D01*
X90529608Y-79899608D01*
X90708932Y-79681101D01*
X90842182Y-79431808D01*
X90924236Y-79161309D01*
X90951943Y-78880000D01*
X90924236Y-78598691D01*
X90842182Y-78328192D01*
X90708932Y-78078899D01*
X90529608Y-77860392D01*
X90311101Y-77681068D01*
X90061808Y-77547818D01*
X89791309Y-77465764D01*
X89580492Y-77445000D01*
X89439508Y-77445000D01*
X89228691Y-77465764D01*
X88958192Y-77547818D01*
X88708899Y-77681068D01*
X88490392Y-77860392D01*
X88311068Y-78078899D01*
X88177818Y-78328192D01*
X88095764Y-78598691D01*
X88068057Y-78880000D01*
X87192185Y-78880000D01*
X87163513Y-78588889D01*
X87078599Y-78308966D01*
X86940706Y-78050986D01*
X86755134Y-77824866D01*
X86529014Y-77639294D01*
X86474209Y-77610000D01*
X86529014Y-77580706D01*
X86755134Y-77395134D01*
X86940706Y-77169014D01*
X87078599Y-76911034D01*
X87163513Y-76631111D01*
X87192185Y-76340000D01*
X87163513Y-76048889D01*
X87132568Y-75946878D01*
X87274447Y-75805000D01*
X88275252Y-75805000D01*
X88395363Y-75984759D01*
X88595241Y-76184637D01*
X88830273Y-76341680D01*
X89091426Y-76449853D01*
X89368665Y-76505000D01*
X89651335Y-76505000D01*
X89928574Y-76449853D01*
X90189727Y-76341680D01*
X90424759Y-76184637D01*
X90624637Y-75984759D01*
X90781680Y-75749727D01*
X90889853Y-75488574D01*
X90945000Y-75211335D01*
X90945000Y-74928665D01*
X90889853Y-74651426D01*
X90781680Y-74390273D01*
X90624637Y-74155241D01*
X90424759Y-73955363D01*
X90189727Y-73798320D01*
X89928574Y-73690147D01*
X89651335Y-73635000D01*
X89444446Y-73635000D01*
X97624198Y-65455249D01*
X97652237Y-65432238D01*
X97665001Y-65416686D01*
X97665001Y-73495552D01*
X97483032Y-73677521D01*
X97411309Y-73655764D01*
X97200492Y-73635000D01*
X97059508Y-73635000D01*
X96848691Y-73655764D01*
X96578192Y-73737818D01*
X96328899Y-73871068D01*
X96110392Y-74050392D01*
X95931068Y-74268899D01*
X95797818Y-74518192D01*
X95715764Y-74788691D01*
X95688057Y-75070000D01*
X95715764Y-75351309D01*
X95797818Y-75621808D01*
X95931068Y-75871101D01*
X96110392Y-76089608D01*
X96328899Y-76268932D01*
X96395000Y-76304264D01*
X96395001Y-77645252D01*
X96215241Y-77765363D01*
X96015363Y-77965241D01*
X95858320Y-78200273D01*
X95750147Y-78461426D01*
X95695000Y-78738665D01*
X95695000Y-79021335D01*
X95750147Y-79298574D01*
X95858320Y-79559727D01*
X96015363Y-79794759D01*
X96215241Y-79994637D01*
X96450273Y-80151680D01*
X96711426Y-80259853D01*
X96988665Y-80315000D01*
X97271335Y-80315000D01*
X97548574Y-80259853D01*
X97809727Y-80151680D01*
X98044759Y-79994637D01*
X98244637Y-79794759D01*
X98401680Y-79559727D01*
X98509853Y-79298574D01*
X98565000Y-79021335D01*
X98565000Y-78738665D01*
X98509853Y-78461426D01*
X98401680Y-78200273D01*
X98244637Y-77965241D01*
X98044759Y-77765363D01*
X97865000Y-77645252D01*
X97865000Y-76304264D01*
X97931101Y-76268932D01*
X98149608Y-76089608D01*
X98328932Y-75871101D01*
X98462182Y-75621808D01*
X98544236Y-75351309D01*
X98571943Y-75070000D01*
X98544236Y-74788691D01*
X98522479Y-74716968D01*
X98894194Y-74345253D01*
X98922238Y-74322238D01*
X99014087Y-74210320D01*
X99082337Y-74082633D01*
X99124365Y-73944085D01*
X99135000Y-73836105D01*
X99135000Y-73836096D01*
X99138555Y-73800001D01*
X99135000Y-73763906D01*
X99135000Y-54770957D01*
X99229014Y-54720706D01*
X99344489Y-54625938D01*
X99772998Y-55054447D01*
X99772999Y-83325554D01*
X95365808Y-87732746D01*
X95337762Y-87755763D01*
X95245913Y-87867681D01*
X95177663Y-87995368D01*
X95160694Y-88051309D01*
X95135635Y-88133915D01*
X95121444Y-88278000D01*
X95125000Y-88314105D01*
X95125001Y-96639042D01*
X95030986Y-96689294D01*
X94804866Y-96874866D01*
X94780393Y-96904687D01*
X94759502Y-96835820D01*
X94700537Y-96725506D01*
X94621185Y-96628815D01*
X94524494Y-96549463D01*
X94414180Y-96490498D01*
X94294482Y-96454188D01*
X94170000Y-96441928D01*
X93605750Y-96445000D01*
X93447000Y-96603750D01*
X93447000Y-97803000D01*
X93467000Y-97803000D01*
X93467000Y-98057000D01*
X93447000Y-98057000D01*
X93447000Y-99256250D01*
X93605750Y-99415000D01*
X94170000Y-99418072D01*
X94294482Y-99405812D01*
X94414180Y-99369502D01*
X94524494Y-99310537D01*
X94621185Y-99231185D01*
X94700537Y-99134494D01*
X94759502Y-99024180D01*
X94780393Y-98955313D01*
X94804866Y-98985134D01*
X95030986Y-99170706D01*
X95288966Y-99308599D01*
X95568889Y-99393513D01*
X95787050Y-99415000D01*
X95932950Y-99415000D01*
X96151111Y-99393513D01*
X96431034Y-99308599D01*
X96689014Y-99170706D01*
X96915134Y-98985134D01*
X97100706Y-98759014D01*
X97130000Y-98704209D01*
X97159294Y-98759014D01*
X97344866Y-98985134D01*
X97570986Y-99170706D01*
X97828966Y-99308599D01*
X98108889Y-99393513D01*
X98327050Y-99415000D01*
X98472950Y-99415000D01*
X98691111Y-99393513D01*
X98971034Y-99308599D01*
X99229014Y-99170706D01*
X99455134Y-98985134D01*
X99640706Y-98759014D01*
X99670000Y-98704209D01*
X99699294Y-98759014D01*
X99884866Y-98985134D01*
X100110986Y-99170706D01*
X100368966Y-99308599D01*
X100648889Y-99393513D01*
X100867050Y-99415000D01*
X101012950Y-99415000D01*
X101231111Y-99393513D01*
X101511034Y-99308599D01*
X101769014Y-99170706D01*
X101995134Y-98985134D01*
X102180706Y-98759014D01*
X102318599Y-98501034D01*
X102403513Y-98221111D01*
X102432185Y-97930000D01*
X102403513Y-97638889D01*
X102318599Y-97358966D01*
X102180706Y-97100986D01*
X101995134Y-96874866D01*
X101769014Y-96689294D01*
X101511034Y-96551401D01*
X101231111Y-96466487D01*
X101012950Y-96445000D01*
X100867050Y-96445000D01*
X100648889Y-96466487D01*
X100368966Y-96551401D01*
X100110986Y-96689294D01*
X99884866Y-96874866D01*
X99699294Y-97100986D01*
X99670000Y-97155791D01*
X99640706Y-97100986D01*
X99455134Y-96874866D01*
X99229014Y-96689294D01*
X99135000Y-96639043D01*
X99135000Y-95354748D01*
X99314759Y-95234637D01*
X99514637Y-95034759D01*
X99671680Y-94799727D01*
X99779853Y-94538574D01*
X99835000Y-94261335D01*
X99835000Y-93978665D01*
X99779853Y-93701426D01*
X99671680Y-93440273D01*
X99514637Y-93205241D01*
X99314759Y-93005363D01*
X99079727Y-92848320D01*
X98818574Y-92740147D01*
X98541335Y-92685000D01*
X98258665Y-92685000D01*
X97981426Y-92740147D01*
X97720273Y-92848320D01*
X97485241Y-93005363D01*
X97285363Y-93205241D01*
X97128320Y-93440273D01*
X97020147Y-93701426D01*
X96965000Y-93978665D01*
X96965000Y-94261335D01*
X97020147Y-94538574D01*
X97128320Y-94799727D01*
X97285363Y-95034759D01*
X97485241Y-95234637D01*
X97665000Y-95354748D01*
X97665001Y-96639042D01*
X97570986Y-96689294D01*
X97344866Y-96874866D01*
X97159294Y-97100986D01*
X97130000Y-97155791D01*
X97100706Y-97100986D01*
X96915134Y-96874866D01*
X96689014Y-96689294D01*
X96595000Y-96639043D01*
X96595000Y-89040000D01*
X96958057Y-89040000D01*
X96985764Y-89321309D01*
X97067818Y-89591808D01*
X97201068Y-89841101D01*
X97380392Y-90059608D01*
X97598899Y-90238932D01*
X97848192Y-90372182D01*
X98118691Y-90454236D01*
X98329508Y-90475000D01*
X98470492Y-90475000D01*
X98681309Y-90454236D01*
X98951808Y-90372182D01*
X99201101Y-90238932D01*
X99419608Y-90059608D01*
X99598932Y-89841101D01*
X99732182Y-89591808D01*
X99814236Y-89321309D01*
X99841943Y-89040000D01*
X99814236Y-88758691D01*
X99732182Y-88488192D01*
X99598932Y-88238899D01*
X99419608Y-88020392D01*
X99201101Y-87841068D01*
X98951808Y-87707818D01*
X98681309Y-87625764D01*
X98470492Y-87605000D01*
X98329508Y-87605000D01*
X98118691Y-87625764D01*
X97848192Y-87707818D01*
X97598899Y-87841068D01*
X97380392Y-88020392D01*
X97201068Y-88238899D01*
X97067818Y-88488192D01*
X96985764Y-88758691D01*
X96958057Y-89040000D01*
X96595000Y-89040000D01*
X96595000Y-88582446D01*
X101002191Y-84175256D01*
X101030236Y-84152240D01*
X101122085Y-84040322D01*
X101190335Y-83912635D01*
X101232363Y-83774087D01*
X101242998Y-83666107D01*
X101246554Y-83630002D01*
X101242998Y-83593897D01*
X101242998Y-54939907D01*
X101475000Y-54869530D01*
X101475001Y-82653885D01*
X101471444Y-82690000D01*
X101485635Y-82834085D01*
X101521832Y-82953407D01*
X101527664Y-82972633D01*
X101595914Y-83100320D01*
X101687763Y-83212238D01*
X101715807Y-83235253D01*
X105285000Y-86804447D01*
X105285001Y-87805252D01*
X105105241Y-87925363D01*
X104905363Y-88125241D01*
X104748320Y-88360273D01*
X104640147Y-88621426D01*
X104585000Y-88898665D01*
X104585000Y-89181335D01*
X104640147Y-89458574D01*
X104748320Y-89719727D01*
X104905363Y-89954759D01*
X105105241Y-90154637D01*
X105285000Y-90274748D01*
X105285001Y-92885736D01*
X105218899Y-92921068D01*
X105000392Y-93100392D01*
X104821068Y-93318899D01*
X104687818Y-93568192D01*
X104605764Y-93838691D01*
X104578057Y-94120000D01*
X104605764Y-94401309D01*
X104687818Y-94671808D01*
X104821068Y-94921101D01*
X105000392Y-95139608D01*
X105218899Y-95318932D01*
X105468192Y-95452182D01*
X105738691Y-95534236D01*
X105949508Y-95555000D01*
X106090492Y-95555000D01*
X106301309Y-95534236D01*
X106571808Y-95452182D01*
X106821101Y-95318932D01*
X107039608Y-95139608D01*
X107218932Y-94921101D01*
X107352182Y-94671808D01*
X107434236Y-94401309D01*
X107461943Y-94120000D01*
X107434236Y-93838691D01*
X107352182Y-93568192D01*
X107218932Y-93318899D01*
X107039608Y-93100392D01*
X106821101Y-92921068D01*
X106755000Y-92885736D01*
X106755000Y-92086686D01*
X106767763Y-92102238D01*
X106795808Y-92125254D01*
X108014746Y-93344193D01*
X108037762Y-93372238D01*
X108149680Y-93464087D01*
X108277367Y-93532337D01*
X108415915Y-93574365D01*
X108523895Y-93585000D01*
X108523904Y-93585000D01*
X108539884Y-93586574D01*
X108589294Y-93679014D01*
X108774866Y-93905134D01*
X109000986Y-94090706D01*
X109258966Y-94228599D01*
X109538889Y-94313513D01*
X109757050Y-94335000D01*
X109902950Y-94335000D01*
X110121111Y-94313513D01*
X110401034Y-94228599D01*
X110659014Y-94090706D01*
X110885134Y-93905134D01*
X111070706Y-93679014D01*
X111208599Y-93421034D01*
X111293513Y-93141111D01*
X111322185Y-92850000D01*
X111293513Y-92558889D01*
X111208599Y-92278966D01*
X111070706Y-92020986D01*
X110885134Y-91794866D01*
X110855313Y-91770393D01*
X110924180Y-91749502D01*
X111034494Y-91690537D01*
X111131185Y-91611185D01*
X111210537Y-91514494D01*
X111269502Y-91404180D01*
X111305812Y-91284482D01*
X111318072Y-91160000D01*
X111318072Y-89460000D01*
X111305812Y-89335518D01*
X111269502Y-89215820D01*
X111210537Y-89105506D01*
X111131185Y-89008815D01*
X111034494Y-88929463D01*
X110924180Y-88870498D01*
X110804482Y-88834188D01*
X110680000Y-88821928D01*
X110565000Y-88821928D01*
X110565000Y-82994446D01*
X113944447Y-79615000D01*
X125277895Y-79615000D01*
X125314000Y-79618556D01*
X125350105Y-79615000D01*
X125458085Y-79604365D01*
X125596633Y-79562337D01*
X125724320Y-79494087D01*
X125836238Y-79402238D01*
X125859259Y-79374187D01*
X130046968Y-75186479D01*
X130118691Y-75208236D01*
X130329508Y-75229000D01*
X130470492Y-75229000D01*
X130681309Y-75208236D01*
X130951808Y-75126182D01*
X131201101Y-74992932D01*
X131419608Y-74813608D01*
X131598932Y-74595101D01*
X131670000Y-74462142D01*
X131741068Y-74595101D01*
X131920392Y-74813608D01*
X132138899Y-74992932D01*
X132388192Y-75126182D01*
X132658691Y-75208236D01*
X132869508Y-75229000D01*
X133010492Y-75229000D01*
X133221309Y-75208236D01*
X133491808Y-75126182D01*
X133741101Y-74992932D01*
X133959608Y-74813608D01*
X134138932Y-74595101D01*
X134272182Y-74345808D01*
X134354236Y-74075309D01*
X134381943Y-73794000D01*
X134354236Y-73512691D01*
X134272182Y-73242192D01*
X134138932Y-72992899D01*
X133959608Y-72774392D01*
X133741101Y-72595068D01*
X133491808Y-72461818D01*
X133221309Y-72379764D01*
X133010492Y-72359000D01*
X132869508Y-72359000D01*
X132658691Y-72379764D01*
X132388192Y-72461818D01*
X132138899Y-72595068D01*
X131920392Y-72774392D01*
X131741068Y-72992899D01*
X131670000Y-73125858D01*
X131598932Y-72992899D01*
X131419608Y-72774392D01*
X131201101Y-72595068D01*
X130951808Y-72461818D01*
X130681309Y-72379764D01*
X130470492Y-72359000D01*
X130329508Y-72359000D01*
X130118691Y-72379764D01*
X129848192Y-72461818D01*
X129598899Y-72595068D01*
X129380392Y-72774392D01*
X129201068Y-72992899D01*
X129130000Y-73125858D01*
X129058932Y-72992899D01*
X128879608Y-72774392D01*
X128661101Y-72595068D01*
X128411808Y-72461818D01*
X128141309Y-72379764D01*
X127930492Y-72359000D01*
X127789508Y-72359000D01*
X127578691Y-72379764D01*
X127308192Y-72461818D01*
X127058899Y-72595068D01*
X126840392Y-72774392D01*
X126661068Y-72992899D01*
X126590000Y-73125858D01*
X126518932Y-72992899D01*
X126339608Y-72774392D01*
X126121101Y-72595068D01*
X125871808Y-72461818D01*
X125601309Y-72379764D01*
X125390492Y-72359000D01*
X125249508Y-72359000D01*
X125038691Y-72379764D01*
X124768192Y-72461818D01*
X124518899Y-72595068D01*
X124300392Y-72774392D01*
X124121068Y-72992899D01*
X124050000Y-73125858D01*
X123978932Y-72992899D01*
X123799608Y-72774392D01*
X123581101Y-72595068D01*
X123331808Y-72461818D01*
X123061309Y-72379764D01*
X122850492Y-72359000D01*
X122709508Y-72359000D01*
X122498691Y-72379764D01*
X122228192Y-72461818D01*
X121978899Y-72595068D01*
X121760392Y-72774392D01*
X121581068Y-72992899D01*
X121510000Y-73125858D01*
X121438932Y-72992899D01*
X121259608Y-72774392D01*
X121041101Y-72595068D01*
X120791808Y-72461818D01*
X120521309Y-72379764D01*
X120310492Y-72359000D01*
X120169508Y-72359000D01*
X119958691Y-72379764D01*
X119688192Y-72461818D01*
X119438899Y-72595068D01*
X119220392Y-72774392D01*
X119041068Y-72992899D01*
X118970000Y-73125858D01*
X118898932Y-72992899D01*
X118719608Y-72774392D01*
X118501101Y-72595068D01*
X118435000Y-72559736D01*
X118435000Y-62656105D01*
X118438556Y-62620000D01*
X118424365Y-62475915D01*
X118382337Y-62337366D01*
X118314087Y-62209680D01*
X118245253Y-62125806D01*
X118222238Y-62097762D01*
X118194193Y-62074746D01*
X115737758Y-59618311D01*
X115961101Y-59498932D01*
X116179608Y-59319608D01*
X116358932Y-59101101D01*
X116430000Y-58968142D01*
X116501068Y-59101101D01*
X116680392Y-59319608D01*
X116898899Y-59498932D01*
X117148192Y-59632182D01*
X117418691Y-59714236D01*
X117629508Y-59735000D01*
X117770492Y-59735000D01*
X117981309Y-59714236D01*
X118251808Y-59632182D01*
X118501101Y-59498932D01*
X118719608Y-59319608D01*
X118898932Y-59101101D01*
X118970000Y-58968142D01*
X119041068Y-59101101D01*
X119220392Y-59319608D01*
X119438899Y-59498932D01*
X119688192Y-59632182D01*
X119958691Y-59714236D01*
X120169508Y-59735000D01*
X120310492Y-59735000D01*
X120521309Y-59714236D01*
X120791808Y-59632182D01*
X121041101Y-59498932D01*
X121259608Y-59319608D01*
X121438932Y-59101101D01*
X121510000Y-58968142D01*
X121581068Y-59101101D01*
X121760392Y-59319608D01*
X121978899Y-59498932D01*
X122228192Y-59632182D01*
X122498691Y-59714236D01*
X122709508Y-59735000D01*
X122850492Y-59735000D01*
X123061309Y-59714236D01*
X123331808Y-59632182D01*
X123581101Y-59498932D01*
X123799608Y-59319608D01*
X123978932Y-59101101D01*
X124050000Y-58968142D01*
X124121068Y-59101101D01*
X124300392Y-59319608D01*
X124518899Y-59498932D01*
X124768192Y-59632182D01*
X125038691Y-59714236D01*
X125249508Y-59735000D01*
X125390492Y-59735000D01*
X125601309Y-59714236D01*
X125871808Y-59632182D01*
X126121101Y-59498932D01*
X126339608Y-59319608D01*
X126518932Y-59101101D01*
X126590000Y-58968142D01*
X126661068Y-59101101D01*
X126840392Y-59319608D01*
X127058899Y-59498932D01*
X127308192Y-59632182D01*
X127578691Y-59714236D01*
X127789508Y-59735000D01*
X127930492Y-59735000D01*
X128141309Y-59714236D01*
X128411808Y-59632182D01*
X128661101Y-59498932D01*
X128879608Y-59319608D01*
X129058932Y-59101101D01*
X129130000Y-58968142D01*
X129201068Y-59101101D01*
X129380392Y-59319608D01*
X129598899Y-59498932D01*
X129848192Y-59632182D01*
X130118691Y-59714236D01*
X130329508Y-59735000D01*
X130470492Y-59735000D01*
X130681309Y-59714236D01*
X130951808Y-59632182D01*
X131201101Y-59498932D01*
X131419608Y-59319608D01*
X131598932Y-59101101D01*
X131670000Y-58968142D01*
X131741068Y-59101101D01*
X131920392Y-59319608D01*
X132138899Y-59498932D01*
X132388192Y-59632182D01*
X132658691Y-59714236D01*
X132869508Y-59735000D01*
X133010492Y-59735000D01*
X133221309Y-59714236D01*
X133491808Y-59632182D01*
X133741101Y-59498932D01*
X133959608Y-59319608D01*
X134138932Y-59101101D01*
X134272182Y-58851808D01*
X134354236Y-58581309D01*
X134381943Y-58300000D01*
X134354236Y-58018691D01*
X134272182Y-57748192D01*
X134138932Y-57498899D01*
X133959608Y-57280392D01*
X133741101Y-57101068D01*
X133491808Y-56967818D01*
X133221309Y-56885764D01*
X133010492Y-56865000D01*
X132869508Y-56865000D01*
X132658691Y-56885764D01*
X132388192Y-56967818D01*
X132138899Y-57101068D01*
X131920392Y-57280392D01*
X131741068Y-57498899D01*
X131670000Y-57631858D01*
X131598932Y-57498899D01*
X131419608Y-57280392D01*
X131201101Y-57101068D01*
X131135000Y-57065736D01*
X131135000Y-52496105D01*
X131138556Y-52460000D01*
X131124365Y-52315915D01*
X131082337Y-52177366D01*
X131014087Y-52049680D01*
X131012188Y-52047366D01*
X130922238Y-51937762D01*
X130894193Y-51914746D01*
X130312568Y-51333122D01*
X130343513Y-51231111D01*
X130372185Y-50940000D01*
X130343513Y-50648889D01*
X130258599Y-50368966D01*
X130120706Y-50110986D01*
X129935134Y-49884866D01*
X129709014Y-49699294D01*
X129451034Y-49561401D01*
X129171111Y-49476487D01*
X128952950Y-49455000D01*
X128807050Y-49455000D01*
X128588889Y-49476487D01*
X128308966Y-49561401D01*
X128050986Y-49699294D01*
X127824866Y-49884866D01*
X127639294Y-50110986D01*
X127610000Y-50165791D01*
X127580706Y-50110986D01*
X127395134Y-49884866D01*
X127169014Y-49699294D01*
X126911034Y-49561401D01*
X126631111Y-49476487D01*
X126412950Y-49455000D01*
X126267050Y-49455000D01*
X126048889Y-49476487D01*
X125768966Y-49561401D01*
X125510986Y-49699294D01*
X125284866Y-49884866D01*
X125099294Y-50110986D01*
X125070000Y-50165791D01*
X125040706Y-50110986D01*
X124855134Y-49884866D01*
X124629014Y-49699294D01*
X124371034Y-49561401D01*
X124091111Y-49476487D01*
X123872950Y-49455000D01*
X123727050Y-49455000D01*
X123508889Y-49476487D01*
X123228966Y-49561401D01*
X122970986Y-49699294D01*
X122744866Y-49884866D01*
X122559294Y-50110986D01*
X122530000Y-50165791D01*
X122500706Y-50110986D01*
X122315134Y-49884866D01*
X122089014Y-49699294D01*
X121831034Y-49561401D01*
X121551111Y-49476487D01*
X121332950Y-49455000D01*
X121187050Y-49455000D01*
X120968889Y-49476487D01*
X120688966Y-49561401D01*
X120430986Y-49699294D01*
X120204866Y-49884866D01*
X120019294Y-50110986D01*
X119990000Y-50165791D01*
X119960706Y-50110986D01*
X119775134Y-49884866D01*
X119549014Y-49699294D01*
X119291034Y-49561401D01*
X119011111Y-49476487D01*
X118792950Y-49455000D01*
X118647050Y-49455000D01*
X118428889Y-49476487D01*
X118148966Y-49561401D01*
X117890986Y-49699294D01*
X117664866Y-49884866D01*
X117479294Y-50110986D01*
X117450000Y-50165791D01*
X117420706Y-50110986D01*
X117235134Y-49884866D01*
X117009014Y-49699294D01*
X116751034Y-49561401D01*
X116471111Y-49476487D01*
X116252950Y-49455000D01*
X116107050Y-49455000D01*
X115888889Y-49476487D01*
X115608966Y-49561401D01*
X115350986Y-49699294D01*
X115124866Y-49884866D01*
X114939294Y-50110986D01*
X114910000Y-50165791D01*
X114880706Y-50110986D01*
X114695134Y-49884866D01*
X114469014Y-49699294D01*
X114211034Y-49561401D01*
X113931111Y-49476487D01*
X113712950Y-49455000D01*
X113567050Y-49455000D01*
X113348889Y-49476487D01*
X113068966Y-49561401D01*
X112810986Y-49699294D01*
X112584866Y-49884866D01*
X112399294Y-50110986D01*
X112370000Y-50165791D01*
X112340706Y-50110986D01*
X112155134Y-49884866D01*
X111929014Y-49699294D01*
X111671034Y-49561401D01*
X111391111Y-49476487D01*
X111172950Y-49455000D01*
X111027050Y-49455000D01*
X110808889Y-49476487D01*
X110528966Y-49561401D01*
X110270986Y-49699294D01*
X110044866Y-49884866D01*
X109859294Y-50110986D01*
X109830000Y-50165791D01*
X109800706Y-50110986D01*
X109615134Y-49884866D01*
X109389014Y-49699294D01*
X109131034Y-49561401D01*
X108851111Y-49476487D01*
X108632950Y-49455000D01*
X108487050Y-49455000D01*
X108268889Y-49476487D01*
X107988966Y-49561401D01*
X107730986Y-49699294D01*
X107504866Y-49884866D01*
X107319294Y-50110986D01*
X107290000Y-50165791D01*
X107260706Y-50110986D01*
X107075134Y-49884866D01*
X106849014Y-49699294D01*
X106591034Y-49561401D01*
X106311111Y-49476487D01*
X106092950Y-49455000D01*
X105947050Y-49455000D01*
X105728889Y-49476487D01*
X105448966Y-49561401D01*
X105190986Y-49699294D01*
X104964866Y-49884866D01*
X104779294Y-50110986D01*
X104750000Y-50165791D01*
X104720706Y-50110986D01*
X104535134Y-49884866D01*
X104309014Y-49699294D01*
X104051034Y-49561401D01*
X103771111Y-49476487D01*
X103552950Y-49455000D01*
X103407050Y-49455000D01*
X103188889Y-49476487D01*
X102908966Y-49561401D01*
X102650986Y-49699294D01*
X102424866Y-49884866D01*
X102239294Y-50110986D01*
X102210000Y-50165791D01*
X102180706Y-50110986D01*
X101995134Y-49884866D01*
X101769014Y-49699294D01*
X101511034Y-49561401D01*
X101231111Y-49476487D01*
X101012950Y-49455000D01*
X100867050Y-49455000D01*
X100648889Y-49476487D01*
X100368966Y-49561401D01*
X100110986Y-49699294D01*
X99884866Y-49884866D01*
X99699294Y-50110986D01*
X99670000Y-50165791D01*
X99640706Y-50110986D01*
X99455134Y-49884866D01*
X99229014Y-49699294D01*
X98971034Y-49561401D01*
X98691111Y-49476487D01*
X98472950Y-49455000D01*
X98327050Y-49455000D01*
X98108889Y-49476487D01*
X97828966Y-49561401D01*
X97570986Y-49699294D01*
X97344866Y-49884866D01*
X97159294Y-50110986D01*
X97130000Y-50165791D01*
X97100706Y-50110986D01*
X96915134Y-49884866D01*
X96689014Y-49699294D01*
X96431034Y-49561401D01*
X96151111Y-49476487D01*
X95932950Y-49455000D01*
X95787050Y-49455000D01*
X95568889Y-49476487D01*
X95288966Y-49561401D01*
X95030986Y-49699294D01*
X94804866Y-49884866D01*
X94619294Y-50110986D01*
X94590000Y-50165791D01*
X94560706Y-50110986D01*
X94375134Y-49884866D01*
X94149014Y-49699294D01*
X93891034Y-49561401D01*
X93611111Y-49476487D01*
X93392950Y-49455000D01*
X93247050Y-49455000D01*
X93028889Y-49476487D01*
X92748966Y-49561401D01*
X92490986Y-49699294D01*
X92264866Y-49884866D01*
X92079294Y-50110986D01*
X92050000Y-50165791D01*
X92020706Y-50110986D01*
X91835134Y-49884866D01*
X91609014Y-49699294D01*
X91351034Y-49561401D01*
X91071111Y-49476487D01*
X90852950Y-49455000D01*
X90707050Y-49455000D01*
X90488889Y-49476487D01*
X90208966Y-49561401D01*
X89950986Y-49699294D01*
X89724866Y-49884866D01*
X89539294Y-50110986D01*
X89510000Y-50165791D01*
X89480706Y-50110986D01*
X89295134Y-49884866D01*
X89069014Y-49699294D01*
X88811034Y-49561401D01*
X88531111Y-49476487D01*
X88312950Y-49455000D01*
X88167050Y-49455000D01*
X87948889Y-49476487D01*
X87668966Y-49561401D01*
X87410986Y-49699294D01*
X87184866Y-49884866D01*
X86999294Y-50110986D01*
X86970000Y-50165791D01*
X86940706Y-50110986D01*
X86755134Y-49884866D01*
X86529014Y-49699294D01*
X86271034Y-49561401D01*
X85991111Y-49476487D01*
X85772950Y-49455000D01*
X85627050Y-49455000D01*
X85408889Y-49476487D01*
X85128966Y-49561401D01*
X84870986Y-49699294D01*
X84644866Y-49884866D01*
X84459294Y-50110986D01*
X84424799Y-50175523D01*
X84355178Y-50058645D01*
X84160269Y-49842412D01*
X83926920Y-49668359D01*
X83664099Y-49543175D01*
X83516890Y-49498524D01*
X83287000Y-49619845D01*
X83287000Y-50813000D01*
X83307000Y-50813000D01*
X83307000Y-51067000D01*
X83287000Y-51067000D01*
X83287000Y-51087000D01*
X83033000Y-51087000D01*
X83033000Y-51067000D01*
X80747000Y-51067000D01*
X80747000Y-51087000D01*
X80493000Y-51087000D01*
X80493000Y-51067000D01*
X79299186Y-51067000D01*
X79178519Y-51296891D01*
X79241700Y-51475000D01*
X78116094Y-51475000D01*
X78079999Y-51471445D01*
X78043904Y-51475000D01*
X78043895Y-51475000D01*
X77935915Y-51485635D01*
X77797367Y-51527663D01*
X77669680Y-51595913D01*
X77557762Y-51687762D01*
X77534747Y-51715806D01*
X75045808Y-54204746D01*
X75017762Y-54227763D01*
X74925913Y-54339681D01*
X74857663Y-54467368D01*
X74828384Y-54563887D01*
X74815635Y-54605915D01*
X74801444Y-54750000D01*
X73127000Y-54750000D01*
X73127000Y-50357606D01*
X73263595Y-50221011D01*
X73245000Y-50314495D01*
X73245000Y-50705505D01*
X73321282Y-51089003D01*
X73470915Y-51450250D01*
X73688149Y-51775364D01*
X73964636Y-52051851D01*
X74289750Y-52269085D01*
X74650997Y-52418718D01*
X75034495Y-52495000D01*
X75425505Y-52495000D01*
X75809003Y-52418718D01*
X76170250Y-52269085D01*
X76495364Y-52051851D01*
X76771851Y-51775364D01*
X76989085Y-51450250D01*
X77138718Y-51089003D01*
X77215000Y-50705505D01*
X77215000Y-50583109D01*
X79178519Y-50583109D01*
X79299186Y-50813000D01*
X80493000Y-50813000D01*
X80493000Y-49619845D01*
X80747000Y-49619845D01*
X80747000Y-50813000D01*
X83033000Y-50813000D01*
X83033000Y-49619845D01*
X82803110Y-49498524D01*
X82655901Y-49543175D01*
X82393080Y-49668359D01*
X82159731Y-49842412D01*
X81964822Y-50058645D01*
X81890000Y-50184255D01*
X81815178Y-50058645D01*
X81620269Y-49842412D01*
X81386920Y-49668359D01*
X81124099Y-49543175D01*
X80976890Y-49498524D01*
X80747000Y-49619845D01*
X80493000Y-49619845D01*
X80263110Y-49498524D01*
X80115901Y-49543175D01*
X79853080Y-49668359D01*
X79619731Y-49842412D01*
X79424822Y-50058645D01*
X79275843Y-50308748D01*
X79178519Y-50583109D01*
X77215000Y-50583109D01*
X77215000Y-50314495D01*
X77138718Y-49930997D01*
X76989085Y-49569750D01*
X76771851Y-49244636D01*
X76495364Y-48968149D01*
X76170250Y-48750915D01*
X75809003Y-48601282D01*
X75425505Y-48525000D01*
X75034495Y-48525000D01*
X74941011Y-48543595D01*
X75592606Y-47892000D01*
X133272394Y-47892000D01*
X134103774Y-48723380D01*
G36*
X107319294Y-54309014D02*
G01*
X107504866Y-54535134D01*
X107730986Y-54720706D01*
X107988966Y-54858599D01*
X108268889Y-54943513D01*
X108487050Y-54965000D01*
X108632950Y-54965000D01*
X108851111Y-54943513D01*
X108953122Y-54912568D01*
X111635000Y-57594447D01*
X111635001Y-58595252D01*
X111455241Y-58715363D01*
X111255363Y-58915241D01*
X111098320Y-59150273D01*
X110990147Y-59411426D01*
X110935000Y-59688665D01*
X110935000Y-59971335D01*
X110990147Y-60248574D01*
X111098320Y-60509727D01*
X111255363Y-60744759D01*
X111455241Y-60944637D01*
X111635000Y-61064748D01*
X111635001Y-62405736D01*
X111568899Y-62441068D01*
X111350392Y-62620392D01*
X111171068Y-62838899D01*
X111037818Y-63088192D01*
X110955764Y-63358691D01*
X110928057Y-63640000D01*
X110955764Y-63921309D01*
X111037818Y-64191808D01*
X111171068Y-64441101D01*
X111350392Y-64659608D01*
X111568899Y-64838932D01*
X111818192Y-64972182D01*
X112088691Y-65054236D01*
X112299508Y-65075000D01*
X112440492Y-65075000D01*
X112651309Y-65054236D01*
X112921808Y-64972182D01*
X113171101Y-64838932D01*
X113389608Y-64659608D01*
X113568932Y-64441101D01*
X113702182Y-64191808D01*
X113784236Y-63921309D01*
X113811943Y-63640000D01*
X113784236Y-63358691D01*
X113702182Y-63088192D01*
X113568932Y-62838899D01*
X113389608Y-62620392D01*
X113171101Y-62441068D01*
X113105000Y-62405736D01*
X113105000Y-61064748D01*
X113284759Y-60944637D01*
X113484637Y-60744759D01*
X113641680Y-60509727D01*
X113749853Y-60248574D01*
X113805000Y-59971335D01*
X113805000Y-59764446D01*
X116965001Y-62924448D01*
X116965000Y-72559736D01*
X116898899Y-72595068D01*
X116680392Y-72774392D01*
X116587581Y-72887482D01*
X116585812Y-72869518D01*
X116549502Y-72749820D01*
X116490537Y-72639506D01*
X116411185Y-72542815D01*
X116314494Y-72463463D01*
X116204180Y-72404498D01*
X116084482Y-72368188D01*
X115960000Y-72355928D01*
X115445750Y-72359000D01*
X115287000Y-72517750D01*
X115287000Y-73667000D01*
X115307000Y-73667000D01*
X115307000Y-73921000D01*
X115287000Y-73921000D01*
X115287000Y-73941000D01*
X115033000Y-73941000D01*
X115033000Y-73921000D01*
X113883750Y-73921000D01*
X113725000Y-74079750D01*
X113721928Y-74594000D01*
X113734188Y-74718482D01*
X113770498Y-74838180D01*
X113829463Y-74948494D01*
X113908815Y-75045185D01*
X113971952Y-75097000D01*
X112962447Y-75097000D01*
X111171258Y-73305812D01*
X111148238Y-73277762D01*
X111064072Y-73208689D01*
X111064072Y-72994000D01*
X113721928Y-72994000D01*
X113725000Y-73508250D01*
X113883750Y-73667000D01*
X115033000Y-73667000D01*
X115033000Y-72517750D01*
X114874250Y-72359000D01*
X114360000Y-72355928D01*
X114235518Y-72368188D01*
X114115820Y-72404498D01*
X114005506Y-72463463D01*
X113908815Y-72542815D01*
X113829463Y-72639506D01*
X113770498Y-72749820D01*
X113734188Y-72869518D01*
X113721928Y-72994000D01*
X111064072Y-72994000D01*
X111064072Y-72950000D01*
X111051812Y-72825518D01*
X111015502Y-72705820D01*
X110956537Y-72595506D01*
X110877185Y-72498815D01*
X110780494Y-72419463D01*
X110670180Y-72360498D01*
X110550482Y-72324188D01*
X110426000Y-72311928D01*
X108726000Y-72311928D01*
X108601518Y-72324188D01*
X108481820Y-72360498D01*
X108371506Y-72419463D01*
X108274815Y-72498815D01*
X108195463Y-72595506D01*
X108136498Y-72705820D01*
X108115607Y-72774687D01*
X108091134Y-72744866D01*
X107865014Y-72559294D01*
X107607034Y-72421401D01*
X107327111Y-72336487D01*
X107108950Y-72315000D01*
X106963050Y-72315000D01*
X106744889Y-72336487D01*
X106464966Y-72421401D01*
X106206986Y-72559294D01*
X105980866Y-72744866D01*
X105795294Y-72970986D01*
X105657401Y-73228966D01*
X105572487Y-73508889D01*
X105543815Y-73800000D01*
X105572487Y-74091111D01*
X105657401Y-74371034D01*
X105795294Y-74629014D01*
X105980866Y-74855134D01*
X106206986Y-75040706D01*
X106464966Y-75178599D01*
X106744889Y-75263513D01*
X106963050Y-75285000D01*
X107108950Y-75285000D01*
X107327111Y-75263513D01*
X107429122Y-75232568D01*
X109538746Y-77342193D01*
X109561762Y-77370238D01*
X109673680Y-77462087D01*
X109801367Y-77530337D01*
X109939915Y-77572365D01*
X110084000Y-77586556D01*
X110120105Y-77583000D01*
X112627553Y-77583000D01*
X106795808Y-83414746D01*
X106767762Y-83437763D01*
X106675913Y-83549681D01*
X106607663Y-83677368D01*
X106586664Y-83746594D01*
X106565635Y-83815915D01*
X106551444Y-83960000D01*
X106555000Y-83996105D01*
X106555000Y-85993314D01*
X106542237Y-85977762D01*
X106514197Y-85954750D01*
X102945000Y-82385554D01*
X102945000Y-59830000D01*
X103308057Y-59830000D01*
X103335764Y-60111309D01*
X103417818Y-60381808D01*
X103551068Y-60631101D01*
X103730392Y-60849608D01*
X103948899Y-61028932D01*
X104198192Y-61162182D01*
X104468691Y-61244236D01*
X104679508Y-61265000D01*
X104820492Y-61265000D01*
X105031309Y-61244236D01*
X105301808Y-61162182D01*
X105551101Y-61028932D01*
X105769608Y-60849608D01*
X105948932Y-60631101D01*
X106082182Y-60381808D01*
X106164236Y-60111309D01*
X106191943Y-59830000D01*
X106164236Y-59548691D01*
X106082182Y-59278192D01*
X105948932Y-59028899D01*
X105769608Y-58810392D01*
X105551101Y-58631068D01*
X105301808Y-58497818D01*
X105031309Y-58415764D01*
X104820492Y-58395000D01*
X104679508Y-58395000D01*
X104468691Y-58415764D01*
X104198192Y-58497818D01*
X103948899Y-58631068D01*
X103730392Y-58810392D01*
X103551068Y-59028899D01*
X103417818Y-59278192D01*
X103335764Y-59548691D01*
X103308057Y-59830000D01*
X102945000Y-59830000D01*
X102945000Y-55054446D01*
X103086878Y-54912568D01*
X103188889Y-54943513D01*
X103407050Y-54965000D01*
X103552950Y-54965000D01*
X103771111Y-54943513D01*
X104051034Y-54858599D01*
X104309014Y-54720706D01*
X104535134Y-54535134D01*
X104720706Y-54309014D01*
X104750000Y-54254209D01*
X104779294Y-54309014D01*
X104964866Y-54535134D01*
X105190986Y-54720706D01*
X105285000Y-54770958D01*
X105285001Y-56999885D01*
X105281444Y-57036000D01*
X105295635Y-57180085D01*
X105328978Y-57289999D01*
X105337664Y-57318633D01*
X105405914Y-57446320D01*
X105497763Y-57558238D01*
X105525808Y-57581254D01*
X107825000Y-59880447D01*
X107825001Y-67159885D01*
X107821444Y-67196000D01*
X107827326Y-67255720D01*
X107616950Y-67235000D01*
X107471050Y-67235000D01*
X107252889Y-67256487D01*
X107150878Y-67287432D01*
X105485000Y-65621554D01*
X105485000Y-64874748D01*
X105664759Y-64754637D01*
X105864637Y-64554759D01*
X106021680Y-64319727D01*
X106129853Y-64058574D01*
X106185000Y-63781335D01*
X106185000Y-63498665D01*
X106129853Y-63221426D01*
X106021680Y-62960273D01*
X105864637Y-62725241D01*
X105664759Y-62525363D01*
X105429727Y-62368320D01*
X105168574Y-62260147D01*
X104891335Y-62205000D01*
X104608665Y-62205000D01*
X104331426Y-62260147D01*
X104070273Y-62368320D01*
X103835241Y-62525363D01*
X103635363Y-62725241D01*
X103478320Y-62960273D01*
X103370147Y-63221426D01*
X103315000Y-63498665D01*
X103315000Y-63781335D01*
X103370147Y-64058574D01*
X103478320Y-64319727D01*
X103635363Y-64554759D01*
X103835241Y-64754637D01*
X104015001Y-64874748D01*
X104015001Y-65889885D01*
X104011444Y-65926000D01*
X104025635Y-66070085D01*
X104067664Y-66208633D01*
X104135914Y-66336320D01*
X104227763Y-66448238D01*
X104255808Y-66471254D01*
X105019554Y-67235000D01*
X104931050Y-67235000D01*
X104712889Y-67256487D01*
X104432966Y-67341401D01*
X104174986Y-67479294D01*
X103948866Y-67664866D01*
X103763294Y-67890986D01*
X103625401Y-68148966D01*
X103540487Y-68428889D01*
X103511815Y-68720000D01*
X103540487Y-69011111D01*
X103625401Y-69291034D01*
X103763294Y-69549014D01*
X103948866Y-69775134D01*
X104174986Y-69960706D01*
X104432966Y-70098599D01*
X104712889Y-70183513D01*
X104931050Y-70205000D01*
X105076950Y-70205000D01*
X105295111Y-70183513D01*
X105575034Y-70098599D01*
X105833014Y-69960706D01*
X106059134Y-69775134D01*
X106244706Y-69549014D01*
X106274000Y-69494209D01*
X106303294Y-69549014D01*
X106488866Y-69775134D01*
X106714986Y-69960706D01*
X106972966Y-70098599D01*
X107252889Y-70183513D01*
X107471050Y-70205000D01*
X107616950Y-70205000D01*
X107835111Y-70183513D01*
X108115034Y-70098599D01*
X108373014Y-69960706D01*
X108599134Y-69775134D01*
X108784706Y-69549014D01*
X108814000Y-69494209D01*
X108843294Y-69549014D01*
X109028866Y-69775134D01*
X109254986Y-69960706D01*
X109512966Y-70098599D01*
X109792889Y-70183513D01*
X110011050Y-70205000D01*
X110156950Y-70205000D01*
X110375111Y-70183513D01*
X110655034Y-70098599D01*
X110913014Y-69960706D01*
X111139134Y-69775134D01*
X111163607Y-69745313D01*
X111184498Y-69814180D01*
X111243463Y-69924494D01*
X111322815Y-70021185D01*
X111419506Y-70100537D01*
X111529820Y-70159502D01*
X111649518Y-70195812D01*
X111774000Y-70208072D01*
X112338250Y-70205000D01*
X112497000Y-70046250D01*
X112497000Y-68847000D01*
X112751000Y-68847000D01*
X112751000Y-70046250D01*
X112909750Y-70205000D01*
X113474000Y-70208072D01*
X113598482Y-70195812D01*
X113718180Y-70159502D01*
X113828494Y-70100537D01*
X113925185Y-70021185D01*
X114004537Y-69924494D01*
X114063502Y-69814180D01*
X114099812Y-69694482D01*
X114112072Y-69570000D01*
X114109000Y-69005750D01*
X113950250Y-68847000D01*
X112751000Y-68847000D01*
X112497000Y-68847000D01*
X112477000Y-68847000D01*
X112477000Y-68593000D01*
X112497000Y-68593000D01*
X112497000Y-67393750D01*
X112751000Y-67393750D01*
X112751000Y-68593000D01*
X113950250Y-68593000D01*
X114109000Y-68434250D01*
X114112072Y-67870000D01*
X114099812Y-67745518D01*
X114063502Y-67625820D01*
X114004537Y-67515506D01*
X113925185Y-67418815D01*
X113828494Y-67339463D01*
X113718180Y-67280498D01*
X113598482Y-67244188D01*
X113474000Y-67231928D01*
X112909750Y-67235000D01*
X112751000Y-67393750D01*
X112497000Y-67393750D01*
X112338250Y-67235000D01*
X111774000Y-67231928D01*
X111649518Y-67244188D01*
X111529820Y-67280498D01*
X111419506Y-67339463D01*
X111322815Y-67418815D01*
X111243463Y-67515506D01*
X111184498Y-67625820D01*
X111163607Y-67694687D01*
X111139134Y-67664866D01*
X110913014Y-67479294D01*
X110655034Y-67341401D01*
X110375111Y-67256487D01*
X110156950Y-67235000D01*
X110011050Y-67235000D01*
X109792889Y-67256487D01*
X109690878Y-67287432D01*
X109295000Y-66891554D01*
X109295000Y-59612094D01*
X109298555Y-59575999D01*
X109295000Y-59539904D01*
X109295000Y-59539895D01*
X109284365Y-59431915D01*
X109242337Y-59293367D01*
X109174087Y-59165680D01*
X109124809Y-59105635D01*
X109105253Y-59081806D01*
X109105250Y-59081803D01*
X109082237Y-59053762D01*
X109054197Y-59030750D01*
X106755000Y-56731554D01*
X106755000Y-54770957D01*
X106849014Y-54720706D01*
X107075134Y-54535134D01*
X107260706Y-54309014D01*
X107290000Y-54254209D01*
X107319294Y-54309014D01*
X107319294Y-54309014D01*
G37*
X107319294Y-54309014D02*
X107504866Y-54535134D01*
X107730986Y-54720706D01*
X107988966Y-54858599D01*
X108268889Y-54943513D01*
X108487050Y-54965000D01*
X108632950Y-54965000D01*
X108851111Y-54943513D01*
X108953122Y-54912568D01*
X111635000Y-57594447D01*
X111635001Y-58595252D01*
X111455241Y-58715363D01*
X111255363Y-58915241D01*
X111098320Y-59150273D01*
X110990147Y-59411426D01*
X110935000Y-59688665D01*
X110935000Y-59971335D01*
X110990147Y-60248574D01*
X111098320Y-60509727D01*
X111255363Y-60744759D01*
X111455241Y-60944637D01*
X111635000Y-61064748D01*
X111635001Y-62405736D01*
X111568899Y-62441068D01*
X111350392Y-62620392D01*
X111171068Y-62838899D01*
X111037818Y-63088192D01*
X110955764Y-63358691D01*
X110928057Y-63640000D01*
X110955764Y-63921309D01*
X111037818Y-64191808D01*
X111171068Y-64441101D01*
X111350392Y-64659608D01*
X111568899Y-64838932D01*
X111818192Y-64972182D01*
X112088691Y-65054236D01*
X112299508Y-65075000D01*
X112440492Y-65075000D01*
X112651309Y-65054236D01*
X112921808Y-64972182D01*
X113171101Y-64838932D01*
X113389608Y-64659608D01*
X113568932Y-64441101D01*
X113702182Y-64191808D01*
X113784236Y-63921309D01*
X113811943Y-63640000D01*
X113784236Y-63358691D01*
X113702182Y-63088192D01*
X113568932Y-62838899D01*
X113389608Y-62620392D01*
X113171101Y-62441068D01*
X113105000Y-62405736D01*
X113105000Y-61064748D01*
X113284759Y-60944637D01*
X113484637Y-60744759D01*
X113641680Y-60509727D01*
X113749853Y-60248574D01*
X113805000Y-59971335D01*
X113805000Y-59764446D01*
X116965001Y-62924448D01*
X116965000Y-72559736D01*
X116898899Y-72595068D01*
X116680392Y-72774392D01*
X116587581Y-72887482D01*
X116585812Y-72869518D01*
X116549502Y-72749820D01*
X116490537Y-72639506D01*
X116411185Y-72542815D01*
X116314494Y-72463463D01*
X116204180Y-72404498D01*
X116084482Y-72368188D01*
X115960000Y-72355928D01*
X115445750Y-72359000D01*
X115287000Y-72517750D01*
X115287000Y-73667000D01*
X115307000Y-73667000D01*
X115307000Y-73921000D01*
X115287000Y-73921000D01*
X115287000Y-73941000D01*
X115033000Y-73941000D01*
X115033000Y-73921000D01*
X113883750Y-73921000D01*
X113725000Y-74079750D01*
X113721928Y-74594000D01*
X113734188Y-74718482D01*
X113770498Y-74838180D01*
X113829463Y-74948494D01*
X113908815Y-75045185D01*
X113971952Y-75097000D01*
X112962447Y-75097000D01*
X111171258Y-73305812D01*
X111148238Y-73277762D01*
X111064072Y-73208689D01*
X111064072Y-72994000D01*
X113721928Y-72994000D01*
X113725000Y-73508250D01*
X113883750Y-73667000D01*
X115033000Y-73667000D01*
X115033000Y-72517750D01*
X114874250Y-72359000D01*
X114360000Y-72355928D01*
X114235518Y-72368188D01*
X114115820Y-72404498D01*
X114005506Y-72463463D01*
X113908815Y-72542815D01*
X113829463Y-72639506D01*
X113770498Y-72749820D01*
X113734188Y-72869518D01*
X113721928Y-72994000D01*
X111064072Y-72994000D01*
X111064072Y-72950000D01*
X111051812Y-72825518D01*
X111015502Y-72705820D01*
X110956537Y-72595506D01*
X110877185Y-72498815D01*
X110780494Y-72419463D01*
X110670180Y-72360498D01*
X110550482Y-72324188D01*
X110426000Y-72311928D01*
X108726000Y-72311928D01*
X108601518Y-72324188D01*
X108481820Y-72360498D01*
X108371506Y-72419463D01*
X108274815Y-72498815D01*
X108195463Y-72595506D01*
X108136498Y-72705820D01*
X108115607Y-72774687D01*
X108091134Y-72744866D01*
X107865014Y-72559294D01*
X107607034Y-72421401D01*
X107327111Y-72336487D01*
X107108950Y-72315000D01*
X106963050Y-72315000D01*
X106744889Y-72336487D01*
X106464966Y-72421401D01*
X106206986Y-72559294D01*
X105980866Y-72744866D01*
X105795294Y-72970986D01*
X105657401Y-73228966D01*
X105572487Y-73508889D01*
X105543815Y-73800000D01*
X105572487Y-74091111D01*
X105657401Y-74371034D01*
X105795294Y-74629014D01*
X105980866Y-74855134D01*
X106206986Y-75040706D01*
X106464966Y-75178599D01*
X106744889Y-75263513D01*
X106963050Y-75285000D01*
X107108950Y-75285000D01*
X107327111Y-75263513D01*
X107429122Y-75232568D01*
X109538746Y-77342193D01*
X109561762Y-77370238D01*
X109673680Y-77462087D01*
X109801367Y-77530337D01*
X109939915Y-77572365D01*
X110084000Y-77586556D01*
X110120105Y-77583000D01*
X112627553Y-77583000D01*
X106795808Y-83414746D01*
X106767762Y-83437763D01*
X106675913Y-83549681D01*
X106607663Y-83677368D01*
X106586664Y-83746594D01*
X106565635Y-83815915D01*
X106551444Y-83960000D01*
X106555000Y-83996105D01*
X106555000Y-85993314D01*
X106542237Y-85977762D01*
X106514197Y-85954750D01*
X102945000Y-82385554D01*
X102945000Y-59830000D01*
X103308057Y-59830000D01*
X103335764Y-60111309D01*
X103417818Y-60381808D01*
X103551068Y-60631101D01*
X103730392Y-60849608D01*
X103948899Y-61028932D01*
X104198192Y-61162182D01*
X104468691Y-61244236D01*
X104679508Y-61265000D01*
X104820492Y-61265000D01*
X105031309Y-61244236D01*
X105301808Y-61162182D01*
X105551101Y-61028932D01*
X105769608Y-60849608D01*
X105948932Y-60631101D01*
X106082182Y-60381808D01*
X106164236Y-60111309D01*
X106191943Y-59830000D01*
X106164236Y-59548691D01*
X106082182Y-59278192D01*
X105948932Y-59028899D01*
X105769608Y-58810392D01*
X105551101Y-58631068D01*
X105301808Y-58497818D01*
X105031309Y-58415764D01*
X104820492Y-58395000D01*
X104679508Y-58395000D01*
X104468691Y-58415764D01*
X104198192Y-58497818D01*
X103948899Y-58631068D01*
X103730392Y-58810392D01*
X103551068Y-59028899D01*
X103417818Y-59278192D01*
X103335764Y-59548691D01*
X103308057Y-59830000D01*
X102945000Y-59830000D01*
X102945000Y-55054446D01*
X103086878Y-54912568D01*
X103188889Y-54943513D01*
X103407050Y-54965000D01*
X103552950Y-54965000D01*
X103771111Y-54943513D01*
X104051034Y-54858599D01*
X104309014Y-54720706D01*
X104535134Y-54535134D01*
X104720706Y-54309014D01*
X104750000Y-54254209D01*
X104779294Y-54309014D01*
X104964866Y-54535134D01*
X105190986Y-54720706D01*
X105285000Y-54770958D01*
X105285001Y-56999885D01*
X105281444Y-57036000D01*
X105295635Y-57180085D01*
X105328978Y-57289999D01*
X105337664Y-57318633D01*
X105405914Y-57446320D01*
X105497763Y-57558238D01*
X105525808Y-57581254D01*
X107825000Y-59880447D01*
X107825001Y-67159885D01*
X107821444Y-67196000D01*
X107827326Y-67255720D01*
X107616950Y-67235000D01*
X107471050Y-67235000D01*
X107252889Y-67256487D01*
X107150878Y-67287432D01*
X105485000Y-65621554D01*
X105485000Y-64874748D01*
X105664759Y-64754637D01*
X105864637Y-64554759D01*
X106021680Y-64319727D01*
X106129853Y-64058574D01*
X106185000Y-63781335D01*
X106185000Y-63498665D01*
X106129853Y-63221426D01*
X106021680Y-62960273D01*
X105864637Y-62725241D01*
X105664759Y-62525363D01*
X105429727Y-62368320D01*
X105168574Y-62260147D01*
X104891335Y-62205000D01*
X104608665Y-62205000D01*
X104331426Y-62260147D01*
X104070273Y-62368320D01*
X103835241Y-62525363D01*
X103635363Y-62725241D01*
X103478320Y-62960273D01*
X103370147Y-63221426D01*
X103315000Y-63498665D01*
X103315000Y-63781335D01*
X103370147Y-64058574D01*
X103478320Y-64319727D01*
X103635363Y-64554759D01*
X103835241Y-64754637D01*
X104015001Y-64874748D01*
X104015001Y-65889885D01*
X104011444Y-65926000D01*
X104025635Y-66070085D01*
X104067664Y-66208633D01*
X104135914Y-66336320D01*
X104227763Y-66448238D01*
X104255808Y-66471254D01*
X105019554Y-67235000D01*
X104931050Y-67235000D01*
X104712889Y-67256487D01*
X104432966Y-67341401D01*
X104174986Y-67479294D01*
X103948866Y-67664866D01*
X103763294Y-67890986D01*
X103625401Y-68148966D01*
X103540487Y-68428889D01*
X103511815Y-68720000D01*
X103540487Y-69011111D01*
X103625401Y-69291034D01*
X103763294Y-69549014D01*
X103948866Y-69775134D01*
X104174986Y-69960706D01*
X104432966Y-70098599D01*
X104712889Y-70183513D01*
X104931050Y-70205000D01*
X105076950Y-70205000D01*
X105295111Y-70183513D01*
X105575034Y-70098599D01*
X105833014Y-69960706D01*
X106059134Y-69775134D01*
X106244706Y-69549014D01*
X106274000Y-69494209D01*
X106303294Y-69549014D01*
X106488866Y-69775134D01*
X106714986Y-69960706D01*
X106972966Y-70098599D01*
X107252889Y-70183513D01*
X107471050Y-70205000D01*
X107616950Y-70205000D01*
X107835111Y-70183513D01*
X108115034Y-70098599D01*
X108373014Y-69960706D01*
X108599134Y-69775134D01*
X108784706Y-69549014D01*
X108814000Y-69494209D01*
X108843294Y-69549014D01*
X109028866Y-69775134D01*
X109254986Y-69960706D01*
X109512966Y-70098599D01*
X109792889Y-70183513D01*
X110011050Y-70205000D01*
X110156950Y-70205000D01*
X110375111Y-70183513D01*
X110655034Y-70098599D01*
X110913014Y-69960706D01*
X111139134Y-69775134D01*
X111163607Y-69745313D01*
X111184498Y-69814180D01*
X111243463Y-69924494D01*
X111322815Y-70021185D01*
X111419506Y-70100537D01*
X111529820Y-70159502D01*
X111649518Y-70195812D01*
X111774000Y-70208072D01*
X112338250Y-70205000D01*
X112497000Y-70046250D01*
X112497000Y-68847000D01*
X112751000Y-68847000D01*
X112751000Y-70046250D01*
X112909750Y-70205000D01*
X113474000Y-70208072D01*
X113598482Y-70195812D01*
X113718180Y-70159502D01*
X113828494Y-70100537D01*
X113925185Y-70021185D01*
X114004537Y-69924494D01*
X114063502Y-69814180D01*
X114099812Y-69694482D01*
X114112072Y-69570000D01*
X114109000Y-69005750D01*
X113950250Y-68847000D01*
X112751000Y-68847000D01*
X112497000Y-68847000D01*
X112477000Y-68847000D01*
X112477000Y-68593000D01*
X112497000Y-68593000D01*
X112497000Y-67393750D01*
X112751000Y-67393750D01*
X112751000Y-68593000D01*
X113950250Y-68593000D01*
X114109000Y-68434250D01*
X114112072Y-67870000D01*
X114099812Y-67745518D01*
X114063502Y-67625820D01*
X114004537Y-67515506D01*
X113925185Y-67418815D01*
X113828494Y-67339463D01*
X113718180Y-67280498D01*
X113598482Y-67244188D01*
X113474000Y-67231928D01*
X112909750Y-67235000D01*
X112751000Y-67393750D01*
X112497000Y-67393750D01*
X112338250Y-67235000D01*
X111774000Y-67231928D01*
X111649518Y-67244188D01*
X111529820Y-67280498D01*
X111419506Y-67339463D01*
X111322815Y-67418815D01*
X111243463Y-67515506D01*
X111184498Y-67625820D01*
X111163607Y-67694687D01*
X111139134Y-67664866D01*
X110913014Y-67479294D01*
X110655034Y-67341401D01*
X110375111Y-67256487D01*
X110156950Y-67235000D01*
X110011050Y-67235000D01*
X109792889Y-67256487D01*
X109690878Y-67287432D01*
X109295000Y-66891554D01*
X109295000Y-59612094D01*
X109298555Y-59575999D01*
X109295000Y-59539904D01*
X109295000Y-59539895D01*
X109284365Y-59431915D01*
X109242337Y-59293367D01*
X109174087Y-59165680D01*
X109124809Y-59105635D01*
X109105253Y-59081806D01*
X109105250Y-59081803D01*
X109082237Y-59053762D01*
X109054197Y-59030750D01*
X106755000Y-56731554D01*
X106755000Y-54770957D01*
X106849014Y-54720706D01*
X107075134Y-54535134D01*
X107260706Y-54309014D01*
X107290000Y-54254209D01*
X107319294Y-54309014D01*
M02*
