G04 #@! TF.GenerationSoftware,KiCad,Pcbnew,(5.1.0)-1*
G04 #@! TF.CreationDate,2019-05-01T11:47:09-07:00*
G04 #@! TF.ProjectId,Lec18-PCB_kicad,4c656331-382d-4504-9342-5f6b69636164,rev?*
G04 #@! TF.SameCoordinates,Original*
G04 #@! TF.FileFunction,Soldermask,Bot*
G04 #@! TF.FilePolarity,Negative*
%FSLAX46Y46*%
G04 Gerber Fmt 4.6, Leading zero omitted, Abs format (unit mm)*
G04 Created by KiCad (PCBNEW (5.1.0)-1) date 2019-05-01 11:47:09*
%MOMM*%
%LPD*%
G04 APERTURE LIST*
%ADD10C,0.150000*%
G04 APERTURE END LIST*
D10*
G36*
X133623779Y-98211879D02*
G01*
X133869463Y-98313645D01*
X133869465Y-98313646D01*
X134090575Y-98461387D01*
X134278613Y-98649425D01*
X134357643Y-98767701D01*
X134426355Y-98870537D01*
X134528121Y-99116221D01*
X134580000Y-99377035D01*
X134580000Y-99642965D01*
X134528121Y-99903779D01*
X134426355Y-100149463D01*
X134426354Y-100149465D01*
X134278613Y-100370575D01*
X134090575Y-100558613D01*
X133869465Y-100706354D01*
X133869464Y-100706355D01*
X133869463Y-100706355D01*
X133623779Y-100808121D01*
X133362965Y-100860000D01*
X133097035Y-100860000D01*
X132836221Y-100808121D01*
X132590537Y-100706355D01*
X132590536Y-100706355D01*
X132590535Y-100706354D01*
X132369425Y-100558613D01*
X132181387Y-100370575D01*
X132033646Y-100149465D01*
X132033645Y-100149463D01*
X131931879Y-99903779D01*
X131880000Y-99642965D01*
X131880000Y-99377035D01*
X131931879Y-99116221D01*
X132033645Y-98870537D01*
X132102358Y-98767701D01*
X132181387Y-98649425D01*
X132369425Y-98461387D01*
X132590535Y-98313646D01*
X132590537Y-98313645D01*
X132836221Y-98211879D01*
X133097035Y-98160000D01*
X133362965Y-98160000D01*
X133623779Y-98211879D01*
X133623779Y-98211879D01*
G37*
G36*
X75623779Y-98211879D02*
G01*
X75869463Y-98313645D01*
X75869465Y-98313646D01*
X76090575Y-98461387D01*
X76278613Y-98649425D01*
X76357643Y-98767701D01*
X76426355Y-98870537D01*
X76528121Y-99116221D01*
X76580000Y-99377035D01*
X76580000Y-99642965D01*
X76528121Y-99903779D01*
X76426355Y-100149463D01*
X76426354Y-100149465D01*
X76278613Y-100370575D01*
X76090575Y-100558613D01*
X75869465Y-100706354D01*
X75869464Y-100706355D01*
X75869463Y-100706355D01*
X75623779Y-100808121D01*
X75362965Y-100860000D01*
X75097035Y-100860000D01*
X74836221Y-100808121D01*
X74590537Y-100706355D01*
X74590536Y-100706355D01*
X74590535Y-100706354D01*
X74369425Y-100558613D01*
X74181387Y-100370575D01*
X74033646Y-100149465D01*
X74033645Y-100149463D01*
X73931879Y-99903779D01*
X73880000Y-99642965D01*
X73880000Y-99377035D01*
X73931879Y-99116221D01*
X74033645Y-98870537D01*
X74102358Y-98767701D01*
X74181387Y-98649425D01*
X74369425Y-98461387D01*
X74590535Y-98313646D01*
X74590537Y-98313645D01*
X74836221Y-98211879D01*
X75097035Y-98160000D01*
X75362965Y-98160000D01*
X75623779Y-98211879D01*
X75623779Y-98211879D01*
G37*
G36*
X101106627Y-97092299D02*
G01*
X101186742Y-97116602D01*
X101266855Y-97140903D01*
X101266857Y-97140904D01*
X101414518Y-97219831D01*
X101543949Y-97326051D01*
X101650169Y-97455482D01*
X101729096Y-97603143D01*
X101777701Y-97763373D01*
X101794112Y-97930000D01*
X101777701Y-98096627D01*
X101729096Y-98256857D01*
X101650169Y-98404518D01*
X101543949Y-98533949D01*
X101414518Y-98640169D01*
X101397201Y-98649425D01*
X101266855Y-98719097D01*
X101186742Y-98743398D01*
X101106627Y-98767701D01*
X100981752Y-98780000D01*
X100898248Y-98780000D01*
X100773373Y-98767701D01*
X100693258Y-98743398D01*
X100613145Y-98719097D01*
X100482799Y-98649425D01*
X100465482Y-98640169D01*
X100336051Y-98533949D01*
X100229831Y-98404518D01*
X100150904Y-98256857D01*
X100102299Y-98096627D01*
X100085888Y-97930000D01*
X100102299Y-97763373D01*
X100150904Y-97603143D01*
X100229831Y-97455482D01*
X100336051Y-97326051D01*
X100465482Y-97219831D01*
X100613143Y-97140904D01*
X100613145Y-97140903D01*
X100693258Y-97116602D01*
X100773373Y-97092299D01*
X100898248Y-97080000D01*
X100981752Y-97080000D01*
X101106627Y-97092299D01*
X101106627Y-97092299D01*
G37*
G36*
X98566627Y-97092299D02*
G01*
X98646742Y-97116602D01*
X98726855Y-97140903D01*
X98726857Y-97140904D01*
X98874518Y-97219831D01*
X99003949Y-97326051D01*
X99110169Y-97455482D01*
X99189096Y-97603143D01*
X99237701Y-97763373D01*
X99254112Y-97930000D01*
X99237701Y-98096627D01*
X99189096Y-98256857D01*
X99110169Y-98404518D01*
X99003949Y-98533949D01*
X98874518Y-98640169D01*
X98857201Y-98649425D01*
X98726855Y-98719097D01*
X98646742Y-98743398D01*
X98566627Y-98767701D01*
X98441752Y-98780000D01*
X98358248Y-98780000D01*
X98233373Y-98767701D01*
X98153258Y-98743398D01*
X98073145Y-98719097D01*
X97942799Y-98649425D01*
X97925482Y-98640169D01*
X97796051Y-98533949D01*
X97689831Y-98404518D01*
X97610904Y-98256857D01*
X97562299Y-98096627D01*
X97545888Y-97930000D01*
X97562299Y-97763373D01*
X97610904Y-97603143D01*
X97689831Y-97455482D01*
X97796051Y-97326051D01*
X97925482Y-97219831D01*
X98073143Y-97140904D01*
X98073145Y-97140903D01*
X98153258Y-97116602D01*
X98233373Y-97092299D01*
X98358248Y-97080000D01*
X98441752Y-97080000D01*
X98566627Y-97092299D01*
X98566627Y-97092299D01*
G37*
G36*
X96026627Y-97092299D02*
G01*
X96106742Y-97116602D01*
X96186855Y-97140903D01*
X96186857Y-97140904D01*
X96334518Y-97219831D01*
X96463949Y-97326051D01*
X96570169Y-97455482D01*
X96649096Y-97603143D01*
X96697701Y-97763373D01*
X96714112Y-97930000D01*
X96697701Y-98096627D01*
X96649096Y-98256857D01*
X96570169Y-98404518D01*
X96463949Y-98533949D01*
X96334518Y-98640169D01*
X96317201Y-98649425D01*
X96186855Y-98719097D01*
X96106742Y-98743398D01*
X96026627Y-98767701D01*
X95901752Y-98780000D01*
X95818248Y-98780000D01*
X95693373Y-98767701D01*
X95613258Y-98743398D01*
X95533145Y-98719097D01*
X95402799Y-98649425D01*
X95385482Y-98640169D01*
X95256051Y-98533949D01*
X95149831Y-98404518D01*
X95070904Y-98256857D01*
X95022299Y-98096627D01*
X95005888Y-97930000D01*
X95022299Y-97763373D01*
X95070904Y-97603143D01*
X95149831Y-97455482D01*
X95256051Y-97326051D01*
X95385482Y-97219831D01*
X95533143Y-97140904D01*
X95533145Y-97140903D01*
X95613258Y-97116602D01*
X95693373Y-97092299D01*
X95818248Y-97080000D01*
X95901752Y-97080000D01*
X96026627Y-97092299D01*
X96026627Y-97092299D01*
G37*
G36*
X94170000Y-98780000D02*
G01*
X92470000Y-98780000D01*
X92470000Y-97080000D01*
X94170000Y-97080000D01*
X94170000Y-98780000D01*
X94170000Y-98780000D01*
G37*
G36*
X98633351Y-93350743D02*
G01*
X98778941Y-93411048D01*
X98909970Y-93498599D01*
X99021401Y-93610030D01*
X99108952Y-93741059D01*
X99169257Y-93886649D01*
X99200000Y-94041206D01*
X99200000Y-94198794D01*
X99169257Y-94353351D01*
X99108952Y-94498941D01*
X99021401Y-94629970D01*
X98909970Y-94741401D01*
X98778941Y-94828952D01*
X98633351Y-94889257D01*
X98478794Y-94920000D01*
X98321206Y-94920000D01*
X98166649Y-94889257D01*
X98021059Y-94828952D01*
X97890030Y-94741401D01*
X97778599Y-94629970D01*
X97691048Y-94498941D01*
X97630743Y-94353351D01*
X97600000Y-94198794D01*
X97600000Y-94041206D01*
X97630743Y-93886649D01*
X97691048Y-93741059D01*
X97778599Y-93610030D01*
X97890030Y-93498599D01*
X98021059Y-93411048D01*
X98166649Y-93350743D01*
X98321206Y-93320000D01*
X98478794Y-93320000D01*
X98633351Y-93350743D01*
X98633351Y-93350743D01*
G37*
G36*
X106098471Y-93323859D02*
G01*
X106176827Y-93331576D01*
X106327628Y-93377321D01*
X106327630Y-93377322D01*
X106466605Y-93451606D01*
X106588422Y-93551578D01*
X106688394Y-93673395D01*
X106724561Y-93741058D01*
X106762679Y-93812372D01*
X106808424Y-93963173D01*
X106823870Y-94120000D01*
X106808424Y-94276827D01*
X106762679Y-94427628D01*
X106762678Y-94427630D01*
X106688394Y-94566605D01*
X106588422Y-94688422D01*
X106466605Y-94788394D01*
X106327630Y-94862678D01*
X106327628Y-94862679D01*
X106176827Y-94908424D01*
X106098471Y-94916141D01*
X106059294Y-94920000D01*
X105980706Y-94920000D01*
X105941529Y-94916141D01*
X105863173Y-94908424D01*
X105712372Y-94862679D01*
X105712370Y-94862678D01*
X105573395Y-94788394D01*
X105451578Y-94688422D01*
X105351606Y-94566605D01*
X105277322Y-94427630D01*
X105277321Y-94427628D01*
X105231576Y-94276827D01*
X105216130Y-94120000D01*
X105231576Y-93963173D01*
X105277321Y-93812372D01*
X105315439Y-93741058D01*
X105351606Y-93673395D01*
X105451578Y-93551578D01*
X105573395Y-93451606D01*
X105712370Y-93377322D01*
X105712372Y-93377321D01*
X105863173Y-93331576D01*
X105941529Y-93323859D01*
X105980706Y-93320000D01*
X106059294Y-93320000D01*
X106098471Y-93323859D01*
X106098471Y-93323859D01*
G37*
G36*
X109996627Y-92012299D02*
G01*
X110076742Y-92036601D01*
X110156855Y-92060903D01*
X110156857Y-92060904D01*
X110304518Y-92139831D01*
X110433949Y-92246051D01*
X110540169Y-92375482D01*
X110619096Y-92523143D01*
X110667701Y-92683373D01*
X110684112Y-92850000D01*
X110667701Y-93016627D01*
X110619096Y-93176857D01*
X110540169Y-93324518D01*
X110433949Y-93453949D01*
X110304518Y-93560169D01*
X110211235Y-93610030D01*
X110156855Y-93639097D01*
X110076742Y-93663398D01*
X109996627Y-93687701D01*
X109871752Y-93700000D01*
X109788248Y-93700000D01*
X109663373Y-93687701D01*
X109583258Y-93663398D01*
X109503145Y-93639097D01*
X109448765Y-93610030D01*
X109355482Y-93560169D01*
X109226051Y-93453949D01*
X109119831Y-93324518D01*
X109040904Y-93176857D01*
X108992299Y-93016627D01*
X108975888Y-92850000D01*
X108992299Y-92683373D01*
X109040904Y-92523143D01*
X109119831Y-92375482D01*
X109226051Y-92246051D01*
X109355482Y-92139831D01*
X109503143Y-92060904D01*
X109503145Y-92060903D01*
X109583258Y-92036601D01*
X109663373Y-92012299D01*
X109788248Y-92000000D01*
X109871752Y-92000000D01*
X109996627Y-92012299D01*
X109996627Y-92012299D01*
G37*
G36*
X110680000Y-91160000D02*
G01*
X108980000Y-91160000D01*
X108980000Y-89460000D01*
X110680000Y-89460000D01*
X110680000Y-91160000D01*
X110680000Y-91160000D01*
G37*
G36*
X131650026Y-87886115D02*
G01*
X131824257Y-87958284D01*
X131868413Y-87976574D01*
X132064955Y-88107899D01*
X132232101Y-88275045D01*
X132344563Y-88443356D01*
X132363427Y-88471589D01*
X132453885Y-88689974D01*
X132500000Y-88921809D01*
X132500000Y-89158191D01*
X132453885Y-89390026D01*
X132413880Y-89486606D01*
X132363426Y-89608413D01*
X132232101Y-89804955D01*
X132064955Y-89972101D01*
X131868413Y-90103426D01*
X131868412Y-90103427D01*
X131868411Y-90103427D01*
X131650026Y-90193885D01*
X131418191Y-90240000D01*
X131181809Y-90240000D01*
X130949974Y-90193885D01*
X130731589Y-90103427D01*
X130731588Y-90103427D01*
X130731587Y-90103426D01*
X130535045Y-89972101D01*
X130367899Y-89804955D01*
X130236574Y-89608413D01*
X130186120Y-89486606D01*
X130146115Y-89390026D01*
X130100000Y-89158191D01*
X130100000Y-88921809D01*
X130146115Y-88689974D01*
X130236573Y-88471589D01*
X130255438Y-88443356D01*
X130367899Y-88275045D01*
X130535045Y-88107899D01*
X130731587Y-87976574D01*
X130775743Y-87958284D01*
X130949974Y-87886115D01*
X131181809Y-87840000D01*
X131418191Y-87840000D01*
X131650026Y-87886115D01*
X131650026Y-87886115D01*
G37*
G36*
X125000000Y-90240000D02*
G01*
X122600000Y-90240000D01*
X122600000Y-87840000D01*
X125000000Y-87840000D01*
X125000000Y-90240000D01*
X125000000Y-90240000D01*
G37*
G36*
X98478471Y-88243859D02*
G01*
X98556827Y-88251576D01*
X98707628Y-88297321D01*
X98707630Y-88297322D01*
X98846605Y-88371606D01*
X98968422Y-88471578D01*
X99068394Y-88593395D01*
X99082959Y-88620644D01*
X99142679Y-88732372D01*
X99188424Y-88883173D01*
X99203870Y-89040000D01*
X99188424Y-89196827D01*
X99142679Y-89347628D01*
X99142678Y-89347630D01*
X99068394Y-89486605D01*
X98968422Y-89608422D01*
X98846605Y-89708394D01*
X98707630Y-89782678D01*
X98707628Y-89782679D01*
X98556827Y-89828424D01*
X98478471Y-89836141D01*
X98439294Y-89840000D01*
X98360706Y-89840000D01*
X98321529Y-89836141D01*
X98243173Y-89828424D01*
X98092372Y-89782679D01*
X98092370Y-89782678D01*
X97953395Y-89708394D01*
X97831578Y-89608422D01*
X97731606Y-89486605D01*
X97657322Y-89347630D01*
X97657321Y-89347628D01*
X97611576Y-89196827D01*
X97596130Y-89040000D01*
X97611576Y-88883173D01*
X97657321Y-88732372D01*
X97717041Y-88620644D01*
X97731606Y-88593395D01*
X97831578Y-88471578D01*
X97953395Y-88371606D01*
X98092370Y-88297322D01*
X98092372Y-88297321D01*
X98243173Y-88251576D01*
X98321529Y-88243859D01*
X98360706Y-88240000D01*
X98439294Y-88240000D01*
X98478471Y-88243859D01*
X98478471Y-88243859D01*
G37*
G36*
X106253351Y-88270743D02*
G01*
X106398941Y-88331048D01*
X106529970Y-88418599D01*
X106641401Y-88530030D01*
X106728952Y-88661059D01*
X106789257Y-88806649D01*
X106820000Y-88961206D01*
X106820000Y-89118794D01*
X106789257Y-89273351D01*
X106728952Y-89418941D01*
X106641401Y-89549970D01*
X106529970Y-89661401D01*
X106398941Y-89748952D01*
X106253351Y-89809257D01*
X106098794Y-89840000D01*
X105941206Y-89840000D01*
X105786649Y-89809257D01*
X105641059Y-89748952D01*
X105510030Y-89661401D01*
X105398599Y-89549970D01*
X105311048Y-89418941D01*
X105250743Y-89273351D01*
X105220000Y-89118794D01*
X105220000Y-88961206D01*
X105250743Y-88806649D01*
X105311048Y-88661059D01*
X105398599Y-88530030D01*
X105510030Y-88418599D01*
X105641059Y-88331048D01*
X105786649Y-88270743D01*
X105941206Y-88240000D01*
X106098794Y-88240000D01*
X106253351Y-88270743D01*
X106253351Y-88270743D01*
G37*
G36*
X76818520Y-87666586D02*
G01*
X76877961Y-87691207D01*
X76982310Y-87734430D01*
X77129717Y-87832924D01*
X77255076Y-87958283D01*
X77334821Y-88077630D01*
X77353571Y-88105692D01*
X77421414Y-88269480D01*
X77456000Y-88443356D01*
X77456000Y-88620644D01*
X77442209Y-88689974D01*
X77421414Y-88794520D01*
X77353570Y-88958310D01*
X77255076Y-89105717D01*
X77129717Y-89231076D01*
X76982310Y-89329570D01*
X76982309Y-89329571D01*
X76982308Y-89329571D01*
X76818520Y-89397414D01*
X76644644Y-89432000D01*
X76467356Y-89432000D01*
X76293480Y-89397414D01*
X76129692Y-89329571D01*
X76129691Y-89329571D01*
X76129690Y-89329570D01*
X75982283Y-89231076D01*
X75856924Y-89105717D01*
X75758430Y-88958310D01*
X75690586Y-88794520D01*
X75669791Y-88689974D01*
X75656000Y-88620644D01*
X75656000Y-88443356D01*
X75690586Y-88269480D01*
X75758429Y-88105692D01*
X75777179Y-88077630D01*
X75856924Y-87958283D01*
X75982283Y-87832924D01*
X76129690Y-87734430D01*
X76234040Y-87691207D01*
X76293480Y-87666586D01*
X76467356Y-87632000D01*
X76644644Y-87632000D01*
X76818520Y-87666586D01*
X76818520Y-87666586D01*
G37*
G36*
X79996000Y-89432000D02*
G01*
X78196000Y-89432000D01*
X78196000Y-87632000D01*
X79996000Y-87632000D01*
X79996000Y-89432000D01*
X79996000Y-89432000D01*
G37*
G36*
X89588471Y-86973859D02*
G01*
X89666827Y-86981576D01*
X89817628Y-87027321D01*
X89817630Y-87027322D01*
X89956605Y-87101606D01*
X89956607Y-87101607D01*
X89956606Y-87101607D01*
X90078422Y-87201578D01*
X90178393Y-87323394D01*
X90252679Y-87462372D01*
X90298424Y-87613173D01*
X90313870Y-87770000D01*
X90298424Y-87926827D01*
X90252679Y-88077628D01*
X90252678Y-88077630D01*
X90178394Y-88216605D01*
X90078422Y-88338422D01*
X89956605Y-88438394D01*
X89817630Y-88512678D01*
X89817628Y-88512679D01*
X89666827Y-88558424D01*
X89588471Y-88566141D01*
X89549294Y-88570000D01*
X89470706Y-88570000D01*
X89431529Y-88566141D01*
X89353173Y-88558424D01*
X89202372Y-88512679D01*
X89202370Y-88512678D01*
X89063395Y-88438394D01*
X88941578Y-88338422D01*
X88841606Y-88216605D01*
X88767322Y-88077630D01*
X88767321Y-88077628D01*
X88721576Y-87926827D01*
X88706130Y-87770000D01*
X88721576Y-87613173D01*
X88767321Y-87462372D01*
X88841607Y-87323394D01*
X88941578Y-87201578D01*
X89063394Y-87101607D01*
X89063393Y-87101607D01*
X89063395Y-87101606D01*
X89202370Y-87027322D01*
X89202372Y-87027321D01*
X89353173Y-86981576D01*
X89431529Y-86973859D01*
X89470706Y-86970000D01*
X89549294Y-86970000D01*
X89588471Y-86973859D01*
X89588471Y-86973859D01*
G37*
G36*
X82123351Y-87000743D02*
G01*
X82268941Y-87061048D01*
X82399970Y-87148599D01*
X82511401Y-87260030D01*
X82598952Y-87391059D01*
X82659257Y-87536649D01*
X82690000Y-87691206D01*
X82690000Y-87848794D01*
X82659257Y-88003351D01*
X82598952Y-88148941D01*
X82511401Y-88279970D01*
X82399970Y-88391401D01*
X82268941Y-88478952D01*
X82123351Y-88539257D01*
X81968794Y-88570000D01*
X81811206Y-88570000D01*
X81656649Y-88539257D01*
X81511059Y-88478952D01*
X81380030Y-88391401D01*
X81268599Y-88279970D01*
X81181048Y-88148941D01*
X81120743Y-88003351D01*
X81090000Y-87848794D01*
X81090000Y-87691206D01*
X81120743Y-87536649D01*
X81181048Y-87391059D01*
X81268599Y-87260030D01*
X81380030Y-87148599D01*
X81511059Y-87061048D01*
X81656649Y-87000743D01*
X81811206Y-86970000D01*
X81968794Y-86970000D01*
X82123351Y-87000743D01*
X82123351Y-87000743D01*
G37*
G36*
X85866627Y-78042299D02*
G01*
X85946742Y-78066601D01*
X86026855Y-78090903D01*
X86026857Y-78090904D01*
X86174518Y-78169831D01*
X86303949Y-78276051D01*
X86410168Y-78405481D01*
X86489097Y-78553145D01*
X86494929Y-78572372D01*
X86537701Y-78713373D01*
X86554112Y-78880000D01*
X86537701Y-79046627D01*
X86537700Y-79046629D01*
X86494929Y-79187630D01*
X86489096Y-79206857D01*
X86410169Y-79354518D01*
X86303949Y-79483949D01*
X86174518Y-79590169D01*
X86113698Y-79622678D01*
X86026855Y-79669097D01*
X85946742Y-79693398D01*
X85866627Y-79717701D01*
X85741752Y-79730000D01*
X85658248Y-79730000D01*
X85533373Y-79717701D01*
X85453258Y-79693399D01*
X85373145Y-79669097D01*
X85286302Y-79622678D01*
X85225482Y-79590169D01*
X85096051Y-79483949D01*
X84989831Y-79354518D01*
X84910904Y-79206857D01*
X84905072Y-79187630D01*
X84862300Y-79046629D01*
X84862299Y-79046627D01*
X84845888Y-78880000D01*
X84862299Y-78713373D01*
X84905071Y-78572372D01*
X84910903Y-78553145D01*
X84989832Y-78405481D01*
X85096051Y-78276051D01*
X85225482Y-78169831D01*
X85373143Y-78090904D01*
X85373145Y-78090903D01*
X85453258Y-78066601D01*
X85533373Y-78042299D01*
X85658248Y-78030000D01*
X85741752Y-78030000D01*
X85866627Y-78042299D01*
X85866627Y-78042299D01*
G37*
G36*
X97363351Y-78110743D02*
G01*
X97508941Y-78171048D01*
X97639970Y-78258599D01*
X97751401Y-78370030D01*
X97838952Y-78501059D01*
X97899257Y-78646649D01*
X97930000Y-78801206D01*
X97930000Y-78958794D01*
X97899257Y-79113351D01*
X97838952Y-79258941D01*
X97751401Y-79389970D01*
X97639970Y-79501401D01*
X97508941Y-79588952D01*
X97363351Y-79649257D01*
X97208794Y-79680000D01*
X97051206Y-79680000D01*
X96896649Y-79649257D01*
X96751059Y-79588952D01*
X96620030Y-79501401D01*
X96508599Y-79389970D01*
X96421048Y-79258941D01*
X96360743Y-79113351D01*
X96330000Y-78958794D01*
X96330000Y-78801206D01*
X96360743Y-78646649D01*
X96421048Y-78501059D01*
X96508599Y-78370030D01*
X96620030Y-78258599D01*
X96751059Y-78171048D01*
X96896649Y-78110743D01*
X97051206Y-78080000D01*
X97208794Y-78080000D01*
X97363351Y-78110743D01*
X97363351Y-78110743D01*
G37*
G36*
X89588471Y-78083859D02*
G01*
X89666827Y-78091576D01*
X89817628Y-78137321D01*
X89817630Y-78137322D01*
X89956605Y-78211606D01*
X90078422Y-78311578D01*
X90155487Y-78405482D01*
X90178393Y-78433394D01*
X90252679Y-78572372D01*
X90298424Y-78723173D01*
X90313870Y-78880000D01*
X90298424Y-79036827D01*
X90252679Y-79187628D01*
X90252678Y-79187630D01*
X90178394Y-79326605D01*
X90078422Y-79448422D01*
X89956605Y-79548394D01*
X89817630Y-79622678D01*
X89817628Y-79622679D01*
X89666827Y-79668424D01*
X89588471Y-79676141D01*
X89549294Y-79680000D01*
X89470706Y-79680000D01*
X89431529Y-79676141D01*
X89353173Y-79668424D01*
X89202372Y-79622679D01*
X89202370Y-79622678D01*
X89063395Y-79548394D01*
X88941578Y-79448422D01*
X88841606Y-79326605D01*
X88767322Y-79187630D01*
X88767321Y-79187628D01*
X88721576Y-79036827D01*
X88706130Y-78880000D01*
X88721576Y-78723173D01*
X88767321Y-78572372D01*
X88841607Y-78433394D01*
X88864514Y-78405482D01*
X88941578Y-78311578D01*
X89063395Y-78211606D01*
X89202370Y-78137322D01*
X89202372Y-78137321D01*
X89353173Y-78091576D01*
X89431529Y-78083859D01*
X89470706Y-78080000D01*
X89549294Y-78080000D01*
X89588471Y-78083859D01*
X89588471Y-78083859D01*
G37*
G36*
X85866627Y-75502299D02*
G01*
X85913791Y-75516606D01*
X86026855Y-75550903D01*
X86026857Y-75550904D01*
X86174518Y-75629831D01*
X86303949Y-75736051D01*
X86410169Y-75865482D01*
X86489096Y-76013143D01*
X86537701Y-76173373D01*
X86554112Y-76340000D01*
X86537701Y-76506627D01*
X86489096Y-76666857D01*
X86410169Y-76814518D01*
X86303949Y-76943949D01*
X86174518Y-77050169D01*
X86026857Y-77129096D01*
X86026855Y-77129097D01*
X85946742Y-77153399D01*
X85866627Y-77177701D01*
X85741752Y-77190000D01*
X85658248Y-77190000D01*
X85533373Y-77177701D01*
X85453258Y-77153399D01*
X85373145Y-77129097D01*
X85373143Y-77129096D01*
X85225482Y-77050169D01*
X85096051Y-76943949D01*
X84989831Y-76814518D01*
X84910904Y-76666857D01*
X84862299Y-76506627D01*
X84845888Y-76340000D01*
X84862299Y-76173373D01*
X84910904Y-76013143D01*
X84989831Y-75865482D01*
X85096051Y-75736051D01*
X85225482Y-75629831D01*
X85373143Y-75550904D01*
X85373145Y-75550903D01*
X85486209Y-75516606D01*
X85533373Y-75502299D01*
X85658248Y-75490000D01*
X85741752Y-75490000D01*
X85866627Y-75502299D01*
X85866627Y-75502299D01*
G37*
G36*
X97208471Y-74273859D02*
G01*
X97286827Y-74281576D01*
X97437628Y-74327321D01*
X97437630Y-74327322D01*
X97576605Y-74401606D01*
X97698422Y-74501578D01*
X97798394Y-74623395D01*
X97834561Y-74691058D01*
X97872679Y-74762372D01*
X97918424Y-74913173D01*
X97933870Y-75070000D01*
X97918424Y-75226827D01*
X97872679Y-75377628D01*
X97872678Y-75377630D01*
X97798394Y-75516605D01*
X97698422Y-75638422D01*
X97576605Y-75738394D01*
X97437630Y-75812678D01*
X97437628Y-75812679D01*
X97286827Y-75858424D01*
X97215165Y-75865482D01*
X97169294Y-75870000D01*
X97090706Y-75870000D01*
X97044835Y-75865482D01*
X96973173Y-75858424D01*
X96822372Y-75812679D01*
X96822370Y-75812678D01*
X96683395Y-75738394D01*
X96561578Y-75638422D01*
X96461606Y-75516605D01*
X96387322Y-75377630D01*
X96387321Y-75377628D01*
X96341576Y-75226827D01*
X96326130Y-75070000D01*
X96341576Y-74913173D01*
X96387321Y-74762372D01*
X96425439Y-74691058D01*
X96461606Y-74623395D01*
X96561578Y-74501578D01*
X96683395Y-74401606D01*
X96822370Y-74327322D01*
X96822372Y-74327321D01*
X96973173Y-74281576D01*
X97051529Y-74273859D01*
X97090706Y-74270000D01*
X97169294Y-74270000D01*
X97208471Y-74273859D01*
X97208471Y-74273859D01*
G37*
G36*
X89743351Y-74300743D02*
G01*
X89888941Y-74361048D01*
X90019970Y-74448599D01*
X90131401Y-74560030D01*
X90218952Y-74691059D01*
X90279257Y-74836649D01*
X90310000Y-74991206D01*
X90310000Y-75148794D01*
X90279257Y-75303351D01*
X90218952Y-75448941D01*
X90131401Y-75579970D01*
X90019970Y-75691401D01*
X89888941Y-75778952D01*
X89743351Y-75839257D01*
X89588794Y-75870000D01*
X89431206Y-75870000D01*
X89276649Y-75839257D01*
X89131059Y-75778952D01*
X89000030Y-75691401D01*
X88888599Y-75579970D01*
X88801048Y-75448941D01*
X88740743Y-75303351D01*
X88710000Y-75148794D01*
X88710000Y-74991206D01*
X88740743Y-74836649D01*
X88801048Y-74691059D01*
X88888599Y-74560030D01*
X89000030Y-74448599D01*
X89131059Y-74361048D01*
X89276649Y-74300743D01*
X89431206Y-74270000D01*
X89588794Y-74270000D01*
X89743351Y-74300743D01*
X89743351Y-74300743D01*
G37*
G36*
X85866627Y-72962299D02*
G01*
X85946742Y-72986601D01*
X86026855Y-73010903D01*
X86026857Y-73010904D01*
X86174518Y-73089831D01*
X86303949Y-73196051D01*
X86410169Y-73325482D01*
X86489096Y-73473143D01*
X86489097Y-73473145D01*
X86493109Y-73486372D01*
X86537701Y-73633373D01*
X86554112Y-73800000D01*
X86537701Y-73966627D01*
X86537700Y-73966629D01*
X86496749Y-74101630D01*
X86489096Y-74126857D01*
X86410169Y-74274518D01*
X86303949Y-74403949D01*
X86174518Y-74510169D01*
X86081235Y-74560030D01*
X86026855Y-74589097D01*
X85946742Y-74613399D01*
X85866627Y-74637701D01*
X85741752Y-74650000D01*
X85658248Y-74650000D01*
X85533373Y-74637701D01*
X85453258Y-74613399D01*
X85373145Y-74589097D01*
X85318765Y-74560030D01*
X85225482Y-74510169D01*
X85096051Y-74403949D01*
X84989831Y-74274518D01*
X84910904Y-74126857D01*
X84903252Y-74101630D01*
X84862300Y-73966629D01*
X84862299Y-73966627D01*
X84845888Y-73800000D01*
X84862299Y-73633373D01*
X84906891Y-73486372D01*
X84910903Y-73473145D01*
X84910904Y-73473143D01*
X84989831Y-73325482D01*
X85096051Y-73196051D01*
X85225482Y-73089831D01*
X85373143Y-73010904D01*
X85373145Y-73010903D01*
X85453258Y-72986602D01*
X85533373Y-72962299D01*
X85658248Y-72950000D01*
X85741752Y-72950000D01*
X85866627Y-72962299D01*
X85866627Y-72962299D01*
G37*
G36*
X107202627Y-72962299D02*
G01*
X107282742Y-72986601D01*
X107362855Y-73010903D01*
X107362857Y-73010904D01*
X107510518Y-73089831D01*
X107639949Y-73196051D01*
X107746169Y-73325482D01*
X107825096Y-73473143D01*
X107825097Y-73473145D01*
X107829109Y-73486372D01*
X107873701Y-73633373D01*
X107890112Y-73800000D01*
X107873701Y-73966627D01*
X107873700Y-73966629D01*
X107832749Y-74101630D01*
X107825096Y-74126857D01*
X107746169Y-74274518D01*
X107639949Y-74403949D01*
X107510518Y-74510169D01*
X107417235Y-74560030D01*
X107362855Y-74589097D01*
X107282742Y-74613399D01*
X107202627Y-74637701D01*
X107077752Y-74650000D01*
X106994248Y-74650000D01*
X106869373Y-74637701D01*
X106789258Y-74613399D01*
X106709145Y-74589097D01*
X106654765Y-74560030D01*
X106561482Y-74510169D01*
X106432051Y-74403949D01*
X106325831Y-74274518D01*
X106246904Y-74126857D01*
X106239252Y-74101630D01*
X106198300Y-73966629D01*
X106198299Y-73966627D01*
X106181888Y-73800000D01*
X106198299Y-73633373D01*
X106242891Y-73486372D01*
X106246903Y-73473145D01*
X106246904Y-73473143D01*
X106325831Y-73325482D01*
X106432051Y-73196051D01*
X106561482Y-73089831D01*
X106709143Y-73010904D01*
X106709145Y-73010903D01*
X106789258Y-72986602D01*
X106869373Y-72962299D01*
X106994248Y-72950000D01*
X107077752Y-72950000D01*
X107202627Y-72962299D01*
X107202627Y-72962299D01*
G37*
G36*
X110426000Y-74650000D02*
G01*
X108726000Y-74650000D01*
X108726000Y-72950000D01*
X110426000Y-72950000D01*
X110426000Y-74650000D01*
X110426000Y-74650000D01*
G37*
G36*
X133018471Y-72997859D02*
G01*
X133096827Y-73005576D01*
X133247628Y-73051321D01*
X133247630Y-73051322D01*
X133386605Y-73125606D01*
X133508422Y-73225578D01*
X133590411Y-73325482D01*
X133608393Y-73347394D01*
X133682679Y-73486372D01*
X133728424Y-73637173D01*
X133743870Y-73794000D01*
X133728424Y-73950827D01*
X133682679Y-74101628D01*
X133682678Y-74101630D01*
X133608394Y-74240605D01*
X133508422Y-74362422D01*
X133386605Y-74462394D01*
X133247630Y-74536678D01*
X133247628Y-74536679D01*
X133096827Y-74582424D01*
X133029074Y-74589097D01*
X132979294Y-74594000D01*
X132900706Y-74594000D01*
X132850926Y-74589097D01*
X132783173Y-74582424D01*
X132632372Y-74536679D01*
X132632370Y-74536678D01*
X132493395Y-74462394D01*
X132371578Y-74362422D01*
X132271606Y-74240605D01*
X132197322Y-74101630D01*
X132197321Y-74101628D01*
X132151576Y-73950827D01*
X132136130Y-73794000D01*
X132151576Y-73637173D01*
X132197321Y-73486372D01*
X132271607Y-73347394D01*
X132289590Y-73325482D01*
X132371578Y-73225578D01*
X132493395Y-73125606D01*
X132632370Y-73051322D01*
X132632372Y-73051321D01*
X132783173Y-73005576D01*
X132861529Y-72997859D01*
X132900706Y-72994000D01*
X132979294Y-72994000D01*
X133018471Y-72997859D01*
X133018471Y-72997859D01*
G37*
G36*
X115960000Y-74594000D02*
G01*
X114360000Y-74594000D01*
X114360000Y-72994000D01*
X115960000Y-72994000D01*
X115960000Y-74594000D01*
X115960000Y-74594000D01*
G37*
G36*
X117778471Y-72997859D02*
G01*
X117856827Y-73005576D01*
X118007628Y-73051321D01*
X118007630Y-73051322D01*
X118146605Y-73125606D01*
X118268422Y-73225578D01*
X118350411Y-73325482D01*
X118368393Y-73347394D01*
X118442679Y-73486372D01*
X118488424Y-73637173D01*
X118503870Y-73794000D01*
X118488424Y-73950827D01*
X118442679Y-74101628D01*
X118442678Y-74101630D01*
X118368394Y-74240605D01*
X118268422Y-74362422D01*
X118146605Y-74462394D01*
X118007630Y-74536678D01*
X118007628Y-74536679D01*
X117856827Y-74582424D01*
X117789074Y-74589097D01*
X117739294Y-74594000D01*
X117660706Y-74594000D01*
X117610926Y-74589097D01*
X117543173Y-74582424D01*
X117392372Y-74536679D01*
X117392370Y-74536678D01*
X117253395Y-74462394D01*
X117131578Y-74362422D01*
X117031606Y-74240605D01*
X116957322Y-74101630D01*
X116957321Y-74101628D01*
X116911576Y-73950827D01*
X116896130Y-73794000D01*
X116911576Y-73637173D01*
X116957321Y-73486372D01*
X117031607Y-73347394D01*
X117049590Y-73325482D01*
X117131578Y-73225578D01*
X117253395Y-73125606D01*
X117392370Y-73051322D01*
X117392372Y-73051321D01*
X117543173Y-73005576D01*
X117621529Y-72997859D01*
X117660706Y-72994000D01*
X117739294Y-72994000D01*
X117778471Y-72997859D01*
X117778471Y-72997859D01*
G37*
G36*
X120318471Y-72997859D02*
G01*
X120396827Y-73005576D01*
X120547628Y-73051321D01*
X120547630Y-73051322D01*
X120686605Y-73125606D01*
X120808422Y-73225578D01*
X120890411Y-73325482D01*
X120908393Y-73347394D01*
X120982679Y-73486372D01*
X121028424Y-73637173D01*
X121043870Y-73794000D01*
X121028424Y-73950827D01*
X120982679Y-74101628D01*
X120982678Y-74101630D01*
X120908394Y-74240605D01*
X120808422Y-74362422D01*
X120686605Y-74462394D01*
X120547630Y-74536678D01*
X120547628Y-74536679D01*
X120396827Y-74582424D01*
X120329074Y-74589097D01*
X120279294Y-74594000D01*
X120200706Y-74594000D01*
X120150926Y-74589097D01*
X120083173Y-74582424D01*
X119932372Y-74536679D01*
X119932370Y-74536678D01*
X119793395Y-74462394D01*
X119671578Y-74362422D01*
X119571606Y-74240605D01*
X119497322Y-74101630D01*
X119497321Y-74101628D01*
X119451576Y-73950827D01*
X119436130Y-73794000D01*
X119451576Y-73637173D01*
X119497321Y-73486372D01*
X119571607Y-73347394D01*
X119589590Y-73325482D01*
X119671578Y-73225578D01*
X119793395Y-73125606D01*
X119932370Y-73051322D01*
X119932372Y-73051321D01*
X120083173Y-73005576D01*
X120161529Y-72997859D01*
X120200706Y-72994000D01*
X120279294Y-72994000D01*
X120318471Y-72997859D01*
X120318471Y-72997859D01*
G37*
G36*
X125398471Y-72997859D02*
G01*
X125476827Y-73005576D01*
X125627628Y-73051321D01*
X125627630Y-73051322D01*
X125766605Y-73125606D01*
X125888422Y-73225578D01*
X125970411Y-73325482D01*
X125988393Y-73347394D01*
X126062679Y-73486372D01*
X126108424Y-73637173D01*
X126123870Y-73794000D01*
X126108424Y-73950827D01*
X126062679Y-74101628D01*
X126062678Y-74101630D01*
X125988394Y-74240605D01*
X125888422Y-74362422D01*
X125766605Y-74462394D01*
X125627630Y-74536678D01*
X125627628Y-74536679D01*
X125476827Y-74582424D01*
X125409074Y-74589097D01*
X125359294Y-74594000D01*
X125280706Y-74594000D01*
X125230926Y-74589097D01*
X125163173Y-74582424D01*
X125012372Y-74536679D01*
X125012370Y-74536678D01*
X124873395Y-74462394D01*
X124751578Y-74362422D01*
X124651606Y-74240605D01*
X124577322Y-74101630D01*
X124577321Y-74101628D01*
X124531576Y-73950827D01*
X124516130Y-73794000D01*
X124531576Y-73637173D01*
X124577321Y-73486372D01*
X124651607Y-73347394D01*
X124669590Y-73325482D01*
X124751578Y-73225578D01*
X124873395Y-73125606D01*
X125012370Y-73051322D01*
X125012372Y-73051321D01*
X125163173Y-73005576D01*
X125241529Y-72997859D01*
X125280706Y-72994000D01*
X125359294Y-72994000D01*
X125398471Y-72997859D01*
X125398471Y-72997859D01*
G37*
G36*
X127938471Y-72997859D02*
G01*
X128016827Y-73005576D01*
X128167628Y-73051321D01*
X128167630Y-73051322D01*
X128306605Y-73125606D01*
X128428422Y-73225578D01*
X128510411Y-73325482D01*
X128528393Y-73347394D01*
X128602679Y-73486372D01*
X128648424Y-73637173D01*
X128663870Y-73794000D01*
X128648424Y-73950827D01*
X128602679Y-74101628D01*
X128602678Y-74101630D01*
X128528394Y-74240605D01*
X128428422Y-74362422D01*
X128306605Y-74462394D01*
X128167630Y-74536678D01*
X128167628Y-74536679D01*
X128016827Y-74582424D01*
X127949074Y-74589097D01*
X127899294Y-74594000D01*
X127820706Y-74594000D01*
X127770926Y-74589097D01*
X127703173Y-74582424D01*
X127552372Y-74536679D01*
X127552370Y-74536678D01*
X127413395Y-74462394D01*
X127291578Y-74362422D01*
X127191606Y-74240605D01*
X127117322Y-74101630D01*
X127117321Y-74101628D01*
X127071576Y-73950827D01*
X127056130Y-73794000D01*
X127071576Y-73637173D01*
X127117321Y-73486372D01*
X127191607Y-73347394D01*
X127209590Y-73325482D01*
X127291578Y-73225578D01*
X127413395Y-73125606D01*
X127552370Y-73051322D01*
X127552372Y-73051321D01*
X127703173Y-73005576D01*
X127781529Y-72997859D01*
X127820706Y-72994000D01*
X127899294Y-72994000D01*
X127938471Y-72997859D01*
X127938471Y-72997859D01*
G37*
G36*
X130478471Y-72997859D02*
G01*
X130556827Y-73005576D01*
X130707628Y-73051321D01*
X130707630Y-73051322D01*
X130846605Y-73125606D01*
X130968422Y-73225578D01*
X131050411Y-73325482D01*
X131068393Y-73347394D01*
X131142679Y-73486372D01*
X131188424Y-73637173D01*
X131203870Y-73794000D01*
X131188424Y-73950827D01*
X131142679Y-74101628D01*
X131142678Y-74101630D01*
X131068394Y-74240605D01*
X130968422Y-74362422D01*
X130846605Y-74462394D01*
X130707630Y-74536678D01*
X130707628Y-74536679D01*
X130556827Y-74582424D01*
X130489074Y-74589097D01*
X130439294Y-74594000D01*
X130360706Y-74594000D01*
X130310926Y-74589097D01*
X130243173Y-74582424D01*
X130092372Y-74536679D01*
X130092370Y-74536678D01*
X129953395Y-74462394D01*
X129831578Y-74362422D01*
X129731606Y-74240605D01*
X129657322Y-74101630D01*
X129657321Y-74101628D01*
X129611576Y-73950827D01*
X129596130Y-73794000D01*
X129611576Y-73637173D01*
X129657321Y-73486372D01*
X129731607Y-73347394D01*
X129749590Y-73325482D01*
X129831578Y-73225578D01*
X129953395Y-73125606D01*
X130092370Y-73051322D01*
X130092372Y-73051321D01*
X130243173Y-73005576D01*
X130321529Y-72997859D01*
X130360706Y-72994000D01*
X130439294Y-72994000D01*
X130478471Y-72997859D01*
X130478471Y-72997859D01*
G37*
G36*
X122858471Y-72997859D02*
G01*
X122936827Y-73005576D01*
X123087628Y-73051321D01*
X123087630Y-73051322D01*
X123226605Y-73125606D01*
X123348422Y-73225578D01*
X123430411Y-73325482D01*
X123448393Y-73347394D01*
X123522679Y-73486372D01*
X123568424Y-73637173D01*
X123583870Y-73794000D01*
X123568424Y-73950827D01*
X123522679Y-74101628D01*
X123522678Y-74101630D01*
X123448394Y-74240605D01*
X123348422Y-74362422D01*
X123226605Y-74462394D01*
X123087630Y-74536678D01*
X123087628Y-74536679D01*
X122936827Y-74582424D01*
X122869074Y-74589097D01*
X122819294Y-74594000D01*
X122740706Y-74594000D01*
X122690926Y-74589097D01*
X122623173Y-74582424D01*
X122472372Y-74536679D01*
X122472370Y-74536678D01*
X122333395Y-74462394D01*
X122211578Y-74362422D01*
X122111606Y-74240605D01*
X122037322Y-74101630D01*
X122037321Y-74101628D01*
X121991576Y-73950827D01*
X121976130Y-73794000D01*
X121991576Y-73637173D01*
X122037321Y-73486372D01*
X122111607Y-73347394D01*
X122129590Y-73325482D01*
X122211578Y-73225578D01*
X122333395Y-73125606D01*
X122472370Y-73051322D01*
X122472372Y-73051321D01*
X122623173Y-73005576D01*
X122701529Y-72997859D01*
X122740706Y-72994000D01*
X122819294Y-72994000D01*
X122858471Y-72997859D01*
X122858471Y-72997859D01*
G37*
G36*
X86550000Y-72110000D02*
G01*
X84850000Y-72110000D01*
X84850000Y-70410000D01*
X86550000Y-70410000D01*
X86550000Y-72110000D01*
X86550000Y-72110000D01*
G37*
G36*
X105170627Y-67882299D02*
G01*
X105250742Y-67906601D01*
X105330855Y-67930903D01*
X105330857Y-67930904D01*
X105478518Y-68009831D01*
X105607949Y-68116051D01*
X105714169Y-68245482D01*
X105793096Y-68393143D01*
X105841701Y-68553373D01*
X105858112Y-68720000D01*
X105841701Y-68886627D01*
X105793096Y-69046857D01*
X105714169Y-69194518D01*
X105607949Y-69323949D01*
X105478518Y-69430169D01*
X105330857Y-69509096D01*
X105330855Y-69509097D01*
X105250742Y-69533399D01*
X105170627Y-69557701D01*
X105045752Y-69570000D01*
X104962248Y-69570000D01*
X104837373Y-69557701D01*
X104757258Y-69533398D01*
X104677145Y-69509097D01*
X104677143Y-69509096D01*
X104529482Y-69430169D01*
X104400051Y-69323949D01*
X104293831Y-69194518D01*
X104214904Y-69046857D01*
X104166299Y-68886627D01*
X104149888Y-68720000D01*
X104166299Y-68553373D01*
X104214904Y-68393143D01*
X104293831Y-68245482D01*
X104400051Y-68116051D01*
X104529482Y-68009831D01*
X104677143Y-67930904D01*
X104677145Y-67930903D01*
X104757258Y-67906601D01*
X104837373Y-67882299D01*
X104962248Y-67870000D01*
X105045752Y-67870000D01*
X105170627Y-67882299D01*
X105170627Y-67882299D01*
G37*
G36*
X113474000Y-69570000D02*
G01*
X111774000Y-69570000D01*
X111774000Y-67870000D01*
X113474000Y-67870000D01*
X113474000Y-69570000D01*
X113474000Y-69570000D01*
G37*
G36*
X110250627Y-67882299D02*
G01*
X110330742Y-67906601D01*
X110410855Y-67930903D01*
X110410857Y-67930904D01*
X110558518Y-68009831D01*
X110687949Y-68116051D01*
X110794169Y-68245482D01*
X110873096Y-68393143D01*
X110921701Y-68553373D01*
X110938112Y-68720000D01*
X110921701Y-68886627D01*
X110873096Y-69046857D01*
X110794169Y-69194518D01*
X110687949Y-69323949D01*
X110558518Y-69430169D01*
X110410857Y-69509096D01*
X110410855Y-69509097D01*
X110330742Y-69533399D01*
X110250627Y-69557701D01*
X110125752Y-69570000D01*
X110042248Y-69570000D01*
X109917373Y-69557701D01*
X109837258Y-69533398D01*
X109757145Y-69509097D01*
X109757143Y-69509096D01*
X109609482Y-69430169D01*
X109480051Y-69323949D01*
X109373831Y-69194518D01*
X109294904Y-69046857D01*
X109246299Y-68886627D01*
X109229888Y-68720000D01*
X109246299Y-68553373D01*
X109294904Y-68393143D01*
X109373831Y-68245482D01*
X109480051Y-68116051D01*
X109609482Y-68009831D01*
X109757143Y-67930904D01*
X109757145Y-67930903D01*
X109837258Y-67906601D01*
X109917373Y-67882299D01*
X110042248Y-67870000D01*
X110125752Y-67870000D01*
X110250627Y-67882299D01*
X110250627Y-67882299D01*
G37*
G36*
X107710627Y-67882299D02*
G01*
X107790742Y-67906601D01*
X107870855Y-67930903D01*
X107870857Y-67930904D01*
X108018518Y-68009831D01*
X108147949Y-68116051D01*
X108254169Y-68245482D01*
X108333096Y-68393143D01*
X108381701Y-68553373D01*
X108398112Y-68720000D01*
X108381701Y-68886627D01*
X108333096Y-69046857D01*
X108254169Y-69194518D01*
X108147949Y-69323949D01*
X108018518Y-69430169D01*
X107870857Y-69509096D01*
X107870855Y-69509097D01*
X107790742Y-69533399D01*
X107710627Y-69557701D01*
X107585752Y-69570000D01*
X107502248Y-69570000D01*
X107377373Y-69557701D01*
X107297258Y-69533398D01*
X107217145Y-69509097D01*
X107217143Y-69509096D01*
X107069482Y-69430169D01*
X106940051Y-69323949D01*
X106833831Y-69194518D01*
X106754904Y-69046857D01*
X106706299Y-68886627D01*
X106689888Y-68720000D01*
X106706299Y-68553373D01*
X106754904Y-68393143D01*
X106833831Y-68245482D01*
X106940051Y-68116051D01*
X107069482Y-68009831D01*
X107217143Y-67930904D01*
X107217145Y-67930903D01*
X107297258Y-67906601D01*
X107377373Y-67882299D01*
X107502248Y-67870000D01*
X107585752Y-67870000D01*
X107710627Y-67882299D01*
X107710627Y-67882299D01*
G37*
G36*
X112448471Y-62843859D02*
G01*
X112526827Y-62851576D01*
X112677628Y-62897321D01*
X112677630Y-62897322D01*
X112816605Y-62971606D01*
X112822303Y-62976282D01*
X112938422Y-63071578D01*
X113038393Y-63193394D01*
X113112679Y-63332372D01*
X113158424Y-63483173D01*
X113173870Y-63640000D01*
X113158424Y-63796827D01*
X113124093Y-63910000D01*
X113112678Y-63947630D01*
X113038394Y-64086605D01*
X112938422Y-64208422D01*
X112816605Y-64308394D01*
X112677630Y-64382678D01*
X112677628Y-64382679D01*
X112526827Y-64428424D01*
X112448471Y-64436141D01*
X112409294Y-64440000D01*
X112330706Y-64440000D01*
X112291529Y-64436141D01*
X112213173Y-64428424D01*
X112062372Y-64382679D01*
X112062370Y-64382678D01*
X111923395Y-64308394D01*
X111801578Y-64208422D01*
X111701606Y-64086605D01*
X111627322Y-63947630D01*
X111615907Y-63910000D01*
X111581576Y-63796827D01*
X111566130Y-63640000D01*
X111581576Y-63483173D01*
X111627321Y-63332372D01*
X111701607Y-63193394D01*
X111801578Y-63071578D01*
X111917697Y-62976282D01*
X111923395Y-62971606D01*
X112062370Y-62897322D01*
X112062372Y-62897321D01*
X112213173Y-62851576D01*
X112291529Y-62843859D01*
X112330706Y-62840000D01*
X112409294Y-62840000D01*
X112448471Y-62843859D01*
X112448471Y-62843859D01*
G37*
G36*
X104983351Y-62870743D02*
G01*
X105128941Y-62931048D01*
X105259970Y-63018599D01*
X105371401Y-63130030D01*
X105458952Y-63261059D01*
X105519257Y-63406649D01*
X105550000Y-63561206D01*
X105550000Y-63718794D01*
X105519257Y-63873351D01*
X105458952Y-64018941D01*
X105371401Y-64149970D01*
X105259970Y-64261401D01*
X105128941Y-64348952D01*
X104983351Y-64409257D01*
X104828794Y-64440000D01*
X104671206Y-64440000D01*
X104516649Y-64409257D01*
X104371059Y-64348952D01*
X104240030Y-64261401D01*
X104128599Y-64149970D01*
X104041048Y-64018941D01*
X103980743Y-63873351D01*
X103950000Y-63718794D01*
X103950000Y-63561206D01*
X103980743Y-63406649D01*
X104041048Y-63261059D01*
X104128599Y-63130030D01*
X104240030Y-63018599D01*
X104371059Y-62931048D01*
X104516649Y-62870743D01*
X104671206Y-62840000D01*
X104828794Y-62840000D01*
X104983351Y-62870743D01*
X104983351Y-62870743D01*
G37*
G36*
X84827935Y-62242664D02*
G01*
X84982624Y-62306739D01*
X84982626Y-62306740D01*
X85121844Y-62399762D01*
X85240238Y-62518156D01*
X85333260Y-62657374D01*
X85333261Y-62657376D01*
X85397336Y-62812065D01*
X85430000Y-62976281D01*
X85430000Y-63143719D01*
X85397336Y-63307935D01*
X85356447Y-63406649D01*
X85333260Y-63462626D01*
X85240238Y-63601844D01*
X85121844Y-63720238D01*
X84982626Y-63813260D01*
X84982625Y-63813261D01*
X84982624Y-63813261D01*
X84827935Y-63877336D01*
X84663719Y-63910000D01*
X84496281Y-63910000D01*
X84332065Y-63877336D01*
X84177376Y-63813261D01*
X84177375Y-63813261D01*
X84177374Y-63813260D01*
X84038156Y-63720238D01*
X83919762Y-63601844D01*
X83826740Y-63462626D01*
X83803553Y-63406649D01*
X83762664Y-63307935D01*
X83730000Y-63143719D01*
X83730000Y-62976281D01*
X83762664Y-62812065D01*
X83826739Y-62657376D01*
X83826740Y-62657374D01*
X83919762Y-62518156D01*
X84038156Y-62399762D01*
X84177374Y-62306740D01*
X84177376Y-62306739D01*
X84332065Y-62242664D01*
X84496281Y-62210000D01*
X84663719Y-62210000D01*
X84827935Y-62242664D01*
X84827935Y-62242664D01*
G37*
G36*
X78327935Y-62242664D02*
G01*
X78482624Y-62306739D01*
X78482626Y-62306740D01*
X78621844Y-62399762D01*
X78740238Y-62518156D01*
X78833260Y-62657374D01*
X78833261Y-62657376D01*
X78897336Y-62812065D01*
X78930000Y-62976281D01*
X78930000Y-63143719D01*
X78897336Y-63307935D01*
X78856447Y-63406649D01*
X78833260Y-63462626D01*
X78740238Y-63601844D01*
X78621844Y-63720238D01*
X78482626Y-63813260D01*
X78482625Y-63813261D01*
X78482624Y-63813261D01*
X78327935Y-63877336D01*
X78163719Y-63910000D01*
X77996281Y-63910000D01*
X77832065Y-63877336D01*
X77677376Y-63813261D01*
X77677375Y-63813261D01*
X77677374Y-63813260D01*
X77538156Y-63720238D01*
X77419762Y-63601844D01*
X77326740Y-63462626D01*
X77303553Y-63406649D01*
X77262664Y-63307935D01*
X77230000Y-63143719D01*
X77230000Y-62976281D01*
X77262664Y-62812065D01*
X77326739Y-62657376D01*
X77326740Y-62657374D01*
X77419762Y-62518156D01*
X77538156Y-62399762D01*
X77677374Y-62306740D01*
X77677376Y-62306739D01*
X77832065Y-62242664D01*
X77996281Y-62210000D01*
X78163719Y-62210000D01*
X78327935Y-62242664D01*
X78327935Y-62242664D01*
G37*
G36*
X104828471Y-59033859D02*
G01*
X104906827Y-59041576D01*
X105057628Y-59087321D01*
X105057630Y-59087322D01*
X105196605Y-59161606D01*
X105318422Y-59261578D01*
X105418394Y-59383395D01*
X105454561Y-59451058D01*
X105492679Y-59522372D01*
X105538424Y-59673173D01*
X105553870Y-59830000D01*
X105538424Y-59986827D01*
X105492679Y-60137628D01*
X105492678Y-60137630D01*
X105418394Y-60276605D01*
X105318422Y-60398422D01*
X105196605Y-60498394D01*
X105057630Y-60572678D01*
X105057628Y-60572679D01*
X104906827Y-60618424D01*
X104828471Y-60626141D01*
X104789294Y-60630000D01*
X104710706Y-60630000D01*
X104671529Y-60626141D01*
X104593173Y-60618424D01*
X104442372Y-60572679D01*
X104442370Y-60572678D01*
X104303395Y-60498394D01*
X104181578Y-60398422D01*
X104081606Y-60276605D01*
X104007322Y-60137630D01*
X104007321Y-60137628D01*
X103961576Y-59986827D01*
X103946130Y-59830000D01*
X103961576Y-59673173D01*
X104007321Y-59522372D01*
X104045439Y-59451058D01*
X104081606Y-59383395D01*
X104181578Y-59261578D01*
X104303395Y-59161606D01*
X104442370Y-59087322D01*
X104442372Y-59087321D01*
X104593173Y-59041576D01*
X104671529Y-59033859D01*
X104710706Y-59030000D01*
X104789294Y-59030000D01*
X104828471Y-59033859D01*
X104828471Y-59033859D01*
G37*
G36*
X112603351Y-59060743D02*
G01*
X112748941Y-59121048D01*
X112879970Y-59208599D01*
X112991401Y-59320030D01*
X113078952Y-59451059D01*
X113139257Y-59596649D01*
X113170000Y-59751206D01*
X113170000Y-59908794D01*
X113139257Y-60063351D01*
X113078952Y-60208941D01*
X112991401Y-60339970D01*
X112879970Y-60451401D01*
X112748941Y-60538952D01*
X112603351Y-60599257D01*
X112448794Y-60630000D01*
X112291206Y-60630000D01*
X112136649Y-60599257D01*
X111991059Y-60538952D01*
X111860030Y-60451401D01*
X111748599Y-60339970D01*
X111661048Y-60208941D01*
X111600743Y-60063351D01*
X111570000Y-59908794D01*
X111570000Y-59751206D01*
X111600743Y-59596649D01*
X111661048Y-59451059D01*
X111748599Y-59320030D01*
X111860030Y-59208599D01*
X111991059Y-59121048D01*
X112136649Y-59060743D01*
X112291206Y-59030000D01*
X112448794Y-59030000D01*
X112603351Y-59060743D01*
X112603351Y-59060743D01*
G37*
G36*
X84827935Y-57742664D02*
G01*
X84982624Y-57806739D01*
X84982626Y-57806740D01*
X85121844Y-57899762D01*
X85240238Y-58018156D01*
X85333260Y-58157374D01*
X85333261Y-58157376D01*
X85397336Y-58312065D01*
X85430000Y-58476281D01*
X85430000Y-58643719D01*
X85397336Y-58807935D01*
X85333261Y-58962624D01*
X85333260Y-58962626D01*
X85240238Y-59101844D01*
X85121844Y-59220238D01*
X84982626Y-59313260D01*
X84982625Y-59313261D01*
X84982624Y-59313261D01*
X84827935Y-59377336D01*
X84663719Y-59410000D01*
X84496281Y-59410000D01*
X84332065Y-59377336D01*
X84177376Y-59313261D01*
X84177375Y-59313261D01*
X84177374Y-59313260D01*
X84038156Y-59220238D01*
X83919762Y-59101844D01*
X83826740Y-58962626D01*
X83826739Y-58962624D01*
X83762664Y-58807935D01*
X83730000Y-58643719D01*
X83730000Y-58476281D01*
X83762664Y-58312065D01*
X83826739Y-58157376D01*
X83826740Y-58157374D01*
X83919762Y-58018156D01*
X84038156Y-57899762D01*
X84177374Y-57806740D01*
X84177376Y-57806739D01*
X84332065Y-57742664D01*
X84496281Y-57710000D01*
X84663719Y-57710000D01*
X84827935Y-57742664D01*
X84827935Y-57742664D01*
G37*
G36*
X78327935Y-57742664D02*
G01*
X78482624Y-57806739D01*
X78482626Y-57806740D01*
X78621844Y-57899762D01*
X78740238Y-58018156D01*
X78833260Y-58157374D01*
X78833261Y-58157376D01*
X78897336Y-58312065D01*
X78930000Y-58476281D01*
X78930000Y-58643719D01*
X78897336Y-58807935D01*
X78833261Y-58962624D01*
X78833260Y-58962626D01*
X78740238Y-59101844D01*
X78621844Y-59220238D01*
X78482626Y-59313260D01*
X78482625Y-59313261D01*
X78482624Y-59313261D01*
X78327935Y-59377336D01*
X78163719Y-59410000D01*
X77996281Y-59410000D01*
X77832065Y-59377336D01*
X77677376Y-59313261D01*
X77677375Y-59313261D01*
X77677374Y-59313260D01*
X77538156Y-59220238D01*
X77419762Y-59101844D01*
X77326740Y-58962626D01*
X77326739Y-58962624D01*
X77262664Y-58807935D01*
X77230000Y-58643719D01*
X77230000Y-58476281D01*
X77262664Y-58312065D01*
X77326739Y-58157376D01*
X77326740Y-58157374D01*
X77419762Y-58018156D01*
X77538156Y-57899762D01*
X77677374Y-57806740D01*
X77677376Y-57806739D01*
X77832065Y-57742664D01*
X77996281Y-57710000D01*
X78163719Y-57710000D01*
X78327935Y-57742664D01*
X78327935Y-57742664D01*
G37*
G36*
X88473351Y-57790743D02*
G01*
X88618941Y-57851048D01*
X88749970Y-57938599D01*
X88861401Y-58050030D01*
X88948952Y-58181059D01*
X89009257Y-58326649D01*
X89040000Y-58481206D01*
X89040000Y-58638794D01*
X89009257Y-58793351D01*
X88948952Y-58938941D01*
X88861401Y-59069970D01*
X88749970Y-59181401D01*
X88618941Y-59268952D01*
X88473351Y-59329257D01*
X88318794Y-59360000D01*
X88161206Y-59360000D01*
X88006649Y-59329257D01*
X87861059Y-59268952D01*
X87730030Y-59181401D01*
X87618599Y-59069970D01*
X87531048Y-58938941D01*
X87470743Y-58793351D01*
X87440000Y-58638794D01*
X87440000Y-58481206D01*
X87470743Y-58326649D01*
X87531048Y-58181059D01*
X87618599Y-58050030D01*
X87730030Y-57938599D01*
X87861059Y-57851048D01*
X88006649Y-57790743D01*
X88161206Y-57760000D01*
X88318794Y-57760000D01*
X88473351Y-57790743D01*
X88473351Y-57790743D01*
G37*
G36*
X95938471Y-57763859D02*
G01*
X96016827Y-57771576D01*
X96167628Y-57817321D01*
X96167630Y-57817322D01*
X96306605Y-57891606D01*
X96428422Y-57991578D01*
X96528394Y-58113395D01*
X96551901Y-58157374D01*
X96602679Y-58252372D01*
X96648424Y-58403173D01*
X96663870Y-58560000D01*
X96648424Y-58716827D01*
X96620786Y-58807936D01*
X96602678Y-58867630D01*
X96528394Y-59006605D01*
X96428422Y-59128422D01*
X96306605Y-59228394D01*
X96167630Y-59302678D01*
X96167628Y-59302679D01*
X96016827Y-59348424D01*
X95938471Y-59356141D01*
X95899294Y-59360000D01*
X95820706Y-59360000D01*
X95781529Y-59356141D01*
X95703173Y-59348424D01*
X95552372Y-59302679D01*
X95552370Y-59302678D01*
X95413395Y-59228394D01*
X95291578Y-59128422D01*
X95191606Y-59006605D01*
X95117322Y-58867630D01*
X95099214Y-58807936D01*
X95071576Y-58716827D01*
X95056130Y-58560000D01*
X95071576Y-58403173D01*
X95117321Y-58252372D01*
X95168099Y-58157374D01*
X95191606Y-58113395D01*
X95291578Y-57991578D01*
X95413395Y-57891606D01*
X95552370Y-57817322D01*
X95552372Y-57817321D01*
X95703173Y-57771576D01*
X95781529Y-57763859D01*
X95820706Y-57760000D01*
X95899294Y-57760000D01*
X95938471Y-57763859D01*
X95938471Y-57763859D01*
G37*
G36*
X115238471Y-57503859D02*
G01*
X115316827Y-57511576D01*
X115467628Y-57557321D01*
X115467630Y-57557322D01*
X115606605Y-57631606D01*
X115728422Y-57731578D01*
X115828394Y-57853395D01*
X115902255Y-57991578D01*
X115902679Y-57992372D01*
X115948424Y-58143173D01*
X115963870Y-58300000D01*
X115948424Y-58456827D01*
X115902679Y-58607628D01*
X115902678Y-58607630D01*
X115828394Y-58746605D01*
X115728422Y-58868422D01*
X115606605Y-58968394D01*
X115491349Y-59030000D01*
X115467628Y-59042679D01*
X115316827Y-59088424D01*
X115238471Y-59096141D01*
X115199294Y-59100000D01*
X115120706Y-59100000D01*
X115081529Y-59096141D01*
X115003173Y-59088424D01*
X114852372Y-59042679D01*
X114828651Y-59030000D01*
X114713395Y-58968394D01*
X114591578Y-58868422D01*
X114491606Y-58746605D01*
X114417322Y-58607630D01*
X114417321Y-58607628D01*
X114371576Y-58456827D01*
X114356130Y-58300000D01*
X114371576Y-58143173D01*
X114417321Y-57992372D01*
X114417745Y-57991578D01*
X114491606Y-57853395D01*
X114591578Y-57731578D01*
X114713395Y-57631606D01*
X114852370Y-57557322D01*
X114852372Y-57557321D01*
X115003173Y-57511576D01*
X115081529Y-57503859D01*
X115120706Y-57500000D01*
X115199294Y-57500000D01*
X115238471Y-57503859D01*
X115238471Y-57503859D01*
G37*
G36*
X127938471Y-57503859D02*
G01*
X128016827Y-57511576D01*
X128167628Y-57557321D01*
X128167630Y-57557322D01*
X128306605Y-57631606D01*
X128428422Y-57731578D01*
X128528394Y-57853395D01*
X128602255Y-57991578D01*
X128602679Y-57992372D01*
X128648424Y-58143173D01*
X128663870Y-58300000D01*
X128648424Y-58456827D01*
X128602679Y-58607628D01*
X128602678Y-58607630D01*
X128528394Y-58746605D01*
X128428422Y-58868422D01*
X128306605Y-58968394D01*
X128191349Y-59030000D01*
X128167628Y-59042679D01*
X128016827Y-59088424D01*
X127938471Y-59096141D01*
X127899294Y-59100000D01*
X127820706Y-59100000D01*
X127781529Y-59096141D01*
X127703173Y-59088424D01*
X127552372Y-59042679D01*
X127528651Y-59030000D01*
X127413395Y-58968394D01*
X127291578Y-58868422D01*
X127191606Y-58746605D01*
X127117322Y-58607630D01*
X127117321Y-58607628D01*
X127071576Y-58456827D01*
X127056130Y-58300000D01*
X127071576Y-58143173D01*
X127117321Y-57992372D01*
X127117745Y-57991578D01*
X127191606Y-57853395D01*
X127291578Y-57731578D01*
X127413395Y-57631606D01*
X127552370Y-57557322D01*
X127552372Y-57557321D01*
X127703173Y-57511576D01*
X127781529Y-57503859D01*
X127820706Y-57500000D01*
X127899294Y-57500000D01*
X127938471Y-57503859D01*
X127938471Y-57503859D01*
G37*
G36*
X125398471Y-57503859D02*
G01*
X125476827Y-57511576D01*
X125627628Y-57557321D01*
X125627630Y-57557322D01*
X125766605Y-57631606D01*
X125888422Y-57731578D01*
X125988394Y-57853395D01*
X126062255Y-57991578D01*
X126062679Y-57992372D01*
X126108424Y-58143173D01*
X126123870Y-58300000D01*
X126108424Y-58456827D01*
X126062679Y-58607628D01*
X126062678Y-58607630D01*
X125988394Y-58746605D01*
X125888422Y-58868422D01*
X125766605Y-58968394D01*
X125651349Y-59030000D01*
X125627628Y-59042679D01*
X125476827Y-59088424D01*
X125398471Y-59096141D01*
X125359294Y-59100000D01*
X125280706Y-59100000D01*
X125241529Y-59096141D01*
X125163173Y-59088424D01*
X125012372Y-59042679D01*
X124988651Y-59030000D01*
X124873395Y-58968394D01*
X124751578Y-58868422D01*
X124651606Y-58746605D01*
X124577322Y-58607630D01*
X124577321Y-58607628D01*
X124531576Y-58456827D01*
X124516130Y-58300000D01*
X124531576Y-58143173D01*
X124577321Y-57992372D01*
X124577745Y-57991578D01*
X124651606Y-57853395D01*
X124751578Y-57731578D01*
X124873395Y-57631606D01*
X125012370Y-57557322D01*
X125012372Y-57557321D01*
X125163173Y-57511576D01*
X125241529Y-57503859D01*
X125280706Y-57500000D01*
X125359294Y-57500000D01*
X125398471Y-57503859D01*
X125398471Y-57503859D01*
G37*
G36*
X122858471Y-57503859D02*
G01*
X122936827Y-57511576D01*
X123087628Y-57557321D01*
X123087630Y-57557322D01*
X123226605Y-57631606D01*
X123348422Y-57731578D01*
X123448394Y-57853395D01*
X123522255Y-57991578D01*
X123522679Y-57992372D01*
X123568424Y-58143173D01*
X123583870Y-58300000D01*
X123568424Y-58456827D01*
X123522679Y-58607628D01*
X123522678Y-58607630D01*
X123448394Y-58746605D01*
X123348422Y-58868422D01*
X123226605Y-58968394D01*
X123111349Y-59030000D01*
X123087628Y-59042679D01*
X122936827Y-59088424D01*
X122858471Y-59096141D01*
X122819294Y-59100000D01*
X122740706Y-59100000D01*
X122701529Y-59096141D01*
X122623173Y-59088424D01*
X122472372Y-59042679D01*
X122448651Y-59030000D01*
X122333395Y-58968394D01*
X122211578Y-58868422D01*
X122111606Y-58746605D01*
X122037322Y-58607630D01*
X122037321Y-58607628D01*
X121991576Y-58456827D01*
X121976130Y-58300000D01*
X121991576Y-58143173D01*
X122037321Y-57992372D01*
X122037745Y-57991578D01*
X122111606Y-57853395D01*
X122211578Y-57731578D01*
X122333395Y-57631606D01*
X122472370Y-57557322D01*
X122472372Y-57557321D01*
X122623173Y-57511576D01*
X122701529Y-57503859D01*
X122740706Y-57500000D01*
X122819294Y-57500000D01*
X122858471Y-57503859D01*
X122858471Y-57503859D01*
G37*
G36*
X117778471Y-57503859D02*
G01*
X117856827Y-57511576D01*
X118007628Y-57557321D01*
X118007630Y-57557322D01*
X118146605Y-57631606D01*
X118268422Y-57731578D01*
X118368394Y-57853395D01*
X118442255Y-57991578D01*
X118442679Y-57992372D01*
X118488424Y-58143173D01*
X118503870Y-58300000D01*
X118488424Y-58456827D01*
X118442679Y-58607628D01*
X118442678Y-58607630D01*
X118368394Y-58746605D01*
X118268422Y-58868422D01*
X118146605Y-58968394D01*
X118031349Y-59030000D01*
X118007628Y-59042679D01*
X117856827Y-59088424D01*
X117778471Y-59096141D01*
X117739294Y-59100000D01*
X117660706Y-59100000D01*
X117621529Y-59096141D01*
X117543173Y-59088424D01*
X117392372Y-59042679D01*
X117368651Y-59030000D01*
X117253395Y-58968394D01*
X117131578Y-58868422D01*
X117031606Y-58746605D01*
X116957322Y-58607630D01*
X116957321Y-58607628D01*
X116911576Y-58456827D01*
X116896130Y-58300000D01*
X116911576Y-58143173D01*
X116957321Y-57992372D01*
X116957745Y-57991578D01*
X117031606Y-57853395D01*
X117131578Y-57731578D01*
X117253395Y-57631606D01*
X117392370Y-57557322D01*
X117392372Y-57557321D01*
X117543173Y-57511576D01*
X117621529Y-57503859D01*
X117660706Y-57500000D01*
X117739294Y-57500000D01*
X117778471Y-57503859D01*
X117778471Y-57503859D01*
G37*
G36*
X130478471Y-57503859D02*
G01*
X130556827Y-57511576D01*
X130707628Y-57557321D01*
X130707630Y-57557322D01*
X130846605Y-57631606D01*
X130968422Y-57731578D01*
X131068394Y-57853395D01*
X131142255Y-57991578D01*
X131142679Y-57992372D01*
X131188424Y-58143173D01*
X131203870Y-58300000D01*
X131188424Y-58456827D01*
X131142679Y-58607628D01*
X131142678Y-58607630D01*
X131068394Y-58746605D01*
X130968422Y-58868422D01*
X130846605Y-58968394D01*
X130731349Y-59030000D01*
X130707628Y-59042679D01*
X130556827Y-59088424D01*
X130478471Y-59096141D01*
X130439294Y-59100000D01*
X130360706Y-59100000D01*
X130321529Y-59096141D01*
X130243173Y-59088424D01*
X130092372Y-59042679D01*
X130068651Y-59030000D01*
X129953395Y-58968394D01*
X129831578Y-58868422D01*
X129731606Y-58746605D01*
X129657322Y-58607630D01*
X129657321Y-58607628D01*
X129611576Y-58456827D01*
X129596130Y-58300000D01*
X129611576Y-58143173D01*
X129657321Y-57992372D01*
X129657745Y-57991578D01*
X129731606Y-57853395D01*
X129831578Y-57731578D01*
X129953395Y-57631606D01*
X130092370Y-57557322D01*
X130092372Y-57557321D01*
X130243173Y-57511576D01*
X130321529Y-57503859D01*
X130360706Y-57500000D01*
X130439294Y-57500000D01*
X130478471Y-57503859D01*
X130478471Y-57503859D01*
G37*
G36*
X133018471Y-57503859D02*
G01*
X133096827Y-57511576D01*
X133247628Y-57557321D01*
X133247630Y-57557322D01*
X133386605Y-57631606D01*
X133508422Y-57731578D01*
X133608394Y-57853395D01*
X133682255Y-57991578D01*
X133682679Y-57992372D01*
X133728424Y-58143173D01*
X133743870Y-58300000D01*
X133728424Y-58456827D01*
X133682679Y-58607628D01*
X133682678Y-58607630D01*
X133608394Y-58746605D01*
X133508422Y-58868422D01*
X133386605Y-58968394D01*
X133271349Y-59030000D01*
X133247628Y-59042679D01*
X133096827Y-59088424D01*
X133018471Y-59096141D01*
X132979294Y-59100000D01*
X132900706Y-59100000D01*
X132861529Y-59096141D01*
X132783173Y-59088424D01*
X132632372Y-59042679D01*
X132608651Y-59030000D01*
X132493395Y-58968394D01*
X132371578Y-58868422D01*
X132271606Y-58746605D01*
X132197322Y-58607630D01*
X132197321Y-58607628D01*
X132151576Y-58456827D01*
X132136130Y-58300000D01*
X132151576Y-58143173D01*
X132197321Y-57992372D01*
X132197745Y-57991578D01*
X132271606Y-57853395D01*
X132371578Y-57731578D01*
X132493395Y-57631606D01*
X132632370Y-57557322D01*
X132632372Y-57557321D01*
X132783173Y-57511576D01*
X132861529Y-57503859D01*
X132900706Y-57500000D01*
X132979294Y-57500000D01*
X133018471Y-57503859D01*
X133018471Y-57503859D01*
G37*
G36*
X120318471Y-57503859D02*
G01*
X120396827Y-57511576D01*
X120547628Y-57557321D01*
X120547630Y-57557322D01*
X120686605Y-57631606D01*
X120808422Y-57731578D01*
X120908394Y-57853395D01*
X120982255Y-57991578D01*
X120982679Y-57992372D01*
X121028424Y-58143173D01*
X121043870Y-58300000D01*
X121028424Y-58456827D01*
X120982679Y-58607628D01*
X120982678Y-58607630D01*
X120908394Y-58746605D01*
X120808422Y-58868422D01*
X120686605Y-58968394D01*
X120571349Y-59030000D01*
X120547628Y-59042679D01*
X120396827Y-59088424D01*
X120318471Y-59096141D01*
X120279294Y-59100000D01*
X120200706Y-59100000D01*
X120161529Y-59096141D01*
X120083173Y-59088424D01*
X119932372Y-59042679D01*
X119908651Y-59030000D01*
X119793395Y-58968394D01*
X119671578Y-58868422D01*
X119571606Y-58746605D01*
X119497322Y-58607630D01*
X119497321Y-58607628D01*
X119451576Y-58456827D01*
X119436130Y-58300000D01*
X119451576Y-58143173D01*
X119497321Y-57992372D01*
X119497745Y-57991578D01*
X119571606Y-57853395D01*
X119671578Y-57731578D01*
X119793395Y-57631606D01*
X119932370Y-57557322D01*
X119932372Y-57557321D01*
X120083173Y-57511576D01*
X120161529Y-57503859D01*
X120200706Y-57500000D01*
X120279294Y-57500000D01*
X120318471Y-57503859D01*
X120318471Y-57503859D01*
G37*
G36*
X108726627Y-52642299D02*
G01*
X108806742Y-52666601D01*
X108886855Y-52690903D01*
X108886857Y-52690904D01*
X109034518Y-52769831D01*
X109163949Y-52876051D01*
X109270169Y-53005482D01*
X109349096Y-53153143D01*
X109397701Y-53313373D01*
X109414112Y-53480000D01*
X109397701Y-53646627D01*
X109349096Y-53806857D01*
X109270169Y-53954518D01*
X109163949Y-54083949D01*
X109034518Y-54190169D01*
X108886857Y-54269096D01*
X108886855Y-54269097D01*
X108806742Y-54293399D01*
X108726627Y-54317701D01*
X108601752Y-54330000D01*
X108518248Y-54330000D01*
X108393373Y-54317701D01*
X108313258Y-54293399D01*
X108233145Y-54269097D01*
X108233143Y-54269096D01*
X108085482Y-54190169D01*
X107956051Y-54083949D01*
X107849831Y-53954518D01*
X107770904Y-53806857D01*
X107722299Y-53646627D01*
X107705888Y-53480000D01*
X107722299Y-53313373D01*
X107770904Y-53153143D01*
X107849831Y-53005482D01*
X107956051Y-52876051D01*
X108085482Y-52769831D01*
X108233143Y-52690904D01*
X108233145Y-52690903D01*
X108313258Y-52666602D01*
X108393373Y-52642299D01*
X108518248Y-52630000D01*
X108601752Y-52630000D01*
X108726627Y-52642299D01*
X108726627Y-52642299D01*
G37*
G36*
X113806627Y-52642299D02*
G01*
X113886742Y-52666601D01*
X113966855Y-52690903D01*
X113966857Y-52690904D01*
X114114518Y-52769831D01*
X114243949Y-52876051D01*
X114350169Y-53005482D01*
X114429096Y-53153143D01*
X114477701Y-53313373D01*
X114494112Y-53480000D01*
X114477701Y-53646627D01*
X114429096Y-53806857D01*
X114350169Y-53954518D01*
X114243949Y-54083949D01*
X114114518Y-54190169D01*
X113966857Y-54269096D01*
X113966855Y-54269097D01*
X113886742Y-54293399D01*
X113806627Y-54317701D01*
X113681752Y-54330000D01*
X113598248Y-54330000D01*
X113473373Y-54317701D01*
X113393258Y-54293399D01*
X113313145Y-54269097D01*
X113313143Y-54269096D01*
X113165482Y-54190169D01*
X113036051Y-54083949D01*
X112929831Y-53954518D01*
X112850904Y-53806857D01*
X112802299Y-53646627D01*
X112785888Y-53480000D01*
X112802299Y-53313373D01*
X112850904Y-53153143D01*
X112929831Y-53005482D01*
X113036051Y-52876051D01*
X113165482Y-52769831D01*
X113313143Y-52690904D01*
X113313145Y-52690903D01*
X113393258Y-52666602D01*
X113473373Y-52642299D01*
X113598248Y-52630000D01*
X113681752Y-52630000D01*
X113806627Y-52642299D01*
X113806627Y-52642299D01*
G37*
G36*
X116346627Y-52642299D02*
G01*
X116426742Y-52666601D01*
X116506855Y-52690903D01*
X116506857Y-52690904D01*
X116654518Y-52769831D01*
X116783949Y-52876051D01*
X116890169Y-53005482D01*
X116969096Y-53153143D01*
X117017701Y-53313373D01*
X117034112Y-53480000D01*
X117017701Y-53646627D01*
X116969096Y-53806857D01*
X116890169Y-53954518D01*
X116783949Y-54083949D01*
X116654518Y-54190169D01*
X116506857Y-54269096D01*
X116506855Y-54269097D01*
X116426742Y-54293399D01*
X116346627Y-54317701D01*
X116221752Y-54330000D01*
X116138248Y-54330000D01*
X116013373Y-54317701D01*
X115933258Y-54293399D01*
X115853145Y-54269097D01*
X115853143Y-54269096D01*
X115705482Y-54190169D01*
X115576051Y-54083949D01*
X115469831Y-53954518D01*
X115390904Y-53806857D01*
X115342299Y-53646627D01*
X115325888Y-53480000D01*
X115342299Y-53313373D01*
X115390904Y-53153143D01*
X115469831Y-53005482D01*
X115576051Y-52876051D01*
X115705482Y-52769831D01*
X115853143Y-52690904D01*
X115853145Y-52690903D01*
X115933258Y-52666602D01*
X116013373Y-52642299D01*
X116138248Y-52630000D01*
X116221752Y-52630000D01*
X116346627Y-52642299D01*
X116346627Y-52642299D01*
G37*
G36*
X118886627Y-52642299D02*
G01*
X118966742Y-52666601D01*
X119046855Y-52690903D01*
X119046857Y-52690904D01*
X119194518Y-52769831D01*
X119323949Y-52876051D01*
X119430169Y-53005482D01*
X119509096Y-53153143D01*
X119557701Y-53313373D01*
X119574112Y-53480000D01*
X119557701Y-53646627D01*
X119509096Y-53806857D01*
X119430169Y-53954518D01*
X119323949Y-54083949D01*
X119194518Y-54190169D01*
X119046857Y-54269096D01*
X119046855Y-54269097D01*
X118966742Y-54293399D01*
X118886627Y-54317701D01*
X118761752Y-54330000D01*
X118678248Y-54330000D01*
X118553373Y-54317701D01*
X118473258Y-54293399D01*
X118393145Y-54269097D01*
X118393143Y-54269096D01*
X118245482Y-54190169D01*
X118116051Y-54083949D01*
X118009831Y-53954518D01*
X117930904Y-53806857D01*
X117882299Y-53646627D01*
X117865888Y-53480000D01*
X117882299Y-53313373D01*
X117930904Y-53153143D01*
X118009831Y-53005482D01*
X118116051Y-52876051D01*
X118245482Y-52769831D01*
X118393143Y-52690904D01*
X118393145Y-52690903D01*
X118473258Y-52666602D01*
X118553373Y-52642299D01*
X118678248Y-52630000D01*
X118761752Y-52630000D01*
X118886627Y-52642299D01*
X118886627Y-52642299D01*
G37*
G36*
X121426627Y-52642299D02*
G01*
X121506742Y-52666601D01*
X121586855Y-52690903D01*
X121586857Y-52690904D01*
X121734518Y-52769831D01*
X121863949Y-52876051D01*
X121970169Y-53005482D01*
X122049096Y-53153143D01*
X122097701Y-53313373D01*
X122114112Y-53480000D01*
X122097701Y-53646627D01*
X122049096Y-53806857D01*
X121970169Y-53954518D01*
X121863949Y-54083949D01*
X121734518Y-54190169D01*
X121586857Y-54269096D01*
X121586855Y-54269097D01*
X121506742Y-54293399D01*
X121426627Y-54317701D01*
X121301752Y-54330000D01*
X121218248Y-54330000D01*
X121093373Y-54317701D01*
X121013258Y-54293399D01*
X120933145Y-54269097D01*
X120933143Y-54269096D01*
X120785482Y-54190169D01*
X120656051Y-54083949D01*
X120549831Y-53954518D01*
X120470904Y-53806857D01*
X120422299Y-53646627D01*
X120405888Y-53480000D01*
X120422299Y-53313373D01*
X120470904Y-53153143D01*
X120549831Y-53005482D01*
X120656051Y-52876051D01*
X120785482Y-52769831D01*
X120933143Y-52690904D01*
X120933145Y-52690903D01*
X121013258Y-52666602D01*
X121093373Y-52642299D01*
X121218248Y-52630000D01*
X121301752Y-52630000D01*
X121426627Y-52642299D01*
X121426627Y-52642299D01*
G37*
G36*
X123966627Y-52642299D02*
G01*
X124046742Y-52666601D01*
X124126855Y-52690903D01*
X124126857Y-52690904D01*
X124274518Y-52769831D01*
X124403949Y-52876051D01*
X124510169Y-53005482D01*
X124589096Y-53153143D01*
X124637701Y-53313373D01*
X124654112Y-53480000D01*
X124637701Y-53646627D01*
X124589096Y-53806857D01*
X124510169Y-53954518D01*
X124403949Y-54083949D01*
X124274518Y-54190169D01*
X124126857Y-54269096D01*
X124126855Y-54269097D01*
X124046742Y-54293399D01*
X123966627Y-54317701D01*
X123841752Y-54330000D01*
X123758248Y-54330000D01*
X123633373Y-54317701D01*
X123553258Y-54293399D01*
X123473145Y-54269097D01*
X123473143Y-54269096D01*
X123325482Y-54190169D01*
X123196051Y-54083949D01*
X123089831Y-53954518D01*
X123010904Y-53806857D01*
X122962299Y-53646627D01*
X122945888Y-53480000D01*
X122962299Y-53313373D01*
X123010904Y-53153143D01*
X123089831Y-53005482D01*
X123196051Y-52876051D01*
X123325482Y-52769831D01*
X123473143Y-52690904D01*
X123473145Y-52690903D01*
X123553258Y-52666602D01*
X123633373Y-52642299D01*
X123758248Y-52630000D01*
X123841752Y-52630000D01*
X123966627Y-52642299D01*
X123966627Y-52642299D01*
G37*
G36*
X126506627Y-52642299D02*
G01*
X126586742Y-52666601D01*
X126666855Y-52690903D01*
X126666857Y-52690904D01*
X126814518Y-52769831D01*
X126943949Y-52876051D01*
X127050169Y-53005482D01*
X127129096Y-53153143D01*
X127177701Y-53313373D01*
X127194112Y-53480000D01*
X127177701Y-53646627D01*
X127129096Y-53806857D01*
X127050169Y-53954518D01*
X126943949Y-54083949D01*
X126814518Y-54190169D01*
X126666857Y-54269096D01*
X126666855Y-54269097D01*
X126586742Y-54293399D01*
X126506627Y-54317701D01*
X126381752Y-54330000D01*
X126298248Y-54330000D01*
X126173373Y-54317701D01*
X126093258Y-54293399D01*
X126013145Y-54269097D01*
X126013143Y-54269096D01*
X125865482Y-54190169D01*
X125736051Y-54083949D01*
X125629831Y-53954518D01*
X125550904Y-53806857D01*
X125502299Y-53646627D01*
X125485888Y-53480000D01*
X125502299Y-53313373D01*
X125550904Y-53153143D01*
X125629831Y-53005482D01*
X125736051Y-52876051D01*
X125865482Y-52769831D01*
X126013143Y-52690904D01*
X126013145Y-52690903D01*
X126093258Y-52666602D01*
X126173373Y-52642299D01*
X126298248Y-52630000D01*
X126381752Y-52630000D01*
X126506627Y-52642299D01*
X126506627Y-52642299D01*
G37*
G36*
X129046627Y-52642299D02*
G01*
X129126742Y-52666601D01*
X129206855Y-52690903D01*
X129206857Y-52690904D01*
X129354518Y-52769831D01*
X129483949Y-52876051D01*
X129590169Y-53005482D01*
X129669096Y-53153143D01*
X129717701Y-53313373D01*
X129734112Y-53480000D01*
X129717701Y-53646627D01*
X129669096Y-53806857D01*
X129590169Y-53954518D01*
X129483949Y-54083949D01*
X129354518Y-54190169D01*
X129206857Y-54269096D01*
X129206855Y-54269097D01*
X129126742Y-54293399D01*
X129046627Y-54317701D01*
X128921752Y-54330000D01*
X128838248Y-54330000D01*
X128713373Y-54317701D01*
X128633258Y-54293399D01*
X128553145Y-54269097D01*
X128553143Y-54269096D01*
X128405482Y-54190169D01*
X128276051Y-54083949D01*
X128169831Y-53954518D01*
X128090904Y-53806857D01*
X128042299Y-53646627D01*
X128025888Y-53480000D01*
X128042299Y-53313373D01*
X128090904Y-53153143D01*
X128169831Y-53005482D01*
X128276051Y-52876051D01*
X128405482Y-52769831D01*
X128553143Y-52690904D01*
X128553145Y-52690903D01*
X128633258Y-52666602D01*
X128713373Y-52642299D01*
X128838248Y-52630000D01*
X128921752Y-52630000D01*
X129046627Y-52642299D01*
X129046627Y-52642299D01*
G37*
G36*
X111266627Y-52642299D02*
G01*
X111346742Y-52666601D01*
X111426855Y-52690903D01*
X111426857Y-52690904D01*
X111574518Y-52769831D01*
X111703949Y-52876051D01*
X111810169Y-53005482D01*
X111889096Y-53153143D01*
X111937701Y-53313373D01*
X111954112Y-53480000D01*
X111937701Y-53646627D01*
X111889096Y-53806857D01*
X111810169Y-53954518D01*
X111703949Y-54083949D01*
X111574518Y-54190169D01*
X111426857Y-54269096D01*
X111426855Y-54269097D01*
X111346742Y-54293399D01*
X111266627Y-54317701D01*
X111141752Y-54330000D01*
X111058248Y-54330000D01*
X110933373Y-54317701D01*
X110853258Y-54293399D01*
X110773145Y-54269097D01*
X110773143Y-54269096D01*
X110625482Y-54190169D01*
X110496051Y-54083949D01*
X110389831Y-53954518D01*
X110310904Y-53806857D01*
X110262299Y-53646627D01*
X110245888Y-53480000D01*
X110262299Y-53313373D01*
X110310904Y-53153143D01*
X110389831Y-53005482D01*
X110496051Y-52876051D01*
X110625482Y-52769831D01*
X110773143Y-52690904D01*
X110773145Y-52690903D01*
X110853258Y-52666602D01*
X110933373Y-52642299D01*
X111058248Y-52630000D01*
X111141752Y-52630000D01*
X111266627Y-52642299D01*
X111266627Y-52642299D01*
G37*
G36*
X93486627Y-52642299D02*
G01*
X93566742Y-52666601D01*
X93646855Y-52690903D01*
X93646857Y-52690904D01*
X93794518Y-52769831D01*
X93923949Y-52876051D01*
X94030169Y-53005482D01*
X94109096Y-53153143D01*
X94157701Y-53313373D01*
X94174112Y-53480000D01*
X94157701Y-53646627D01*
X94109096Y-53806857D01*
X94030169Y-53954518D01*
X93923949Y-54083949D01*
X93794518Y-54190169D01*
X93646857Y-54269096D01*
X93646855Y-54269097D01*
X93566742Y-54293399D01*
X93486627Y-54317701D01*
X93361752Y-54330000D01*
X93278248Y-54330000D01*
X93153373Y-54317701D01*
X93073258Y-54293399D01*
X92993145Y-54269097D01*
X92993143Y-54269096D01*
X92845482Y-54190169D01*
X92716051Y-54083949D01*
X92609831Y-53954518D01*
X92530904Y-53806857D01*
X92482299Y-53646627D01*
X92465888Y-53480000D01*
X92482299Y-53313373D01*
X92530904Y-53153143D01*
X92609831Y-53005482D01*
X92716051Y-52876051D01*
X92845482Y-52769831D01*
X92993143Y-52690904D01*
X92993145Y-52690903D01*
X93073258Y-52666601D01*
X93153373Y-52642299D01*
X93278248Y-52630000D01*
X93361752Y-52630000D01*
X93486627Y-52642299D01*
X93486627Y-52642299D01*
G37*
G36*
X81470000Y-54330000D02*
G01*
X79770000Y-54330000D01*
X79770000Y-52630000D01*
X81470000Y-52630000D01*
X81470000Y-54330000D01*
X81470000Y-54330000D01*
G37*
G36*
X98566627Y-52642299D02*
G01*
X98646742Y-52666601D01*
X98726855Y-52690903D01*
X98726857Y-52690904D01*
X98874518Y-52769831D01*
X99003949Y-52876051D01*
X99110169Y-53005482D01*
X99189096Y-53153143D01*
X99237701Y-53313373D01*
X99254112Y-53480000D01*
X99237701Y-53646627D01*
X99189096Y-53806857D01*
X99110169Y-53954518D01*
X99003949Y-54083949D01*
X98874518Y-54190169D01*
X98726857Y-54269096D01*
X98726855Y-54269097D01*
X98646742Y-54293399D01*
X98566627Y-54317701D01*
X98441752Y-54330000D01*
X98358248Y-54330000D01*
X98233373Y-54317701D01*
X98153258Y-54293399D01*
X98073145Y-54269097D01*
X98073143Y-54269096D01*
X97925482Y-54190169D01*
X97796051Y-54083949D01*
X97689831Y-53954518D01*
X97610904Y-53806857D01*
X97562299Y-53646627D01*
X97545888Y-53480000D01*
X97562299Y-53313373D01*
X97610904Y-53153143D01*
X97689831Y-53005482D01*
X97796051Y-52876051D01*
X97925482Y-52769831D01*
X98073143Y-52690904D01*
X98073145Y-52690903D01*
X98153258Y-52666602D01*
X98233373Y-52642299D01*
X98358248Y-52630000D01*
X98441752Y-52630000D01*
X98566627Y-52642299D01*
X98566627Y-52642299D01*
G37*
G36*
X83326627Y-52642299D02*
G01*
X83406742Y-52666601D01*
X83486855Y-52690903D01*
X83486857Y-52690904D01*
X83634518Y-52769831D01*
X83763949Y-52876051D01*
X83870169Y-53005482D01*
X83949096Y-53153143D01*
X83997701Y-53313373D01*
X84014112Y-53480000D01*
X83997701Y-53646627D01*
X83949096Y-53806857D01*
X83870169Y-53954518D01*
X83763949Y-54083949D01*
X83634518Y-54190169D01*
X83486857Y-54269096D01*
X83486855Y-54269097D01*
X83406742Y-54293399D01*
X83326627Y-54317701D01*
X83201752Y-54330000D01*
X83118248Y-54330000D01*
X82993373Y-54317701D01*
X82913258Y-54293399D01*
X82833145Y-54269097D01*
X82833143Y-54269096D01*
X82685482Y-54190169D01*
X82556051Y-54083949D01*
X82449831Y-53954518D01*
X82370904Y-53806857D01*
X82322299Y-53646627D01*
X82305888Y-53480000D01*
X82322299Y-53313373D01*
X82370904Y-53153143D01*
X82449831Y-53005482D01*
X82556051Y-52876051D01*
X82685482Y-52769831D01*
X82833143Y-52690904D01*
X82833145Y-52690903D01*
X82913258Y-52666601D01*
X82993373Y-52642299D01*
X83118248Y-52630000D01*
X83201752Y-52630000D01*
X83326627Y-52642299D01*
X83326627Y-52642299D01*
G37*
G36*
X101106627Y-52642299D02*
G01*
X101186742Y-52666601D01*
X101266855Y-52690903D01*
X101266857Y-52690904D01*
X101414518Y-52769831D01*
X101543949Y-52876051D01*
X101650169Y-53005482D01*
X101729096Y-53153143D01*
X101777701Y-53313373D01*
X101794112Y-53480000D01*
X101777701Y-53646627D01*
X101729096Y-53806857D01*
X101650169Y-53954518D01*
X101543949Y-54083949D01*
X101414518Y-54190169D01*
X101266857Y-54269096D01*
X101266855Y-54269097D01*
X101186742Y-54293399D01*
X101106627Y-54317701D01*
X100981752Y-54330000D01*
X100898248Y-54330000D01*
X100773373Y-54317701D01*
X100693258Y-54293399D01*
X100613145Y-54269097D01*
X100613143Y-54269096D01*
X100465482Y-54190169D01*
X100336051Y-54083949D01*
X100229831Y-53954518D01*
X100150904Y-53806857D01*
X100102299Y-53646627D01*
X100085888Y-53480000D01*
X100102299Y-53313373D01*
X100150904Y-53153143D01*
X100229831Y-53005482D01*
X100336051Y-52876051D01*
X100465482Y-52769831D01*
X100613143Y-52690904D01*
X100613145Y-52690903D01*
X100693258Y-52666602D01*
X100773373Y-52642299D01*
X100898248Y-52630000D01*
X100981752Y-52630000D01*
X101106627Y-52642299D01*
X101106627Y-52642299D01*
G37*
G36*
X85866627Y-52642299D02*
G01*
X85946742Y-52666601D01*
X86026855Y-52690903D01*
X86026857Y-52690904D01*
X86174518Y-52769831D01*
X86303949Y-52876051D01*
X86410169Y-53005482D01*
X86489096Y-53153143D01*
X86537701Y-53313373D01*
X86554112Y-53480000D01*
X86537701Y-53646627D01*
X86489096Y-53806857D01*
X86410169Y-53954518D01*
X86303949Y-54083949D01*
X86174518Y-54190169D01*
X86026857Y-54269096D01*
X86026855Y-54269097D01*
X85946742Y-54293399D01*
X85866627Y-54317701D01*
X85741752Y-54330000D01*
X85658248Y-54330000D01*
X85533373Y-54317701D01*
X85453258Y-54293399D01*
X85373145Y-54269097D01*
X85373143Y-54269096D01*
X85225482Y-54190169D01*
X85096051Y-54083949D01*
X84989831Y-53954518D01*
X84910904Y-53806857D01*
X84862299Y-53646627D01*
X84845888Y-53480000D01*
X84862299Y-53313373D01*
X84910904Y-53153143D01*
X84989831Y-53005482D01*
X85096051Y-52876051D01*
X85225482Y-52769831D01*
X85373143Y-52690904D01*
X85373145Y-52690903D01*
X85453258Y-52666601D01*
X85533373Y-52642299D01*
X85658248Y-52630000D01*
X85741752Y-52630000D01*
X85866627Y-52642299D01*
X85866627Y-52642299D01*
G37*
G36*
X103646627Y-52642299D02*
G01*
X103726742Y-52666601D01*
X103806855Y-52690903D01*
X103806857Y-52690904D01*
X103954518Y-52769831D01*
X104083949Y-52876051D01*
X104190169Y-53005482D01*
X104269096Y-53153143D01*
X104317701Y-53313373D01*
X104334112Y-53480000D01*
X104317701Y-53646627D01*
X104269096Y-53806857D01*
X104190169Y-53954518D01*
X104083949Y-54083949D01*
X103954518Y-54190169D01*
X103806857Y-54269096D01*
X103806855Y-54269097D01*
X103726742Y-54293399D01*
X103646627Y-54317701D01*
X103521752Y-54330000D01*
X103438248Y-54330000D01*
X103313373Y-54317701D01*
X103233258Y-54293399D01*
X103153145Y-54269097D01*
X103153143Y-54269096D01*
X103005482Y-54190169D01*
X102876051Y-54083949D01*
X102769831Y-53954518D01*
X102690904Y-53806857D01*
X102642299Y-53646627D01*
X102625888Y-53480000D01*
X102642299Y-53313373D01*
X102690904Y-53153143D01*
X102769831Y-53005482D01*
X102876051Y-52876051D01*
X103005482Y-52769831D01*
X103153143Y-52690904D01*
X103153145Y-52690903D01*
X103233258Y-52666602D01*
X103313373Y-52642299D01*
X103438248Y-52630000D01*
X103521752Y-52630000D01*
X103646627Y-52642299D01*
X103646627Y-52642299D01*
G37*
G36*
X88406627Y-52642299D02*
G01*
X88486742Y-52666601D01*
X88566855Y-52690903D01*
X88566857Y-52690904D01*
X88714518Y-52769831D01*
X88843949Y-52876051D01*
X88950169Y-53005482D01*
X89029096Y-53153143D01*
X89077701Y-53313373D01*
X89094112Y-53480000D01*
X89077701Y-53646627D01*
X89029096Y-53806857D01*
X88950169Y-53954518D01*
X88843949Y-54083949D01*
X88714518Y-54190169D01*
X88566857Y-54269096D01*
X88566855Y-54269097D01*
X88486742Y-54293399D01*
X88406627Y-54317701D01*
X88281752Y-54330000D01*
X88198248Y-54330000D01*
X88073373Y-54317701D01*
X87993258Y-54293399D01*
X87913145Y-54269097D01*
X87913143Y-54269096D01*
X87765482Y-54190169D01*
X87636051Y-54083949D01*
X87529831Y-53954518D01*
X87450904Y-53806857D01*
X87402299Y-53646627D01*
X87385888Y-53480000D01*
X87402299Y-53313373D01*
X87450904Y-53153143D01*
X87529831Y-53005482D01*
X87636051Y-52876051D01*
X87765482Y-52769831D01*
X87913143Y-52690904D01*
X87913145Y-52690903D01*
X87993258Y-52666601D01*
X88073373Y-52642299D01*
X88198248Y-52630000D01*
X88281752Y-52630000D01*
X88406627Y-52642299D01*
X88406627Y-52642299D01*
G37*
G36*
X106186627Y-52642299D02*
G01*
X106266742Y-52666601D01*
X106346855Y-52690903D01*
X106346857Y-52690904D01*
X106494518Y-52769831D01*
X106623949Y-52876051D01*
X106730169Y-53005482D01*
X106809096Y-53153143D01*
X106857701Y-53313373D01*
X106874112Y-53480000D01*
X106857701Y-53646627D01*
X106809096Y-53806857D01*
X106730169Y-53954518D01*
X106623949Y-54083949D01*
X106494518Y-54190169D01*
X106346857Y-54269096D01*
X106346855Y-54269097D01*
X106266742Y-54293399D01*
X106186627Y-54317701D01*
X106061752Y-54330000D01*
X105978248Y-54330000D01*
X105853373Y-54317701D01*
X105773258Y-54293399D01*
X105693145Y-54269097D01*
X105693143Y-54269096D01*
X105545482Y-54190169D01*
X105416051Y-54083949D01*
X105309831Y-53954518D01*
X105230904Y-53806857D01*
X105182299Y-53646627D01*
X105165888Y-53480000D01*
X105182299Y-53313373D01*
X105230904Y-53153143D01*
X105309831Y-53005482D01*
X105416051Y-52876051D01*
X105545482Y-52769831D01*
X105693143Y-52690904D01*
X105693145Y-52690903D01*
X105773258Y-52666602D01*
X105853373Y-52642299D01*
X105978248Y-52630000D01*
X106061752Y-52630000D01*
X106186627Y-52642299D01*
X106186627Y-52642299D01*
G37*
G36*
X90946627Y-52642299D02*
G01*
X91026742Y-52666601D01*
X91106855Y-52690903D01*
X91106857Y-52690904D01*
X91254518Y-52769831D01*
X91383949Y-52876051D01*
X91490169Y-53005482D01*
X91569096Y-53153143D01*
X91617701Y-53313373D01*
X91634112Y-53480000D01*
X91617701Y-53646627D01*
X91569096Y-53806857D01*
X91490169Y-53954518D01*
X91383949Y-54083949D01*
X91254518Y-54190169D01*
X91106857Y-54269096D01*
X91106855Y-54269097D01*
X91026742Y-54293399D01*
X90946627Y-54317701D01*
X90821752Y-54330000D01*
X90738248Y-54330000D01*
X90613373Y-54317701D01*
X90533258Y-54293399D01*
X90453145Y-54269097D01*
X90453143Y-54269096D01*
X90305482Y-54190169D01*
X90176051Y-54083949D01*
X90069831Y-53954518D01*
X89990904Y-53806857D01*
X89942299Y-53646627D01*
X89925888Y-53480000D01*
X89942299Y-53313373D01*
X89990904Y-53153143D01*
X90069831Y-53005482D01*
X90176051Y-52876051D01*
X90305482Y-52769831D01*
X90453143Y-52690904D01*
X90453145Y-52690903D01*
X90533258Y-52666601D01*
X90613373Y-52642299D01*
X90738248Y-52630000D01*
X90821752Y-52630000D01*
X90946627Y-52642299D01*
X90946627Y-52642299D01*
G37*
G36*
X96026627Y-52642299D02*
G01*
X96106742Y-52666601D01*
X96186855Y-52690903D01*
X96186857Y-52690904D01*
X96334518Y-52769831D01*
X96463949Y-52876051D01*
X96570169Y-53005482D01*
X96649096Y-53153143D01*
X96697701Y-53313373D01*
X96714112Y-53480000D01*
X96697701Y-53646627D01*
X96649096Y-53806857D01*
X96570169Y-53954518D01*
X96463949Y-54083949D01*
X96334518Y-54190169D01*
X96186857Y-54269096D01*
X96186855Y-54269097D01*
X96106742Y-54293399D01*
X96026627Y-54317701D01*
X95901752Y-54330000D01*
X95818248Y-54330000D01*
X95693373Y-54317701D01*
X95613258Y-54293399D01*
X95533145Y-54269097D01*
X95533143Y-54269096D01*
X95385482Y-54190169D01*
X95256051Y-54083949D01*
X95149831Y-53954518D01*
X95070904Y-53806857D01*
X95022299Y-53646627D01*
X95005888Y-53480000D01*
X95022299Y-53313373D01*
X95070904Y-53153143D01*
X95149831Y-53005482D01*
X95256051Y-52876051D01*
X95385482Y-52769831D01*
X95533143Y-52690904D01*
X95533145Y-52690903D01*
X95613258Y-52666602D01*
X95693373Y-52642299D01*
X95818248Y-52630000D01*
X95901752Y-52630000D01*
X96026627Y-52642299D01*
X96026627Y-52642299D01*
G37*
G36*
X133623779Y-49211879D02*
G01*
X133869463Y-49313645D01*
X133869465Y-49313646D01*
X133980769Y-49388017D01*
X134090574Y-49461386D01*
X134278614Y-49649426D01*
X134426355Y-49870537D01*
X134528121Y-50116221D01*
X134580000Y-50377035D01*
X134580000Y-50642965D01*
X134528121Y-50903779D01*
X134426355Y-51149463D01*
X134347917Y-51266855D01*
X134278613Y-51370575D01*
X134090575Y-51558613D01*
X133869465Y-51706354D01*
X133869464Y-51706355D01*
X133869463Y-51706355D01*
X133623779Y-51808121D01*
X133362965Y-51860000D01*
X133097035Y-51860000D01*
X132836221Y-51808121D01*
X132590537Y-51706355D01*
X132590536Y-51706355D01*
X132590535Y-51706354D01*
X132369425Y-51558613D01*
X132181387Y-51370575D01*
X132112084Y-51266855D01*
X132033645Y-51149463D01*
X131931879Y-50903779D01*
X131880000Y-50642965D01*
X131880000Y-50377035D01*
X131931879Y-50116221D01*
X132033645Y-49870537D01*
X132181386Y-49649426D01*
X132369426Y-49461386D01*
X132479231Y-49388017D01*
X132590535Y-49313646D01*
X132590537Y-49313645D01*
X132836221Y-49211879D01*
X133097035Y-49160000D01*
X133362965Y-49160000D01*
X133623779Y-49211879D01*
X133623779Y-49211879D01*
G37*
G36*
X75623779Y-49211879D02*
G01*
X75869463Y-49313645D01*
X75869465Y-49313646D01*
X75980769Y-49388017D01*
X76090574Y-49461386D01*
X76278614Y-49649426D01*
X76426355Y-49870537D01*
X76528121Y-50116221D01*
X76580000Y-50377035D01*
X76580000Y-50642965D01*
X76528121Y-50903779D01*
X76426355Y-51149463D01*
X76347917Y-51266855D01*
X76278613Y-51370575D01*
X76090575Y-51558613D01*
X75869465Y-51706354D01*
X75869464Y-51706355D01*
X75869463Y-51706355D01*
X75623779Y-51808121D01*
X75362965Y-51860000D01*
X75097035Y-51860000D01*
X74836221Y-51808121D01*
X74590537Y-51706355D01*
X74590536Y-51706355D01*
X74590535Y-51706354D01*
X74369425Y-51558613D01*
X74181387Y-51370575D01*
X74112084Y-51266855D01*
X74033645Y-51149463D01*
X73931879Y-50903779D01*
X73880000Y-50642965D01*
X73880000Y-50377035D01*
X73931879Y-50116221D01*
X74033645Y-49870537D01*
X74181386Y-49649426D01*
X74369426Y-49461386D01*
X74479231Y-49388017D01*
X74590535Y-49313646D01*
X74590537Y-49313645D01*
X74836221Y-49211879D01*
X75097035Y-49160000D01*
X75362965Y-49160000D01*
X75623779Y-49211879D01*
X75623779Y-49211879D01*
G37*
G36*
X90946627Y-50102299D02*
G01*
X91026742Y-50126602D01*
X91106855Y-50150903D01*
X91106857Y-50150904D01*
X91254518Y-50229831D01*
X91383949Y-50336051D01*
X91490168Y-50465481D01*
X91569097Y-50613145D01*
X91593399Y-50693258D01*
X91617701Y-50773373D01*
X91634112Y-50940000D01*
X91617701Y-51106627D01*
X91569096Y-51266857D01*
X91490169Y-51414518D01*
X91383949Y-51543949D01*
X91254518Y-51650169D01*
X91149404Y-51706354D01*
X91106855Y-51729097D01*
X91026742Y-51753398D01*
X90946627Y-51777701D01*
X90821752Y-51790000D01*
X90738248Y-51790000D01*
X90613373Y-51777701D01*
X90533258Y-51753398D01*
X90453145Y-51729097D01*
X90410596Y-51706354D01*
X90305482Y-51650169D01*
X90176051Y-51543949D01*
X90069831Y-51414518D01*
X89990904Y-51266857D01*
X89942299Y-51106627D01*
X89925888Y-50940000D01*
X89942299Y-50773373D01*
X89966601Y-50693258D01*
X89990903Y-50613145D01*
X90069832Y-50465481D01*
X90176051Y-50336051D01*
X90305482Y-50229831D01*
X90453143Y-50150904D01*
X90453145Y-50150903D01*
X90533258Y-50126602D01*
X90613373Y-50102299D01*
X90738248Y-50090000D01*
X90821752Y-50090000D01*
X90946627Y-50102299D01*
X90946627Y-50102299D01*
G37*
G36*
X83326627Y-50102299D02*
G01*
X83406742Y-50126602D01*
X83486855Y-50150903D01*
X83486857Y-50150904D01*
X83634518Y-50229831D01*
X83763949Y-50336051D01*
X83870168Y-50465481D01*
X83949097Y-50613145D01*
X83973399Y-50693258D01*
X83997701Y-50773373D01*
X84014112Y-50940000D01*
X83997701Y-51106627D01*
X83949096Y-51266857D01*
X83870169Y-51414518D01*
X83763949Y-51543949D01*
X83634518Y-51650169D01*
X83529404Y-51706354D01*
X83486855Y-51729097D01*
X83406742Y-51753398D01*
X83326627Y-51777701D01*
X83201752Y-51790000D01*
X83118248Y-51790000D01*
X82993373Y-51777701D01*
X82913258Y-51753398D01*
X82833145Y-51729097D01*
X82790596Y-51706354D01*
X82685482Y-51650169D01*
X82556051Y-51543949D01*
X82449831Y-51414518D01*
X82370904Y-51266857D01*
X82322299Y-51106627D01*
X82305888Y-50940000D01*
X82322299Y-50773373D01*
X82346601Y-50693258D01*
X82370903Y-50613145D01*
X82449832Y-50465481D01*
X82556051Y-50336051D01*
X82685482Y-50229831D01*
X82833143Y-50150904D01*
X82833145Y-50150903D01*
X82913258Y-50126602D01*
X82993373Y-50102299D01*
X83118248Y-50090000D01*
X83201752Y-50090000D01*
X83326627Y-50102299D01*
X83326627Y-50102299D01*
G37*
G36*
X80786627Y-50102299D02*
G01*
X80866742Y-50126602D01*
X80946855Y-50150903D01*
X80946857Y-50150904D01*
X81094518Y-50229831D01*
X81223949Y-50336051D01*
X81330168Y-50465481D01*
X81409097Y-50613145D01*
X81433398Y-50693258D01*
X81457701Y-50773373D01*
X81474112Y-50940000D01*
X81457701Y-51106627D01*
X81409096Y-51266857D01*
X81330169Y-51414518D01*
X81223949Y-51543949D01*
X81094518Y-51650169D01*
X80989404Y-51706354D01*
X80946855Y-51729097D01*
X80866742Y-51753398D01*
X80786627Y-51777701D01*
X80661752Y-51790000D01*
X80578248Y-51790000D01*
X80453373Y-51777701D01*
X80373258Y-51753398D01*
X80293145Y-51729097D01*
X80250596Y-51706354D01*
X80145482Y-51650169D01*
X80016051Y-51543949D01*
X79909831Y-51414518D01*
X79830904Y-51266857D01*
X79782299Y-51106627D01*
X79765888Y-50940000D01*
X79782299Y-50773373D01*
X79806601Y-50693258D01*
X79830903Y-50613145D01*
X79909832Y-50465481D01*
X80016051Y-50336051D01*
X80145482Y-50229831D01*
X80293143Y-50150904D01*
X80293145Y-50150903D01*
X80373258Y-50126602D01*
X80453373Y-50102299D01*
X80578248Y-50090000D01*
X80661752Y-50090000D01*
X80786627Y-50102299D01*
X80786627Y-50102299D01*
G37*
G36*
X85866627Y-50102299D02*
G01*
X85946742Y-50126602D01*
X86026855Y-50150903D01*
X86026857Y-50150904D01*
X86174518Y-50229831D01*
X86303949Y-50336051D01*
X86410168Y-50465481D01*
X86489097Y-50613145D01*
X86513399Y-50693258D01*
X86537701Y-50773373D01*
X86554112Y-50940000D01*
X86537701Y-51106627D01*
X86489096Y-51266857D01*
X86410169Y-51414518D01*
X86303949Y-51543949D01*
X86174518Y-51650169D01*
X86069404Y-51706354D01*
X86026855Y-51729097D01*
X85946742Y-51753398D01*
X85866627Y-51777701D01*
X85741752Y-51790000D01*
X85658248Y-51790000D01*
X85533373Y-51777701D01*
X85453258Y-51753398D01*
X85373145Y-51729097D01*
X85330596Y-51706354D01*
X85225482Y-51650169D01*
X85096051Y-51543949D01*
X84989831Y-51414518D01*
X84910904Y-51266857D01*
X84862299Y-51106627D01*
X84845888Y-50940000D01*
X84862299Y-50773373D01*
X84886601Y-50693258D01*
X84910903Y-50613145D01*
X84989832Y-50465481D01*
X85096051Y-50336051D01*
X85225482Y-50229831D01*
X85373143Y-50150904D01*
X85373145Y-50150903D01*
X85453258Y-50126602D01*
X85533373Y-50102299D01*
X85658248Y-50090000D01*
X85741752Y-50090000D01*
X85866627Y-50102299D01*
X85866627Y-50102299D01*
G37*
G36*
X88406627Y-50102299D02*
G01*
X88486742Y-50126602D01*
X88566855Y-50150903D01*
X88566857Y-50150904D01*
X88714518Y-50229831D01*
X88843949Y-50336051D01*
X88950168Y-50465481D01*
X89029097Y-50613145D01*
X89053399Y-50693258D01*
X89077701Y-50773373D01*
X89094112Y-50940000D01*
X89077701Y-51106627D01*
X89029096Y-51266857D01*
X88950169Y-51414518D01*
X88843949Y-51543949D01*
X88714518Y-51650169D01*
X88609404Y-51706354D01*
X88566855Y-51729097D01*
X88486742Y-51753398D01*
X88406627Y-51777701D01*
X88281752Y-51790000D01*
X88198248Y-51790000D01*
X88073373Y-51777701D01*
X87993258Y-51753398D01*
X87913145Y-51729097D01*
X87870596Y-51706354D01*
X87765482Y-51650169D01*
X87636051Y-51543949D01*
X87529831Y-51414518D01*
X87450904Y-51266857D01*
X87402299Y-51106627D01*
X87385888Y-50940000D01*
X87402299Y-50773373D01*
X87426601Y-50693258D01*
X87450903Y-50613145D01*
X87529832Y-50465481D01*
X87636051Y-50336051D01*
X87765482Y-50229831D01*
X87913143Y-50150904D01*
X87913145Y-50150903D01*
X87993258Y-50126602D01*
X88073373Y-50102299D01*
X88198248Y-50090000D01*
X88281752Y-50090000D01*
X88406627Y-50102299D01*
X88406627Y-50102299D01*
G37*
G36*
X121426627Y-50102299D02*
G01*
X121506742Y-50126602D01*
X121586855Y-50150903D01*
X121586857Y-50150904D01*
X121734518Y-50229831D01*
X121863949Y-50336051D01*
X121970168Y-50465481D01*
X122049097Y-50613145D01*
X122073399Y-50693258D01*
X122097701Y-50773373D01*
X122114112Y-50940000D01*
X122097701Y-51106627D01*
X122049096Y-51266857D01*
X121970169Y-51414518D01*
X121863949Y-51543949D01*
X121734518Y-51650169D01*
X121629404Y-51706354D01*
X121586855Y-51729097D01*
X121506742Y-51753398D01*
X121426627Y-51777701D01*
X121301752Y-51790000D01*
X121218248Y-51790000D01*
X121093373Y-51777701D01*
X121013258Y-51753398D01*
X120933145Y-51729097D01*
X120890596Y-51706354D01*
X120785482Y-51650169D01*
X120656051Y-51543949D01*
X120549831Y-51414518D01*
X120470904Y-51266857D01*
X120422299Y-51106627D01*
X120405888Y-50940000D01*
X120422299Y-50773373D01*
X120446601Y-50693258D01*
X120470903Y-50613145D01*
X120549832Y-50465481D01*
X120656051Y-50336051D01*
X120785482Y-50229831D01*
X120933143Y-50150904D01*
X120933145Y-50150903D01*
X121013258Y-50126601D01*
X121093373Y-50102299D01*
X121218248Y-50090000D01*
X121301752Y-50090000D01*
X121426627Y-50102299D01*
X121426627Y-50102299D01*
G37*
G36*
X118886627Y-50102299D02*
G01*
X118966742Y-50126602D01*
X119046855Y-50150903D01*
X119046857Y-50150904D01*
X119194518Y-50229831D01*
X119323949Y-50336051D01*
X119430168Y-50465481D01*
X119509097Y-50613145D01*
X119533399Y-50693258D01*
X119557701Y-50773373D01*
X119574112Y-50940000D01*
X119557701Y-51106627D01*
X119509096Y-51266857D01*
X119430169Y-51414518D01*
X119323949Y-51543949D01*
X119194518Y-51650169D01*
X119089404Y-51706354D01*
X119046855Y-51729097D01*
X118966742Y-51753398D01*
X118886627Y-51777701D01*
X118761752Y-51790000D01*
X118678248Y-51790000D01*
X118553373Y-51777701D01*
X118473258Y-51753398D01*
X118393145Y-51729097D01*
X118350596Y-51706354D01*
X118245482Y-51650169D01*
X118116051Y-51543949D01*
X118009831Y-51414518D01*
X117930904Y-51266857D01*
X117882299Y-51106627D01*
X117865888Y-50940000D01*
X117882299Y-50773373D01*
X117906601Y-50693258D01*
X117930903Y-50613145D01*
X118009832Y-50465481D01*
X118116051Y-50336051D01*
X118245482Y-50229831D01*
X118393143Y-50150904D01*
X118393145Y-50150903D01*
X118473258Y-50126601D01*
X118553373Y-50102299D01*
X118678248Y-50090000D01*
X118761752Y-50090000D01*
X118886627Y-50102299D01*
X118886627Y-50102299D01*
G37*
G36*
X93486627Y-50102299D02*
G01*
X93566742Y-50126602D01*
X93646855Y-50150903D01*
X93646857Y-50150904D01*
X93794518Y-50229831D01*
X93923949Y-50336051D01*
X94030168Y-50465481D01*
X94109097Y-50613145D01*
X94133399Y-50693258D01*
X94157701Y-50773373D01*
X94174112Y-50940000D01*
X94157701Y-51106627D01*
X94109096Y-51266857D01*
X94030169Y-51414518D01*
X93923949Y-51543949D01*
X93794518Y-51650169D01*
X93689404Y-51706354D01*
X93646855Y-51729097D01*
X93566742Y-51753398D01*
X93486627Y-51777701D01*
X93361752Y-51790000D01*
X93278248Y-51790000D01*
X93153373Y-51777701D01*
X93073258Y-51753398D01*
X92993145Y-51729097D01*
X92950596Y-51706354D01*
X92845482Y-51650169D01*
X92716051Y-51543949D01*
X92609831Y-51414518D01*
X92530904Y-51266857D01*
X92482299Y-51106627D01*
X92465888Y-50940000D01*
X92482299Y-50773373D01*
X92506601Y-50693258D01*
X92530903Y-50613145D01*
X92609832Y-50465481D01*
X92716051Y-50336051D01*
X92845482Y-50229831D01*
X92993143Y-50150904D01*
X92993145Y-50150903D01*
X93073258Y-50126602D01*
X93153373Y-50102299D01*
X93278248Y-50090000D01*
X93361752Y-50090000D01*
X93486627Y-50102299D01*
X93486627Y-50102299D01*
G37*
G36*
X113806627Y-50102299D02*
G01*
X113886742Y-50126602D01*
X113966855Y-50150903D01*
X113966857Y-50150904D01*
X114114518Y-50229831D01*
X114243949Y-50336051D01*
X114350168Y-50465481D01*
X114429097Y-50613145D01*
X114453399Y-50693258D01*
X114477701Y-50773373D01*
X114494112Y-50940000D01*
X114477701Y-51106627D01*
X114429096Y-51266857D01*
X114350169Y-51414518D01*
X114243949Y-51543949D01*
X114114518Y-51650169D01*
X114009404Y-51706354D01*
X113966855Y-51729097D01*
X113886742Y-51753398D01*
X113806627Y-51777701D01*
X113681752Y-51790000D01*
X113598248Y-51790000D01*
X113473373Y-51777701D01*
X113393258Y-51753398D01*
X113313145Y-51729097D01*
X113270596Y-51706354D01*
X113165482Y-51650169D01*
X113036051Y-51543949D01*
X112929831Y-51414518D01*
X112850904Y-51266857D01*
X112802299Y-51106627D01*
X112785888Y-50940000D01*
X112802299Y-50773373D01*
X112826601Y-50693258D01*
X112850903Y-50613145D01*
X112929832Y-50465481D01*
X113036051Y-50336051D01*
X113165482Y-50229831D01*
X113313143Y-50150904D01*
X113313145Y-50150903D01*
X113393258Y-50126601D01*
X113473373Y-50102299D01*
X113598248Y-50090000D01*
X113681752Y-50090000D01*
X113806627Y-50102299D01*
X113806627Y-50102299D01*
G37*
G36*
X111266627Y-50102299D02*
G01*
X111346742Y-50126602D01*
X111426855Y-50150903D01*
X111426857Y-50150904D01*
X111574518Y-50229831D01*
X111703949Y-50336051D01*
X111810168Y-50465481D01*
X111889097Y-50613145D01*
X111913399Y-50693258D01*
X111937701Y-50773373D01*
X111954112Y-50940000D01*
X111937701Y-51106627D01*
X111889096Y-51266857D01*
X111810169Y-51414518D01*
X111703949Y-51543949D01*
X111574518Y-51650169D01*
X111469404Y-51706354D01*
X111426855Y-51729097D01*
X111346742Y-51753398D01*
X111266627Y-51777701D01*
X111141752Y-51790000D01*
X111058248Y-51790000D01*
X110933373Y-51777701D01*
X110853258Y-51753398D01*
X110773145Y-51729097D01*
X110730596Y-51706354D01*
X110625482Y-51650169D01*
X110496051Y-51543949D01*
X110389831Y-51414518D01*
X110310904Y-51266857D01*
X110262299Y-51106627D01*
X110245888Y-50940000D01*
X110262299Y-50773373D01*
X110286601Y-50693258D01*
X110310903Y-50613145D01*
X110389832Y-50465481D01*
X110496051Y-50336051D01*
X110625482Y-50229831D01*
X110773143Y-50150904D01*
X110773145Y-50150903D01*
X110853258Y-50126601D01*
X110933373Y-50102299D01*
X111058248Y-50090000D01*
X111141752Y-50090000D01*
X111266627Y-50102299D01*
X111266627Y-50102299D01*
G37*
G36*
X108726627Y-50102299D02*
G01*
X108806742Y-50126602D01*
X108886855Y-50150903D01*
X108886857Y-50150904D01*
X109034518Y-50229831D01*
X109163949Y-50336051D01*
X109270168Y-50465481D01*
X109349097Y-50613145D01*
X109373399Y-50693258D01*
X109397701Y-50773373D01*
X109414112Y-50940000D01*
X109397701Y-51106627D01*
X109349096Y-51266857D01*
X109270169Y-51414518D01*
X109163949Y-51543949D01*
X109034518Y-51650169D01*
X108929404Y-51706354D01*
X108886855Y-51729097D01*
X108806742Y-51753398D01*
X108726627Y-51777701D01*
X108601752Y-51790000D01*
X108518248Y-51790000D01*
X108393373Y-51777701D01*
X108313258Y-51753398D01*
X108233145Y-51729097D01*
X108190596Y-51706354D01*
X108085482Y-51650169D01*
X107956051Y-51543949D01*
X107849831Y-51414518D01*
X107770904Y-51266857D01*
X107722299Y-51106627D01*
X107705888Y-50940000D01*
X107722299Y-50773373D01*
X107746601Y-50693258D01*
X107770903Y-50613145D01*
X107849832Y-50465481D01*
X107956051Y-50336051D01*
X108085482Y-50229831D01*
X108233143Y-50150904D01*
X108233145Y-50150903D01*
X108313258Y-50126601D01*
X108393373Y-50102299D01*
X108518248Y-50090000D01*
X108601752Y-50090000D01*
X108726627Y-50102299D01*
X108726627Y-50102299D01*
G37*
G36*
X106186627Y-50102299D02*
G01*
X106266742Y-50126602D01*
X106346855Y-50150903D01*
X106346857Y-50150904D01*
X106494518Y-50229831D01*
X106623949Y-50336051D01*
X106730168Y-50465481D01*
X106809097Y-50613145D01*
X106833399Y-50693258D01*
X106857701Y-50773373D01*
X106874112Y-50940000D01*
X106857701Y-51106627D01*
X106809096Y-51266857D01*
X106730169Y-51414518D01*
X106623949Y-51543949D01*
X106494518Y-51650169D01*
X106389404Y-51706354D01*
X106346855Y-51729097D01*
X106266742Y-51753398D01*
X106186627Y-51777701D01*
X106061752Y-51790000D01*
X105978248Y-51790000D01*
X105853373Y-51777701D01*
X105773258Y-51753398D01*
X105693145Y-51729097D01*
X105650596Y-51706354D01*
X105545482Y-51650169D01*
X105416051Y-51543949D01*
X105309831Y-51414518D01*
X105230904Y-51266857D01*
X105182299Y-51106627D01*
X105165888Y-50940000D01*
X105182299Y-50773373D01*
X105206601Y-50693258D01*
X105230903Y-50613145D01*
X105309832Y-50465481D01*
X105416051Y-50336051D01*
X105545482Y-50229831D01*
X105693143Y-50150904D01*
X105693145Y-50150903D01*
X105773258Y-50126601D01*
X105853373Y-50102299D01*
X105978248Y-50090000D01*
X106061752Y-50090000D01*
X106186627Y-50102299D01*
X106186627Y-50102299D01*
G37*
G36*
X103646627Y-50102299D02*
G01*
X103726742Y-50126602D01*
X103806855Y-50150903D01*
X103806857Y-50150904D01*
X103954518Y-50229831D01*
X104083949Y-50336051D01*
X104190168Y-50465481D01*
X104269097Y-50613145D01*
X104293399Y-50693258D01*
X104317701Y-50773373D01*
X104334112Y-50940000D01*
X104317701Y-51106627D01*
X104269096Y-51266857D01*
X104190169Y-51414518D01*
X104083949Y-51543949D01*
X103954518Y-51650169D01*
X103849404Y-51706354D01*
X103806855Y-51729097D01*
X103726742Y-51753398D01*
X103646627Y-51777701D01*
X103521752Y-51790000D01*
X103438248Y-51790000D01*
X103313373Y-51777701D01*
X103233258Y-51753398D01*
X103153145Y-51729097D01*
X103110596Y-51706354D01*
X103005482Y-51650169D01*
X102876051Y-51543949D01*
X102769831Y-51414518D01*
X102690904Y-51266857D01*
X102642299Y-51106627D01*
X102625888Y-50940000D01*
X102642299Y-50773373D01*
X102666601Y-50693258D01*
X102690903Y-50613145D01*
X102769832Y-50465481D01*
X102876051Y-50336051D01*
X103005482Y-50229831D01*
X103153143Y-50150904D01*
X103153145Y-50150903D01*
X103233258Y-50126601D01*
X103313373Y-50102299D01*
X103438248Y-50090000D01*
X103521752Y-50090000D01*
X103646627Y-50102299D01*
X103646627Y-50102299D01*
G37*
G36*
X101106627Y-50102299D02*
G01*
X101186742Y-50126602D01*
X101266855Y-50150903D01*
X101266857Y-50150904D01*
X101414518Y-50229831D01*
X101543949Y-50336051D01*
X101650168Y-50465481D01*
X101729097Y-50613145D01*
X101753399Y-50693258D01*
X101777701Y-50773373D01*
X101794112Y-50940000D01*
X101777701Y-51106627D01*
X101729096Y-51266857D01*
X101650169Y-51414518D01*
X101543949Y-51543949D01*
X101414518Y-51650169D01*
X101309404Y-51706354D01*
X101266855Y-51729097D01*
X101186742Y-51753398D01*
X101106627Y-51777701D01*
X100981752Y-51790000D01*
X100898248Y-51790000D01*
X100773373Y-51777701D01*
X100693258Y-51753398D01*
X100613145Y-51729097D01*
X100570596Y-51706354D01*
X100465482Y-51650169D01*
X100336051Y-51543949D01*
X100229831Y-51414518D01*
X100150904Y-51266857D01*
X100102299Y-51106627D01*
X100085888Y-50940000D01*
X100102299Y-50773373D01*
X100126601Y-50693258D01*
X100150903Y-50613145D01*
X100229832Y-50465481D01*
X100336051Y-50336051D01*
X100465482Y-50229831D01*
X100613143Y-50150904D01*
X100613145Y-50150903D01*
X100693258Y-50126602D01*
X100773373Y-50102299D01*
X100898248Y-50090000D01*
X100981752Y-50090000D01*
X101106627Y-50102299D01*
X101106627Y-50102299D01*
G37*
G36*
X96026627Y-50102299D02*
G01*
X96106742Y-50126602D01*
X96186855Y-50150903D01*
X96186857Y-50150904D01*
X96334518Y-50229831D01*
X96463949Y-50336051D01*
X96570168Y-50465481D01*
X96649097Y-50613145D01*
X96673399Y-50693258D01*
X96697701Y-50773373D01*
X96714112Y-50940000D01*
X96697701Y-51106627D01*
X96649096Y-51266857D01*
X96570169Y-51414518D01*
X96463949Y-51543949D01*
X96334518Y-51650169D01*
X96229404Y-51706354D01*
X96186855Y-51729097D01*
X96106742Y-51753398D01*
X96026627Y-51777701D01*
X95901752Y-51790000D01*
X95818248Y-51790000D01*
X95693373Y-51777701D01*
X95613258Y-51753398D01*
X95533145Y-51729097D01*
X95490596Y-51706354D01*
X95385482Y-51650169D01*
X95256051Y-51543949D01*
X95149831Y-51414518D01*
X95070904Y-51266857D01*
X95022299Y-51106627D01*
X95005888Y-50940000D01*
X95022299Y-50773373D01*
X95046601Y-50693258D01*
X95070903Y-50613145D01*
X95149832Y-50465481D01*
X95256051Y-50336051D01*
X95385482Y-50229831D01*
X95533143Y-50150904D01*
X95533145Y-50150903D01*
X95613258Y-50126602D01*
X95693373Y-50102299D01*
X95818248Y-50090000D01*
X95901752Y-50090000D01*
X96026627Y-50102299D01*
X96026627Y-50102299D01*
G37*
G36*
X116346627Y-50102299D02*
G01*
X116426742Y-50126602D01*
X116506855Y-50150903D01*
X116506857Y-50150904D01*
X116654518Y-50229831D01*
X116783949Y-50336051D01*
X116890168Y-50465481D01*
X116969097Y-50613145D01*
X116993399Y-50693258D01*
X117017701Y-50773373D01*
X117034112Y-50940000D01*
X117017701Y-51106627D01*
X116969096Y-51266857D01*
X116890169Y-51414518D01*
X116783949Y-51543949D01*
X116654518Y-51650169D01*
X116549404Y-51706354D01*
X116506855Y-51729097D01*
X116426742Y-51753398D01*
X116346627Y-51777701D01*
X116221752Y-51790000D01*
X116138248Y-51790000D01*
X116013373Y-51777701D01*
X115933258Y-51753398D01*
X115853145Y-51729097D01*
X115810596Y-51706354D01*
X115705482Y-51650169D01*
X115576051Y-51543949D01*
X115469831Y-51414518D01*
X115390904Y-51266857D01*
X115342299Y-51106627D01*
X115325888Y-50940000D01*
X115342299Y-50773373D01*
X115366601Y-50693258D01*
X115390903Y-50613145D01*
X115469832Y-50465481D01*
X115576051Y-50336051D01*
X115705482Y-50229831D01*
X115853143Y-50150904D01*
X115853145Y-50150903D01*
X115933258Y-50126601D01*
X116013373Y-50102299D01*
X116138248Y-50090000D01*
X116221752Y-50090000D01*
X116346627Y-50102299D01*
X116346627Y-50102299D01*
G37*
G36*
X123966627Y-50102299D02*
G01*
X124046742Y-50126602D01*
X124126855Y-50150903D01*
X124126857Y-50150904D01*
X124274518Y-50229831D01*
X124403949Y-50336051D01*
X124510168Y-50465481D01*
X124589097Y-50613145D01*
X124613399Y-50693258D01*
X124637701Y-50773373D01*
X124654112Y-50940000D01*
X124637701Y-51106627D01*
X124589096Y-51266857D01*
X124510169Y-51414518D01*
X124403949Y-51543949D01*
X124274518Y-51650169D01*
X124169404Y-51706354D01*
X124126855Y-51729097D01*
X124046742Y-51753398D01*
X123966627Y-51777701D01*
X123841752Y-51790000D01*
X123758248Y-51790000D01*
X123633373Y-51777701D01*
X123553258Y-51753398D01*
X123473145Y-51729097D01*
X123430596Y-51706354D01*
X123325482Y-51650169D01*
X123196051Y-51543949D01*
X123089831Y-51414518D01*
X123010904Y-51266857D01*
X122962299Y-51106627D01*
X122945888Y-50940000D01*
X122962299Y-50773373D01*
X122986601Y-50693258D01*
X123010903Y-50613145D01*
X123089832Y-50465481D01*
X123196051Y-50336051D01*
X123325482Y-50229831D01*
X123473143Y-50150904D01*
X123473145Y-50150903D01*
X123553258Y-50126601D01*
X123633373Y-50102299D01*
X123758248Y-50090000D01*
X123841752Y-50090000D01*
X123966627Y-50102299D01*
X123966627Y-50102299D01*
G37*
G36*
X126506627Y-50102299D02*
G01*
X126586742Y-50126602D01*
X126666855Y-50150903D01*
X126666857Y-50150904D01*
X126814518Y-50229831D01*
X126943949Y-50336051D01*
X127050168Y-50465481D01*
X127129097Y-50613145D01*
X127153399Y-50693258D01*
X127177701Y-50773373D01*
X127194112Y-50940000D01*
X127177701Y-51106627D01*
X127129096Y-51266857D01*
X127050169Y-51414518D01*
X126943949Y-51543949D01*
X126814518Y-51650169D01*
X126709404Y-51706354D01*
X126666855Y-51729097D01*
X126586742Y-51753398D01*
X126506627Y-51777701D01*
X126381752Y-51790000D01*
X126298248Y-51790000D01*
X126173373Y-51777701D01*
X126093258Y-51753398D01*
X126013145Y-51729097D01*
X125970596Y-51706354D01*
X125865482Y-51650169D01*
X125736051Y-51543949D01*
X125629831Y-51414518D01*
X125550904Y-51266857D01*
X125502299Y-51106627D01*
X125485888Y-50940000D01*
X125502299Y-50773373D01*
X125526601Y-50693258D01*
X125550903Y-50613145D01*
X125629832Y-50465481D01*
X125736051Y-50336051D01*
X125865482Y-50229831D01*
X126013143Y-50150904D01*
X126013145Y-50150903D01*
X126093258Y-50126601D01*
X126173373Y-50102299D01*
X126298248Y-50090000D01*
X126381752Y-50090000D01*
X126506627Y-50102299D01*
X126506627Y-50102299D01*
G37*
G36*
X129046627Y-50102299D02*
G01*
X129126742Y-50126602D01*
X129206855Y-50150903D01*
X129206857Y-50150904D01*
X129354518Y-50229831D01*
X129483949Y-50336051D01*
X129590168Y-50465481D01*
X129669097Y-50613145D01*
X129693399Y-50693258D01*
X129717701Y-50773373D01*
X129734112Y-50940000D01*
X129717701Y-51106627D01*
X129669096Y-51266857D01*
X129590169Y-51414518D01*
X129483949Y-51543949D01*
X129354518Y-51650169D01*
X129249404Y-51706354D01*
X129206855Y-51729097D01*
X129126742Y-51753398D01*
X129046627Y-51777701D01*
X128921752Y-51790000D01*
X128838248Y-51790000D01*
X128713373Y-51777701D01*
X128633258Y-51753398D01*
X128553145Y-51729097D01*
X128510596Y-51706354D01*
X128405482Y-51650169D01*
X128276051Y-51543949D01*
X128169831Y-51414518D01*
X128090904Y-51266857D01*
X128042299Y-51106627D01*
X128025888Y-50940000D01*
X128042299Y-50773373D01*
X128066601Y-50693258D01*
X128090903Y-50613145D01*
X128169832Y-50465481D01*
X128276051Y-50336051D01*
X128405482Y-50229831D01*
X128553143Y-50150904D01*
X128553145Y-50150903D01*
X128633258Y-50126601D01*
X128713373Y-50102299D01*
X128838248Y-50090000D01*
X128921752Y-50090000D01*
X129046627Y-50102299D01*
X129046627Y-50102299D01*
G37*
G36*
X98566627Y-50102299D02*
G01*
X98646742Y-50126602D01*
X98726855Y-50150903D01*
X98726857Y-50150904D01*
X98874518Y-50229831D01*
X99003949Y-50336051D01*
X99110168Y-50465481D01*
X99189097Y-50613145D01*
X99213399Y-50693258D01*
X99237701Y-50773373D01*
X99254112Y-50940000D01*
X99237701Y-51106627D01*
X99189096Y-51266857D01*
X99110169Y-51414518D01*
X99003949Y-51543949D01*
X98874518Y-51650169D01*
X98769404Y-51706354D01*
X98726855Y-51729097D01*
X98646742Y-51753398D01*
X98566627Y-51777701D01*
X98441752Y-51790000D01*
X98358248Y-51790000D01*
X98233373Y-51777701D01*
X98153258Y-51753398D01*
X98073145Y-51729097D01*
X98030596Y-51706354D01*
X97925482Y-51650169D01*
X97796051Y-51543949D01*
X97689831Y-51414518D01*
X97610904Y-51266857D01*
X97562299Y-51106627D01*
X97545888Y-50940000D01*
X97562299Y-50773373D01*
X97586601Y-50693258D01*
X97610903Y-50613145D01*
X97689832Y-50465481D01*
X97796051Y-50336051D01*
X97925482Y-50229831D01*
X98073143Y-50150904D01*
X98073145Y-50150903D01*
X98153258Y-50126602D01*
X98233373Y-50102299D01*
X98358248Y-50090000D01*
X98441752Y-50090000D01*
X98566627Y-50102299D01*
X98566627Y-50102299D01*
G37*
M02*
