M48
; DRILL file {KiCad (5.1.0)-1} date 2019-05-01 11:48:30 AM
; FORMAT={-:-/ absolute / inch / decimal}
; #@! TF.CreationDate,2019-05-01T11:48:30-07:00
; #@! TF.GenerationSoftware,Kicad,Pcbnew,(5.1.0)-1
; #@! TF.FileFunction,Plated,1,2,PTH
FMAT,2
INCH
T1C0.0315
T2C0.0354
T3C0.0394
T4C0.0472
%
G90
G05
T1
X5.1339Y-2.2953
X3.224Y-3.4555
X3.524Y-3.1055
X3.824Y-3.1055
X4.124Y-2.5055
X4.424Y-2.5055
X3.874Y-3.7055
X4.174Y-3.7055
X3.474Y-2.3055
X3.774Y-2.3055
X4.5339Y-2.2953
X4.5339Y-2.9053
X4.6339Y-2.2953
X4.6339Y-2.9053
X4.7339Y-2.2953
X4.7339Y-2.9053
X4.8339Y-2.2953
X4.8339Y-2.9053
X4.9339Y-2.2953
X4.9339Y-2.9053
X5.0339Y-2.2953
X5.0339Y-2.9053
X5.1339Y-2.9053
X5.2339Y-2.2953
X5.2339Y-2.9053
X4.124Y-2.3555
X4.424Y-2.3555
X3.524Y-2.9555
X3.824Y-2.9555
X3.524Y-3.4555
X3.874Y-3.5055
X4.174Y-3.5055
T2
X3.014Y-3.4855
X3.114Y-3.4855
T3
X4.324Y-3.5555
X4.324Y-3.6555
X3.674Y-3.8555
X3.774Y-3.8555
X3.874Y-3.8555
X3.974Y-3.8555
X3.374Y-2.8055
X3.374Y-2.9055
X3.374Y-3.0055
X3.374Y-3.1055
X4.214Y-2.9055
X4.314Y-2.9055
X4.134Y-2.7055
X4.234Y-2.7055
X4.334Y-2.7055
X4.434Y-2.7055
X3.174Y-2.0055
X3.174Y-2.1055
X3.274Y-2.0055
X3.274Y-2.1055
X3.374Y-2.0055
X3.374Y-2.1055
X3.474Y-2.0055
X3.474Y-2.1055
X3.574Y-2.0055
X3.574Y-2.1055
X3.674Y-2.0055
X3.674Y-2.1055
X3.774Y-2.0055
X3.774Y-2.1055
X3.874Y-2.0055
X3.874Y-2.1055
X3.974Y-2.0055
X3.974Y-2.1055
X4.074Y-2.0055
X4.074Y-2.1055
X4.174Y-2.0055
X4.174Y-2.1055
X4.274Y-2.0055
X4.274Y-2.1055
X4.374Y-2.0055
X4.374Y-2.1055
X4.474Y-2.0055
X4.474Y-2.1055
X4.574Y-2.0055
X4.574Y-2.1055
X4.674Y-2.0055
X4.674Y-2.1055
X4.774Y-2.0055
X4.774Y-2.1055
X4.874Y-2.0055
X4.874Y-2.1055
X4.974Y-2.0055
X4.974Y-2.1055
X5.074Y-2.0055
X5.074Y-2.1055
X3.074Y-2.3055
X3.074Y-2.4827
X3.3299Y-2.3055
X3.3299Y-2.4827
T4
X4.874Y-3.5055
X5.1693Y-3.5055
T0
M30
